<svg width="1920" height="1577" viewBox="0 0 1920 1577" fill="none" xmlns="http://www.w3.org/2000/svg">
<rect width="1920" height="1577" fill="#FAFAFA"/>
<path d="M139.38 146L139.2 117.29L125.52 140.33H116.16L102.48 118.28V146H83.13V83H100.59L121.11 116.57L141.09 83H158.55L158.73 146H139.38ZM223.179 96.77L202.929 146.99C200.349 153.41 197.139 157.91 193.299 160.49C189.459 163.07 184.749 164.36 179.169 164.36C176.409 164.36 173.619 163.94 170.799 163.1C168.039 162.32 165.849 161.27 164.229 159.95L170.979 146C171.999 146.78 173.139 147.41 174.399 147.89C175.719 148.37 176.979 148.61 178.179 148.61C180.399 148.61 182.079 147.95 183.219 146.63L162.519 96.77H183.399L193.569 123.14L203.919 96.77H223.179ZM284.231 83C290.051 83 295.121 83.96 299.441 85.88C303.761 87.8 307.091 90.56 309.431 94.16C311.771 97.76 312.941 101.96 312.941 106.76C312.941 111.56 311.771 115.76 309.431 119.36C307.091 122.96 303.761 125.72 299.441 127.64C295.121 129.56 290.051 130.52 284.231 130.52H275.141V146H253.901V83H284.231ZM282.881 114.14C285.761 114.14 287.921 113.51 289.361 112.25C290.801 110.93 291.521 109.1 291.521 106.76C291.521 104.42 290.801 102.62 289.361 101.36C287.921 100.04 285.761 99.38 282.881 99.38H275.141V114.14H282.881ZM320.156 79.22H340.496V146H320.156V79.22ZM371.562 95.87C380.202 95.87 386.802 97.82 391.362 101.72C395.922 105.56 398.202 111.5 398.202 119.54V146H379.302V139.52C376.962 144.44 372.312 146.9 365.352 146.9C361.452 146.9 358.122 146.24 355.362 144.92C352.662 143.54 350.592 141.71 349.152 139.43C347.772 137.09 347.082 134.48 347.082 131.6C347.082 126.74 348.942 123.05 352.662 120.53C356.382 118.01 362.022 116.75 369.582 116.75H377.772C377.112 112.91 374.022 110.99 368.502 110.99C366.282 110.99 364.032 111.35 361.752 112.07C359.472 112.73 357.522 113.66 355.902 114.86L349.422 101.45C352.242 99.71 355.632 98.36 359.592 97.4C363.612 96.38 367.602 95.87 371.562 95.87ZM371.472 134.66C372.912 134.66 374.202 134.27 375.342 133.49C376.482 132.71 377.322 131.54 377.862 129.98V126.56H372.822C368.682 126.56 366.612 127.94 366.612 130.7C366.612 131.84 367.032 132.8 367.872 133.58C368.772 134.3 369.972 134.66 371.472 134.66ZM441.192 95.87C447.252 95.87 452.112 97.7 455.772 101.36C459.492 105.02 461.352 110.54 461.352 117.92V146H441.012V121.43C441.012 115.79 439.002 112.97 434.982 112.97C432.702 112.97 430.842 113.78 429.402 115.4C428.022 116.96 427.332 119.45 427.332 122.87V146H406.992V96.77H426.342V101.63C428.262 99.71 430.482 98.27 433.002 97.31C435.522 96.35 438.252 95.87 441.192 95.87ZM489.446 146.9C485.246 146.9 481.106 146.45 477.026 145.55C472.946 144.65 469.646 143.48 467.126 142.04L472.706 128.63C474.986 130.01 477.686 131.09 480.806 131.87C483.926 132.65 486.956 133.04 489.896 133.04C492.236 133.04 493.856 132.86 494.756 132.5C495.716 132.08 496.196 131.48 496.196 130.7C496.196 129.92 495.596 129.38 494.396 129.08C493.256 128.78 491.366 128.48 488.726 128.18C484.706 127.7 481.286 127.1 478.466 126.38C475.646 125.6 473.156 124.13 470.996 121.97C468.896 119.81 467.846 116.72 467.846 112.7C467.846 109.52 468.806 106.67 470.726 104.15C472.646 101.63 475.496 99.62 479.276 98.12C483.116 96.62 487.706 95.87 493.046 95.87C496.766 95.87 500.396 96.23 503.936 96.95C507.536 97.61 510.596 98.6 513.116 99.92L507.536 113.33C503.216 110.93 498.476 109.73 493.316 109.73C488.876 109.73 486.656 110.51 486.656 112.07C486.656 112.85 487.256 113.42 488.456 113.78C489.656 114.08 491.546 114.38 494.126 114.68C498.146 115.16 501.536 115.79 504.296 116.57C507.116 117.35 509.576 118.82 511.676 120.98C513.836 123.14 514.916 126.23 514.916 130.25C514.916 133.31 513.956 136.1 512.036 138.62C510.116 141.14 507.236 143.15 503.396 144.65C499.556 146.15 494.906 146.9 489.446 146.9Z" fill="#393D48"/>
<path d="M139.38 146L138.38 146.006L138.386 147H139.38V146ZM139.2 117.29L140.2 117.284L140.177 113.685L138.34 116.779L139.2 117.29ZM125.52 140.33V141.33H126.089L126.38 140.841L125.52 140.33ZM116.16 140.33L115.31 140.857L115.604 141.33H116.16V140.33ZM102.48 118.28L103.33 117.753L101.48 114.771V118.28H102.48ZM102.48 146V147H103.48V146H102.48ZM83.13 146H82.13V147H83.13V146ZM83.13 83V82H82.13V83H83.13ZM100.59 83L101.443 82.4785L101.151 82H100.59V83ZM121.11 116.57L120.257 117.092L121.121 118.506L121.969 117.081L121.11 116.57ZM141.09 83V82H140.521L140.231 82.4886L141.09 83ZM158.55 83L159.55 82.9971L159.547 82H158.55V83ZM158.73 146V147H159.733L159.73 145.997L158.73 146ZM140.38 145.994L140.2 117.284L138.2 117.296L138.38 146.006L140.38 145.994ZM138.34 116.779L124.66 139.819L126.38 140.841L140.06 117.801L138.34 116.779ZM125.52 139.33H116.16V141.33H125.52V139.33ZM117.01 139.803L103.33 117.753L101.63 118.807L115.31 140.857L117.01 139.803ZM101.48 118.28V146H103.48V118.28H101.48ZM102.48 145H83.13V147H102.48V145ZM84.13 146V83H82.13V146H84.13ZM83.13 84H100.59V82H83.13V84ZM99.7368 83.5215L120.257 117.092L121.963 116.048L101.443 82.4785L99.7368 83.5215ZM121.969 117.081L141.949 83.5114L140.231 82.4886L120.251 116.059L121.969 117.081ZM141.09 84H158.55V82H141.09V84ZM157.55 83.0029L157.73 146.003L159.73 145.997L159.55 82.9971L157.55 83.0029ZM158.73 145H139.38V147H158.73V145ZM223.179 96.77L224.107 97.144L224.661 95.77H223.179V96.77ZM202.929 146.99L202.002 146.616L202.001 146.617L202.929 146.99ZM193.299 160.49L193.857 161.32L193.857 161.32L193.299 160.49ZM170.799 163.1L171.085 162.142L171.071 162.138L170.799 163.1ZM164.229 159.95L163.329 159.514L162.985 160.226L163.597 160.725L164.229 159.95ZM170.979 146L171.587 145.206L170.613 144.461L170.079 145.564L170.979 146ZM174.399 147.89L174.043 148.824L174.05 148.827L174.057 148.83L174.399 147.89ZM183.219 146.63L183.976 147.284L184.379 146.817L184.143 146.247L183.219 146.63ZM162.519 96.77V95.77H161.021L161.596 97.1534L162.519 96.77ZM183.399 96.77L184.332 96.4102L184.085 95.77H183.399V96.77ZM193.569 123.14L192.636 123.5L193.561 125.898L194.5 123.505L193.569 123.14ZM203.919 96.77V95.77H203.237L202.988 96.4046L203.919 96.77ZM222.252 96.396L202.002 146.616L203.857 147.364L224.107 97.144L222.252 96.396ZM202.001 146.617C199.461 152.938 196.351 157.235 192.741 159.66L193.857 161.32C197.927 158.585 201.237 153.882 203.857 147.363L202.001 146.617ZM192.741 159.66C189.098 162.108 184.592 163.36 179.169 163.36V165.36C184.906 165.36 189.821 164.032 193.857 161.32L192.741 159.66ZM179.169 163.36C176.512 163.36 173.818 162.956 171.085 162.142L170.514 164.058C173.42 164.924 176.306 165.36 179.169 165.36V163.36ZM171.071 162.138C168.397 161.382 166.343 160.383 164.861 159.175L163.597 160.725C165.355 162.157 167.682 163.258 170.527 164.062L171.071 162.138ZM165.129 160.386L171.879 146.436L170.079 145.564L163.329 159.514L165.129 160.386ZM170.372 146.794C171.472 147.636 172.698 148.312 174.043 148.824L174.755 146.956C173.581 146.508 172.526 145.924 171.587 145.206L170.372 146.794ZM174.057 148.83C175.469 149.343 176.845 149.61 178.179 149.61V147.61C177.114 147.61 175.97 147.397 174.741 146.95L174.057 148.83ZM178.179 149.61C180.604 149.61 182.597 148.881 183.976 147.284L182.462 145.976C181.562 147.019 180.194 147.61 178.179 147.61V149.61ZM184.143 146.247L163.443 96.3866L161.596 97.1534L182.296 147.013L184.143 146.247ZM162.519 97.77H183.399V95.77H162.519V97.77ZM182.466 97.1298L192.636 123.5L194.502 122.78L184.332 96.4102L182.466 97.1298ZM194.5 123.505L204.85 97.1354L202.988 96.4046L192.638 122.775L194.5 123.505ZM203.919 97.77H223.179V95.77H203.919V97.77ZM299.441 85.88L299.035 86.7938L299.035 86.7938L299.441 85.88ZM309.431 94.16L308.593 94.705L308.593 94.705L309.431 94.16ZM309.431 119.36L308.593 118.815L308.593 118.815L309.431 119.36ZM299.441 127.64L299.035 126.726L299.035 126.726L299.441 127.64ZM275.141 130.52V129.52H274.141V130.52H275.141ZM275.141 146V147H276.141V146H275.141ZM253.901 146H252.901V147H253.901V146ZM253.901 83V82H252.901V83H253.901ZM289.361 112.25L290.02 113.003L290.029 112.995L290.037 112.987L289.361 112.25ZM289.361 101.36L288.686 102.097L288.694 102.105L288.703 102.113L289.361 101.36ZM275.141 99.38V98.38H274.141V99.38H275.141ZM275.141 114.14H274.141V115.14H275.141V114.14ZM284.231 84C289.943 84 294.869 84.9422 299.035 86.7938L299.848 84.9662C295.374 82.9778 290.16 82 284.231 82V84ZM299.035 86.7938C303.197 88.6435 306.369 91.2834 308.593 94.705L310.27 93.615C307.814 89.8366 304.326 86.9565 299.848 84.9662L299.035 86.7938ZM308.593 94.705C310.815 98.1241 311.941 102.13 311.941 106.76H313.941C313.941 101.79 312.728 97.3959 310.27 93.615L308.593 94.705ZM311.941 106.76C311.941 111.39 310.815 115.396 308.593 118.815L310.27 119.905C312.728 116.124 313.941 111.73 313.941 106.76H311.941ZM308.593 118.815C306.369 122.237 303.197 124.876 299.035 126.726L299.848 128.554C304.326 126.564 307.814 123.683 310.27 119.905L308.593 118.815ZM299.035 126.726C294.869 128.578 289.943 129.52 284.231 129.52V131.52C290.16 131.52 295.374 130.542 299.848 128.554L299.035 126.726ZM284.231 129.52H275.141V131.52H284.231V129.52ZM274.141 130.52V146H276.141V130.52H274.141ZM275.141 145H253.901V147H275.141V145ZM254.901 146V83H252.901V146H254.901ZM253.901 84H284.231V82H253.901V84ZM282.881 115.14C285.885 115.14 288.325 114.486 290.02 113.003L288.703 111.497C287.518 112.534 285.638 113.14 282.881 113.14V115.14ZM290.037 112.987C291.724 111.441 292.521 109.32 292.521 106.76H290.521C290.521 108.88 289.879 110.419 288.686 111.513L290.037 112.987ZM292.521 106.76C292.521 104.202 291.725 102.099 290.02 100.607L288.703 102.113C289.878 103.141 290.521 104.638 290.521 106.76H292.521ZM290.037 100.623C288.342 99.0688 285.895 98.38 282.881 98.38V100.38C285.628 100.38 287.501 101.011 288.686 102.097L290.037 100.623ZM282.881 98.38H275.141V100.38H282.881V98.38ZM274.141 99.38V114.14H276.141V99.38H274.141ZM275.141 115.14H282.881V113.14H275.141V115.14ZM320.156 79.22V78.22H319.156V79.22H320.156ZM340.496 79.22H341.496V78.22H340.496V79.22ZM340.496 146V147H341.496V146H340.496ZM320.156 146H319.156V147H320.156V146ZM320.156 80.22H340.496V78.22H320.156V80.22ZM339.496 79.22V146H341.496V79.22H339.496ZM340.496 145H320.156V147H340.496V145ZM321.156 146V79.22H319.156V146H321.156ZM391.362 101.72L390.712 102.48L390.718 102.485L391.362 101.72ZM398.202 146V147H399.202V146H398.202ZM379.302 146H378.302V147H379.302V146ZM379.302 139.52H380.302L378.399 139.09L379.302 139.52ZM355.362 144.92L354.907 145.81L354.918 145.816L354.93 145.822L355.362 144.92ZM349.152 139.43L348.29 139.938L348.298 139.951L348.306 139.964L349.152 139.43ZM352.662 120.53L352.101 119.702L352.101 119.702L352.662 120.53ZM377.772 116.75V117.75H378.958L378.757 116.581L377.772 116.75ZM361.752 112.07L362.03 113.031L362.041 113.027L362.053 113.024L361.752 112.07ZM355.902 114.86L355.001 115.295L355.527 116.382L356.497 115.664L355.902 114.86ZM349.422 101.45L348.897 100.599L348.129 101.073L348.521 101.885L349.422 101.45ZM359.592 97.4L359.827 98.3719L359.838 98.3693L359.592 97.4ZM375.342 133.49L374.777 132.665L374.777 132.665L375.342 133.49ZM377.862 129.98L378.807 130.307L378.862 130.148V129.98H377.862ZM377.862 126.56H378.862V125.56H377.862V126.56ZM367.872 133.58L367.191 134.313L367.218 134.338L367.247 134.361L367.872 133.58ZM371.562 96.87C380.066 96.87 386.398 98.7907 390.712 102.48L392.012 100.96C387.205 96.8493 380.337 94.87 371.562 94.87V96.87ZM390.718 102.485C394.98 106.074 397.202 111.686 397.202 119.54H399.202C399.202 111.314 396.863 105.046 392.006 100.955L390.718 102.485ZM397.202 119.54V146H399.202V119.54H397.202ZM398.202 145H379.302V147H398.202V145ZM380.302 146V139.52H378.302V146H380.302ZM378.399 139.09C376.273 143.559 372.054 145.9 365.352 145.9V147.9C372.569 147.9 377.65 145.321 380.205 139.95L378.399 139.09ZM365.352 145.9C361.561 145.9 358.387 145.258 355.793 144.018L354.93 145.822C357.857 147.222 361.342 147.9 365.352 147.9V145.9ZM355.817 144.03C353.256 142.721 351.33 141.006 349.997 138.896L348.306 139.964C349.854 142.414 352.067 144.359 354.907 145.81L355.817 144.03ZM350.013 138.922C348.729 136.745 348.082 134.312 348.082 131.6H346.082C346.082 134.648 346.814 137.435 348.29 139.938L350.013 138.922ZM348.082 131.6C348.082 127.04 349.803 123.675 353.223 121.358L352.101 119.702C348.081 122.425 346.082 126.44 346.082 131.6H348.082ZM353.223 121.358C356.699 119.003 362.099 117.75 369.582 117.75V115.75C361.944 115.75 356.065 117.017 352.101 119.702L353.223 121.358ZM369.582 117.75H377.772V115.75H369.582V117.75ZM378.757 116.581C378.383 114.402 377.294 112.703 375.487 111.581C373.722 110.484 371.359 109.99 368.502 109.99V111.99C371.165 111.99 373.107 112.456 374.431 113.279C375.715 114.077 376.501 115.258 376.786 116.919L378.757 116.581ZM368.502 109.99C366.172 109.99 363.821 110.368 361.451 111.116L362.053 113.024C364.243 112.332 366.391 111.99 368.502 111.99V109.99ZM361.474 111.109C359.099 111.797 357.037 112.774 355.306 114.056L356.497 115.664C358.006 114.546 359.844 113.663 362.03 113.031L361.474 111.109ZM356.802 114.425L350.322 101.015L348.521 101.885L355.001 115.295L356.802 114.425ZM349.947 102.301C352.659 100.627 355.947 99.3125 359.827 98.3718L359.356 96.4281C355.316 97.4075 351.824 98.7927 348.897 100.599L349.947 102.301ZM359.838 98.3693C363.781 97.3687 367.688 96.87 371.562 96.87V94.87C367.515 94.87 363.442 95.3913 359.346 96.4307L359.838 98.3693ZM371.472 135.66C373.104 135.66 374.593 135.214 375.906 134.315L374.777 132.665C373.811 133.326 372.719 133.66 371.472 133.66V135.66ZM375.906 134.315C377.256 133.392 378.211 132.029 378.807 130.307L376.917 129.653C376.433 131.051 375.708 132.028 374.777 132.665L375.906 134.315ZM378.862 129.98V126.56H376.862V129.98H378.862ZM377.862 125.56H372.822V127.56H377.862V125.56ZM372.822 125.56C370.672 125.56 368.885 125.913 367.61 126.763C366.262 127.661 365.612 129.029 365.612 130.7H367.612C367.612 129.611 367.996 128.909 368.719 128.427C369.513 127.897 370.831 127.56 372.822 127.56V125.56ZM365.612 130.7C365.612 132.12 366.149 133.345 367.191 134.313L368.552 132.847C367.915 132.255 367.612 131.56 367.612 130.7H365.612ZM367.247 134.361C368.372 135.261 369.814 135.66 371.472 135.66V133.66C370.13 133.66 369.172 133.339 368.496 132.799L367.247 134.361ZM455.772 101.36L455.065 102.067L455.071 102.073L455.772 101.36ZM461.352 146V147H462.352V146H461.352ZM441.012 146H440.012V147H441.012V146ZM429.402 115.4L428.655 114.736L428.653 114.737L429.402 115.4ZM427.332 146V147H428.332V146H427.332ZM406.992 146H405.992V147H406.992V146ZM406.992 96.77V95.77H405.992V96.77H406.992ZM426.342 96.77H427.342V95.77H426.342V96.77ZM426.342 101.63H425.342V104.044L427.049 102.337L426.342 101.63ZM433.002 97.31L433.358 98.2445L433.358 98.2445L433.002 97.31ZM441.192 96.87C447.036 96.87 451.625 98.6266 455.065 102.067L456.479 100.653C452.6 96.7734 447.469 94.87 441.192 94.87V96.87ZM455.071 102.073C458.532 105.478 460.352 110.696 460.352 117.92H462.352C462.352 110.384 460.452 104.562 456.474 100.647L455.071 102.073ZM460.352 117.92V146H462.352V117.92H460.352ZM461.352 145H441.012V147H461.352V145ZM442.012 146V121.43H440.012V146H442.012ZM442.012 121.43C442.012 118.521 441.499 116.161 440.319 114.505C439.094 112.786 437.256 111.97 434.982 111.97V113.97C436.729 113.97 437.905 114.564 438.69 115.665C439.52 116.829 440.012 118.699 440.012 121.43H442.012ZM434.982 111.97C432.433 111.97 430.295 112.89 428.655 114.736L430.15 116.064C431.389 114.67 432.971 113.97 434.982 113.97V111.97ZM428.653 114.737C427.035 116.566 426.332 119.352 426.332 122.87H428.332C428.332 119.548 429.009 117.354 430.151 116.063L428.653 114.737ZM426.332 122.87V146H428.332V122.87H426.332ZM427.332 145H406.992V147H427.332V145ZM407.992 146V96.77H405.992V146H407.992ZM406.992 97.77H426.342V95.77H406.992V97.77ZM425.342 96.77V101.63H427.342V96.77H425.342ZM427.049 102.337C428.87 100.516 430.971 99.1539 433.358 98.2445L432.646 96.3755C429.993 97.3861 427.654 98.9039 425.635 100.923L427.049 102.337ZM433.358 98.2445C435.755 97.3315 438.363 96.87 441.192 96.87V94.87C438.142 94.87 435.29 95.3684 432.646 96.3755L433.358 98.2445ZM477.026 145.55L476.81 146.527L477.026 145.55ZM467.126 142.04L466.202 141.656L465.863 142.47L466.629 142.908L467.126 142.04ZM472.706 128.63L473.223 127.774L472.229 127.173L471.782 128.246L472.706 128.63ZM480.806 131.87L481.048 130.9L481.048 130.9L480.806 131.87ZM494.756 132.5L495.127 133.428L495.142 133.423L495.156 133.416L494.756 132.5ZM494.396 129.08L494.141 130.047L494.153 130.05L494.396 129.08ZM488.726 128.18L488.607 129.173L488.613 129.174L488.726 128.18ZM478.466 126.38L478.199 127.344L478.209 127.346L478.218 127.349L478.466 126.38ZM470.996 121.97L470.278 122.667L470.288 122.677L470.996 121.97ZM470.726 104.15L469.93 103.544L469.93 103.544L470.726 104.15ZM479.276 98.12L478.912 97.1885L478.907 97.1905L479.276 98.12ZM503.936 96.95L503.736 97.9299L503.746 97.9319L503.755 97.9336L503.936 96.95ZM513.116 99.92L514.039 100.304L514.391 99.459L513.58 99.0342L513.116 99.92ZM507.536 113.33L507.05 114.204L508.029 114.748L508.459 113.714L507.536 113.33ZM488.456 113.78L488.168 114.738L488.19 114.745L488.213 114.75L488.456 113.78ZM494.126 114.68L494.244 113.687L494.241 113.687L494.126 114.68ZM504.296 116.57L504.024 117.532L504.029 117.534L504.296 116.57ZM511.676 120.98L510.958 121.677L510.968 121.687L511.676 120.98ZM512.036 138.62L512.831 139.226L512.831 139.226L512.036 138.62ZM503.396 144.65L503.759 145.581L503.759 145.581L503.396 144.65ZM489.446 145.9C485.318 145.9 481.25 145.458 477.241 144.573L476.81 146.527C480.961 147.442 485.173 147.9 489.446 147.9V145.9ZM477.241 144.573C473.22 143.687 470.025 142.545 467.622 141.172L466.629 142.908C469.266 144.415 472.671 145.613 476.81 146.527L477.241 144.573ZM468.049 142.424L473.629 129.014L471.782 128.246L466.202 141.656L468.049 142.424ZM472.188 129.485C474.569 130.927 477.365 132.041 480.563 132.84L481.048 130.9C478.006 130.139 475.402 129.093 473.223 127.774L472.188 129.485ZM480.563 132.84C483.755 133.638 486.867 134.04 489.896 134.04V132.04C487.045 132.04 484.096 131.662 481.048 130.9L480.563 132.84ZM489.896 134.04C492.232 134.04 494.029 133.868 495.127 133.428L494.384 131.572C493.682 131.852 492.239 132.04 489.896 132.04V134.04ZM495.156 133.416C496.331 132.902 497.196 132.018 497.196 130.7H495.196C495.196 130.942 495.1 131.258 494.355 131.584L495.156 133.416ZM497.196 130.7C497.196 130.015 496.917 129.419 496.415 128.967C495.945 128.544 495.32 128.28 494.638 128.11L494.153 130.05C494.671 130.18 494.946 130.336 495.077 130.453C495.174 130.541 495.196 130.605 495.196 130.7H497.196ZM494.65 128.113C493.435 127.793 491.482 127.487 488.838 127.186L488.613 129.174C491.249 129.473 493.077 129.767 494.141 130.047L494.65 128.113ZM488.844 127.187C484.852 126.71 481.478 126.117 478.713 125.411L478.218 127.349C481.093 128.083 484.559 128.69 488.607 129.173L488.844 127.187ZM478.732 125.416C476.086 124.684 473.746 123.306 471.703 121.263L470.288 122.677C472.565 124.954 475.205 126.516 478.199 127.344L478.732 125.416ZM471.713 121.273C469.848 119.355 468.846 116.549 468.846 112.7H466.846C466.846 116.891 467.943 120.265 470.279 122.667L471.713 121.273ZM468.846 112.7C468.846 109.738 469.734 107.101 471.521 104.756L469.93 103.544C467.877 106.239 466.846 109.302 466.846 112.7H468.846ZM471.521 104.756C473.304 102.416 475.986 100.501 479.644 99.0495L478.907 97.1905C475.005 98.7389 471.987 100.844 469.93 103.544L471.521 104.756ZM479.639 99.0515C483.335 97.6079 487.795 96.87 493.046 96.87V94.87C487.616 94.87 482.896 95.6321 478.912 97.1885L479.639 99.0515ZM493.046 96.87C496.701 96.87 500.264 97.2237 503.736 97.9299L504.135 95.9701C500.527 95.2363 496.83 94.87 493.046 94.87V96.87ZM503.755 97.9336C507.283 98.5804 510.242 99.5437 512.652 100.806L513.58 99.0342C510.949 97.6563 507.788 96.6396 504.116 95.9664L503.755 97.9336ZM512.192 99.5358L506.612 112.946L508.459 113.714L514.039 100.304L512.192 99.5358ZM508.021 112.456C503.546 109.97 498.638 108.73 493.316 108.73V110.73C498.313 110.73 502.885 111.89 507.05 114.204L508.021 112.456ZM493.316 108.73C491.064 108.73 489.262 108.924 487.989 109.372C487.348 109.597 486.772 109.91 486.346 110.358C485.899 110.829 485.656 111.414 485.656 112.07H487.656C487.656 111.946 487.689 111.848 487.797 111.735C487.927 111.598 488.183 111.423 488.652 111.258C489.599 110.926 491.127 110.73 493.316 110.73V108.73ZM485.656 112.07C485.656 112.752 485.932 113.347 486.417 113.807C486.874 114.242 487.488 114.534 488.168 114.738L488.743 112.822C488.223 112.666 487.937 112.493 487.794 112.357C487.679 112.248 487.656 112.168 487.656 112.07H485.656ZM488.213 114.75C489.479 115.067 491.423 115.372 494.01 115.673L494.241 113.687C491.668 113.387 489.832 113.093 488.698 112.81L488.213 114.75ZM494.007 115.673C497.994 116.149 501.33 116.771 504.024 117.532L504.568 115.608C501.741 114.809 498.297 114.171 494.244 113.687L494.007 115.673ZM504.029 117.534C506.673 118.265 508.979 119.64 510.959 121.677L512.393 120.283C510.173 118 507.559 116.435 504.562 115.606L504.029 117.534ZM510.968 121.687C512.887 123.606 513.916 126.408 513.916 130.25H515.916C515.916 126.052 514.784 122.674 512.383 120.273L510.968 121.687ZM513.916 130.25C513.916 133.083 513.032 135.662 511.24 138.014L512.831 139.226C514.879 136.538 515.916 133.537 515.916 130.25H513.916ZM511.24 138.014C509.46 140.35 506.751 142.266 503.032 143.719L503.759 145.581C507.72 144.034 510.771 141.93 512.831 139.226L511.24 138.014ZM503.032 143.719C499.339 145.161 494.819 145.9 489.446 145.9V147.9C494.992 147.9 499.773 147.139 503.759 145.581L503.032 143.719Z" fill="white"/>
<rect x="61" y="234" width="1799" height="440" rx="50" fill="#C4C4C4"/>
<line x1="475" y1="232" x2="475" y2="674.018" stroke="black" stroke-width="4"/>
<line x1="930" y1="234" x2="930" y2="676.018" stroke="black" stroke-width="4"/>
<line x1="1398" y1="234" x2="1398" y2="676.018" stroke="black" stroke-width="4"/>
<path d="M152.85 446.14L125.58 455.5L152.85 464.86V480.16L106.95 463.51V447.49L152.85 430.84V446.14Z" fill="black"/>
<path d="M1796.85 447.49V463.51L1750.95 480.16V464.86L1778.22 455.5L1750.95 446.14V430.84L1796.85 447.49Z" fill="black"/>
<path d="M1730.09 157L1717.69 185H1714.77L1702.37 157H1705.57L1716.29 181.32L1727.09 157H1730.09ZM1733.44 163.96H1736.28V185H1733.44V163.96ZM1734.88 159.36C1734.29 159.36 1733.8 159.16 1733.4 158.76C1733 158.36 1732.8 157.88 1732.8 157.32C1732.8 156.787 1733 156.32 1733.4 155.92C1733.8 155.52 1734.29 155.32 1734.88 155.32C1735.46 155.32 1735.96 155.52 1736.36 155.92C1736.76 156.293 1736.96 156.747 1736.96 157.28C1736.96 157.867 1736.76 158.36 1736.36 158.76C1735.96 159.16 1735.46 159.36 1734.88 159.36ZM1762.5 175.36H1744.9C1745.06 177.547 1745.9 179.32 1747.42 180.68C1748.94 182.013 1750.86 182.68 1753.18 182.68C1754.49 182.68 1755.69 182.453 1756.78 182C1757.87 181.52 1758.82 180.827 1759.62 179.92L1761.22 181.76C1760.29 182.88 1759.11 183.733 1757.7 184.32C1756.31 184.907 1754.78 185.2 1753.1 185.2C1750.94 185.2 1749.02 184.747 1747.34 183.84C1745.69 182.907 1744.39 181.627 1743.46 180C1742.53 178.373 1742.06 176.533 1742.06 174.48C1742.06 172.427 1742.5 170.587 1743.38 168.96C1744.29 167.333 1745.51 166.067 1747.06 165.16C1748.63 164.253 1750.39 163.8 1752.34 163.8C1754.29 163.8 1756.03 164.253 1757.58 165.16C1759.13 166.067 1760.34 167.333 1761.22 168.96C1762.1 170.56 1762.54 172.4 1762.54 174.48L1762.5 175.36ZM1752.34 166.24C1750.31 166.24 1748.61 166.893 1747.22 168.2C1745.86 169.48 1745.09 171.16 1744.9 173.24H1759.82C1759.63 171.16 1758.85 169.48 1757.46 168.2C1756.1 166.893 1754.39 166.24 1752.34 166.24ZM1798.81 163.96L1790.85 185H1788.17L1781.53 167.76L1774.89 185H1772.21L1764.29 163.96H1767.01L1773.61 181.84L1780.37 163.96H1782.81L1789.53 181.84L1796.21 163.96H1798.81ZM1831.71 177.52H1816.11L1812.75 185H1809.67L1822.47 157H1825.39L1838.19 185H1835.07L1831.71 177.52ZM1830.63 175.12L1823.91 160.08L1817.19 175.12H1830.63ZM1842.23 155.32H1845.07V185H1842.23V155.32ZM1852.97 155.32H1855.81V185H1852.97V155.32Z" fill="black"/>
<path d="M110.13 841.16H104.37V857H83.13V794H113.46C119.28 794 124.35 794.96 128.67 796.88C132.99 798.8 136.32 801.56 138.66 805.16C141 808.76 142.17 812.96 142.17 817.76C142.17 822.26 141.15 826.19 139.11 829.55C137.07 832.91 134.13 835.58 130.29 837.56L143.52 857H120.84L110.13 841.16ZM120.75 817.76C120.75 815.42 120.03 813.62 118.59 812.36C117.15 811.04 114.99 810.38 112.11 810.38H104.37V825.14H112.11C114.99 825.14 117.15 824.51 118.59 823.25C120.03 821.93 120.75 820.1 120.75 817.76ZM201.941 832.34C201.941 832.64 201.851 834.23 201.671 837.11H167.471C168.191 838.97 169.391 840.41 171.071 841.43C172.751 842.39 174.851 842.87 177.371 842.87C179.531 842.87 181.331 842.6 182.771 842.06C184.271 841.52 185.891 840.59 187.631 839.27L198.251 849.98C193.451 855.26 186.281 857.9 176.741 857.9C170.801 857.9 165.581 856.82 161.081 854.66C156.581 852.44 153.101 849.38 150.641 845.48C148.181 841.58 146.951 837.2 146.951 832.34C146.951 827.42 148.151 823.04 150.551 819.2C153.011 815.3 156.341 812.27 160.541 810.11C164.801 807.95 169.571 806.87 174.851 806.87C179.831 806.87 184.361 807.86 188.441 809.84C192.581 811.82 195.851 814.73 198.251 818.57C200.711 822.41 201.941 827 201.941 832.34ZM175.031 820.73C172.931 820.73 171.191 821.3 169.811 822.44C168.431 823.58 167.531 825.2 167.111 827.3H182.951C182.531 825.26 181.631 823.67 180.251 822.53C178.871 821.33 177.131 820.73 175.031 820.73ZM234.819 857.9C229.239 857.9 224.229 856.82 219.789 854.66C215.409 852.5 211.959 849.47 209.439 845.57C206.979 841.67 205.749 837.26 205.749 832.34C205.749 827.42 206.979 823.04 209.439 819.2C211.959 815.3 215.409 812.27 219.789 810.11C224.229 807.95 229.239 806.87 234.819 806.87C240.819 806.87 245.949 808.16 250.209 810.74C254.469 813.32 257.409 816.89 259.029 821.45L243.279 829.19C241.359 824.87 238.509 822.71 234.729 822.71C232.329 822.71 230.319 823.55 228.699 825.23C227.139 826.91 226.359 829.28 226.359 832.34C226.359 835.46 227.139 837.86 228.699 839.54C230.319 841.22 232.329 842.06 234.729 842.06C238.509 842.06 241.359 839.9 243.279 835.58L259.029 843.32C257.409 847.88 254.469 851.45 250.209 854.03C245.949 856.61 240.819 857.9 234.819 857.9ZM289.301 857.9C283.841 857.9 278.921 856.82 274.541 854.66C270.221 852.44 266.831 849.41 264.371 845.57C261.911 841.67 260.681 837.26 260.681 832.34C260.681 827.42 261.911 823.04 264.371 819.2C266.831 815.3 270.221 812.27 274.541 810.11C278.921 807.95 283.841 806.87 289.301 806.87C294.821 806.87 299.741 807.95 304.061 810.11C308.441 812.27 311.831 815.3 314.231 819.2C316.691 823.04 317.921 827.42 317.921 832.34C317.921 837.26 316.691 841.67 314.231 845.57C311.831 849.41 308.441 852.44 304.061 854.66C299.741 856.82 294.821 857.9 289.301 857.9ZM289.301 842.06C291.641 842.06 293.561 841.22 295.061 839.54C296.561 837.8 297.311 835.4 297.311 832.34C297.311 829.28 296.561 826.91 295.061 825.23C293.561 823.55 291.641 822.71 289.301 822.71C286.961 822.71 285.041 823.55 283.541 825.23C282.041 826.91 281.291 829.28 281.291 832.34C281.291 835.4 282.041 837.8 283.541 839.54C285.041 841.22 286.961 842.06 289.301 842.06ZM389.447 806.87C395.387 806.87 400.127 808.7 403.667 812.36C407.267 816.02 409.067 821.54 409.067 828.92V857H388.727V832.43C388.727 826.79 386.897 823.97 383.237 823.97C381.317 823.97 379.757 824.69 378.557 826.13C377.417 827.57 376.847 829.85 376.847 832.97V857H356.507V832.43C356.507 826.79 354.677 823.97 351.017 823.97C349.097 823.97 347.537 824.69 346.337 826.13C345.197 827.57 344.627 829.85 344.627 832.97V857H324.287V807.77H343.637V812.36C347.297 808.7 351.947 806.87 357.587 806.87C360.887 806.87 363.857 807.5 366.497 808.76C369.137 809.96 371.297 811.82 372.977 814.34C374.957 811.94 377.357 810.11 380.177 808.85C382.997 807.53 386.087 806.87 389.447 806.87ZM483.051 806.87C488.991 806.87 493.731 808.7 497.271 812.36C500.871 816.02 502.671 821.54 502.671 828.92V857H482.331V832.43C482.331 826.79 480.501 823.97 476.841 823.97C474.921 823.97 473.361 824.69 472.161 826.13C471.021 827.57 470.451 829.85 470.451 832.97V857H450.111V832.43C450.111 826.79 448.281 823.97 444.621 823.97C442.701 823.97 441.141 824.69 439.941 826.13C438.801 827.57 438.231 829.85 438.231 832.97V857H417.891V807.77H437.241V812.36C440.901 808.7 445.551 806.87 451.191 806.87C454.491 806.87 457.461 807.5 460.101 808.76C462.741 809.96 464.901 811.82 466.581 814.34C468.561 811.94 470.961 810.11 473.781 808.85C476.601 807.53 479.691 806.87 483.051 806.87ZM564.753 832.34C564.753 832.64 564.663 834.23 564.483 837.11H530.283C531.003 838.97 532.203 840.41 533.883 841.43C535.563 842.39 537.663 842.87 540.183 842.87C542.343 842.87 544.143 842.6 545.583 842.06C547.083 841.52 548.703 840.59 550.443 839.27L561.063 849.98C556.263 855.26 549.093 857.9 539.553 857.9C533.613 857.9 528.393 856.82 523.893 854.66C519.393 852.44 515.913 849.38 513.453 845.48C510.993 841.58 509.763 837.2 509.763 832.34C509.763 827.42 510.963 823.04 513.363 819.2C515.823 815.3 519.153 812.27 523.353 810.11C527.613 807.95 532.383 806.87 537.663 806.87C542.643 806.87 547.173 807.86 551.253 809.84C555.393 811.82 558.663 814.73 561.063 818.57C563.523 822.41 564.753 827 564.753 832.34ZM537.843 820.73C535.743 820.73 534.003 821.3 532.623 822.44C531.243 823.58 530.343 825.2 529.923 827.3H545.763C545.343 825.26 544.443 823.67 543.063 822.53C541.683 821.33 539.943 820.73 537.843 820.73ZM605.372 806.87C611.432 806.87 616.292 808.7 619.952 812.36C623.672 816.02 625.532 821.54 625.532 828.92V857H605.192V832.43C605.192 826.79 603.182 823.97 599.162 823.97C596.882 823.97 595.022 824.78 593.582 826.4C592.202 827.96 591.512 830.45 591.512 833.87V857H571.172V807.77H590.522V812.63C592.442 810.71 594.662 809.27 597.182 808.31C599.702 807.35 602.432 806.87 605.372 806.87ZM689.694 790.22V857H670.344V852.95C667.404 856.25 662.904 857.9 656.844 857.9C652.524 857.9 648.534 856.88 644.874 854.84C641.274 852.74 638.394 849.74 636.234 845.84C634.134 841.94 633.084 837.44 633.084 832.34C633.084 827.24 634.134 822.77 636.234 818.93C638.394 815.03 641.274 812.06 644.874 810.02C648.534 807.92 652.524 806.87 656.844 806.87C662.304 806.87 666.474 808.28 669.354 811.1V790.22H689.694ZM661.704 842.06C664.044 842.06 665.964 841.22 667.464 839.54C668.964 837.8 669.714 835.4 669.714 832.34C669.714 829.28 668.964 826.91 667.464 825.23C665.964 823.55 664.044 822.71 661.704 822.71C659.364 822.71 657.444 823.55 655.944 825.23C654.444 826.91 653.694 829.28 653.694 832.34C653.694 835.4 654.444 837.8 655.944 839.54C657.444 841.22 659.364 842.06 661.704 842.06ZM751.081 832.34C751.081 832.64 750.991 834.23 750.811 837.11H716.611C717.331 838.97 718.531 840.41 720.211 841.43C721.891 842.39 723.991 842.87 726.511 842.87C728.671 842.87 730.471 842.6 731.911 842.06C733.411 841.52 735.031 840.59 736.771 839.27L747.391 849.98C742.591 855.26 735.421 857.9 725.881 857.9C719.941 857.9 714.721 856.82 710.221 854.66C705.721 852.44 702.241 849.38 699.781 845.48C697.321 841.58 696.091 837.2 696.091 832.34C696.091 827.42 697.291 823.04 699.691 819.2C702.151 815.3 705.481 812.27 709.681 810.11C713.941 807.95 718.711 806.87 723.991 806.87C728.971 806.87 733.501 807.86 737.581 809.84C741.721 811.82 744.991 814.73 747.391 818.57C749.851 822.41 751.081 827 751.081 832.34ZM724.171 820.73C722.071 820.73 720.331 821.3 718.951 822.44C717.571 823.58 716.671 825.2 716.251 827.3H732.091C731.671 825.26 730.771 823.67 729.391 822.53C728.011 821.33 726.271 820.73 724.171 820.73ZM811.95 790.22V857H792.6V852.95C789.66 856.25 785.16 857.9 779.1 857.9C774.78 857.9 770.79 856.88 767.13 854.84C763.53 852.74 760.65 849.74 758.49 845.84C756.39 841.94 755.34 837.44 755.34 832.34C755.34 827.24 756.39 822.77 758.49 818.93C760.65 815.03 763.53 812.06 767.13 810.02C770.79 807.92 774.78 806.87 779.1 806.87C784.56 806.87 788.73 808.28 791.61 811.1V790.22H811.95ZM783.96 842.06C786.3 842.06 788.22 841.22 789.72 839.54C791.22 837.8 791.97 835.4 791.97 832.34C791.97 829.28 791.22 826.91 789.72 825.23C788.22 823.55 786.3 822.71 783.96 822.71C781.62 822.71 779.7 823.55 778.2 825.23C776.7 826.91 775.95 829.28 775.95 832.34C775.95 835.4 776.7 837.8 778.2 839.54C779.7 841.22 781.62 842.06 783.96 842.06ZM878.899 794C884.719 794 889.789 794.96 894.109 796.88C898.429 798.8 901.759 801.56 904.099 805.16C906.439 808.76 907.609 812.96 907.609 817.76C907.609 822.56 906.439 826.76 904.099 830.36C901.759 833.96 898.429 836.72 894.109 838.64C889.789 840.56 884.719 841.52 878.899 841.52H869.809V857H848.569V794H878.899ZM877.549 825.14C880.429 825.14 882.589 824.51 884.029 823.25C885.469 821.93 886.189 820.1 886.189 817.76C886.189 815.42 885.469 813.62 884.029 812.36C882.589 811.04 880.429 810.38 877.549 810.38H869.809V825.14H877.549ZM914.824 790.22H935.164V857H914.824V790.22ZM966.23 806.87C974.87 806.87 981.47 808.82 986.03 812.72C990.59 816.56 992.87 822.5 992.87 830.54V857H973.97V850.52C971.63 855.44 966.98 857.9 960.02 857.9C956.12 857.9 952.79 857.24 950.03 855.92C947.33 854.54 945.26 852.71 943.82 850.43C942.44 848.09 941.75 845.48 941.75 842.6C941.75 837.74 943.61 834.05 947.33 831.53C951.05 829.01 956.69 827.75 964.25 827.75H972.44C971.78 823.91 968.69 821.99 963.17 821.99C960.95 821.99 958.7 822.35 956.42 823.07C954.14 823.73 952.19 824.66 950.57 825.86L944.09 812.45C946.91 810.71 950.3 809.36 954.26 808.4C958.28 807.38 962.27 806.87 966.23 806.87ZM966.14 845.66C967.58 845.66 968.87 845.27 970.01 844.49C971.15 843.71 971.99 842.54 972.53 840.98V837.56H967.49C963.35 837.56 961.28 838.94 961.28 841.7C961.28 842.84 961.7 843.8 962.54 844.58C963.44 845.3 964.64 845.66 966.14 845.66ZM1035.86 806.87C1041.92 806.87 1046.78 808.7 1050.44 812.36C1054.16 816.02 1056.02 821.54 1056.02 828.92V857H1035.68V832.43C1035.68 826.79 1033.67 823.97 1029.65 823.97C1027.37 823.97 1025.51 824.78 1024.07 826.4C1022.69 827.96 1022 830.45 1022 833.87V857H1001.66V807.77H1021.01V812.63C1022.93 810.71 1025.15 809.27 1027.67 808.31C1030.19 807.35 1032.92 806.87 1035.86 806.87ZM1084.11 857.9C1079.91 857.9 1075.77 857.45 1071.69 856.55C1067.61 855.65 1064.31 854.48 1061.79 853.04L1067.37 839.63C1069.65 841.01 1072.35 842.09 1075.47 842.87C1078.59 843.65 1081.62 844.04 1084.56 844.04C1086.9 844.04 1088.52 843.86 1089.42 843.5C1090.38 843.08 1090.86 842.48 1090.86 841.7C1090.86 840.92 1090.26 840.38 1089.06 840.08C1087.92 839.78 1086.03 839.48 1083.39 839.18C1079.37 838.7 1075.95 838.1 1073.13 837.38C1070.31 836.6 1067.82 835.13 1065.66 832.97C1063.56 830.81 1062.51 827.72 1062.51 823.7C1062.51 820.52 1063.47 817.67 1065.39 815.15C1067.31 812.63 1070.16 810.62 1073.94 809.12C1077.78 807.62 1082.37 806.87 1087.71 806.87C1091.43 806.87 1095.06 807.23 1098.6 807.95C1102.2 808.61 1105.26 809.6 1107.78 810.92L1102.2 824.33C1097.88 821.93 1093.14 820.73 1087.98 820.73C1083.54 820.73 1081.32 821.51 1081.32 823.07C1081.32 823.85 1081.92 824.42 1083.12 824.78C1084.32 825.08 1086.21 825.38 1088.79 825.68C1092.81 826.16 1096.2 826.79 1098.96 827.57C1101.78 828.35 1104.24 829.82 1106.34 831.98C1108.5 834.14 1109.58 837.23 1109.58 841.25C1109.58 844.31 1108.62 847.1 1106.7 849.62C1104.78 852.14 1101.9 854.15 1098.06 855.65C1094.22 857.15 1089.57 857.9 1084.11 857.9Z" fill="#393D48"/>
<path d="M110.13 841.16L110.958 840.6L110.661 840.16H110.13V841.16ZM104.37 841.16V840.16H103.37V841.16H104.37ZM104.37 857V858H105.37V857H104.37ZM83.13 857H82.13V858H83.13V857ZM83.13 794V793H82.13V794H83.13ZM128.67 796.88L128.264 797.794L128.264 797.794L128.67 796.88ZM138.66 805.16L137.822 805.705L137.822 805.705L138.66 805.16ZM139.11 829.55L138.255 829.031L138.255 829.031L139.11 829.55ZM130.29 837.56L129.832 836.671L128.828 837.189L129.463 838.123L130.29 837.56ZM143.52 857V858H145.41L144.347 856.437L143.52 857ZM120.84 857L120.012 857.56L120.309 858H120.84V857ZM118.59 812.36L117.914 813.097L117.923 813.105L117.931 813.113L118.59 812.36ZM104.37 810.38V809.38H103.37V810.38H104.37ZM104.37 825.14H103.37V826.14H104.37V825.14ZM118.59 823.25L119.249 824.003L119.257 823.995L119.266 823.987L118.59 823.25ZM110.13 840.16H104.37V842.16H110.13V840.16ZM103.37 841.16V857H105.37V841.16H103.37ZM104.37 856H83.13V858H104.37V856ZM84.13 857V794H82.13V857H84.13ZM83.13 795H113.46V793H83.13V795ZM113.46 795C119.172 795 124.098 795.942 128.264 797.794L129.076 795.966C124.602 793.978 119.388 793 113.46 793V795ZM128.264 797.794C132.426 799.643 135.598 802.283 137.822 805.705L139.498 804.615C137.043 800.837 133.554 797.956 129.076 795.966L128.264 797.794ZM137.822 805.705C140.044 809.124 141.17 813.13 141.17 817.76H143.17C143.17 812.79 141.956 808.396 139.498 804.615L137.822 805.705ZM141.17 817.76C141.17 822.104 140.187 825.849 138.255 829.031L139.965 830.069C142.113 826.531 143.17 822.416 143.17 817.76H141.17ZM138.255 829.031C136.32 832.218 133.525 834.767 129.832 836.671L130.748 838.449C134.735 836.393 137.82 833.602 139.965 830.069L138.255 829.031ZM129.463 838.123L142.693 857.563L144.347 856.437L131.117 836.997L129.463 838.123ZM143.52 856H120.84V858H143.52V856ZM121.668 856.44L110.958 840.6L109.302 841.72L120.012 857.56L121.668 856.44ZM121.75 817.76C121.75 815.202 120.953 813.099 119.249 811.607L117.931 813.113C119.107 814.141 119.75 815.638 119.75 817.76H121.75ZM119.266 811.623C117.57 810.069 115.124 809.38 112.11 809.38V811.38C114.856 811.38 116.73 812.011 117.914 813.097L119.266 811.623ZM112.11 809.38H104.37V811.38H112.11V809.38ZM103.37 810.38V825.14H105.37V810.38H103.37ZM104.37 826.14H112.11V824.14H104.37V826.14ZM112.11 826.14C115.114 826.14 117.553 825.486 119.249 824.003L117.931 822.497C116.747 823.534 114.866 824.14 112.11 824.14V826.14ZM119.266 823.987C120.953 822.441 121.75 820.32 121.75 817.76H119.75C119.75 819.88 119.107 821.419 117.914 822.513L119.266 823.987ZM201.671 837.11V838.11H202.61L202.669 837.172L201.671 837.11ZM167.471 837.11V836.11H166.011L166.538 837.471L167.471 837.11ZM171.071 841.43L170.552 842.285L170.563 842.292L170.574 842.298L171.071 841.43ZM182.771 842.06L182.432 841.119L182.419 841.124L182.771 842.06ZM187.631 839.27L188.341 838.566L187.724 837.944L187.026 838.473L187.631 839.27ZM198.251 849.98L198.99 850.653L199.629 849.95L198.961 849.276L198.251 849.98ZM161.081 854.66L160.638 855.557L160.648 855.562L161.081 854.66ZM150.641 845.48L151.486 844.946L150.641 845.48ZM150.551 819.2L149.705 818.666L149.703 818.67L150.551 819.2ZM160.541 810.11L160.088 809.218L160.083 809.221L160.541 810.11ZM188.441 809.84L188.004 810.74L188.009 810.742L188.441 809.84ZM198.251 818.57L197.402 819.1L197.409 819.109L198.251 818.57ZM169.811 822.44L170.447 823.211L170.447 823.211L169.811 822.44ZM167.111 827.3L166.13 827.104L165.891 828.3H167.111V827.3ZM182.951 827.3V828.3H184.177L183.93 827.098L182.951 827.3ZM180.251 822.53L179.594 823.285L179.604 823.293L179.614 823.301L180.251 822.53ZM200.941 832.34C200.941 832.599 200.854 834.141 200.672 837.048L202.669 837.172C202.847 834.319 202.941 832.681 202.941 832.34H200.941ZM201.671 836.11H167.471V838.11H201.671V836.11ZM166.538 837.471C167.336 839.533 168.68 841.148 170.552 842.285L171.59 840.575C170.101 839.672 169.045 838.407 168.403 836.749L166.538 837.471ZM170.574 842.298C172.445 843.367 174.728 843.87 177.371 843.87V841.87C174.973 841.87 173.057 841.413 171.567 840.562L170.574 842.298ZM177.371 843.87C179.606 843.87 181.534 843.592 183.122 842.996L182.419 841.124C181.127 841.608 179.455 841.87 177.371 841.87V843.87ZM183.109 843.001C184.733 842.417 186.442 841.427 188.235 840.067L187.026 838.473C185.339 839.753 183.809 840.623 182.432 841.119L183.109 843.001ZM186.92 839.974L197.54 850.684L198.961 849.276L188.341 838.566L186.92 839.974ZM197.511 849.307C192.958 854.315 186.098 856.9 176.741 856.9V858.9C186.463 858.9 193.943 856.205 198.99 850.653L197.511 849.307ZM176.741 856.9C170.922 856.9 165.855 855.842 161.513 853.758L160.648 855.562C165.306 857.798 170.679 858.9 176.741 858.9V856.9ZM161.523 853.763C157.173 851.617 153.839 848.677 151.486 844.946L149.795 846.014C152.362 850.083 155.988 853.263 160.638 855.557L161.523 853.763ZM151.486 844.946C149.133 841.215 147.951 837.022 147.951 832.34H145.951C145.951 837.378 147.228 841.945 149.795 846.014L151.486 844.946ZM147.951 832.34C147.951 827.591 149.106 823.397 151.399 819.73L149.703 818.67C147.195 822.683 145.951 827.249 145.951 832.34H147.951ZM151.396 819.734C153.759 815.988 156.953 813.08 160.998 810.999L160.083 809.221C155.728 811.46 152.263 814.612 149.705 818.666L151.396 819.734ZM160.993 811.002C165.098 808.92 169.711 807.87 174.851 807.87V805.87C169.43 805.87 164.503 806.98 160.088 809.218L160.993 811.002ZM174.851 807.87C179.694 807.87 184.073 808.832 188.004 810.74L188.877 808.94C184.648 806.888 179.967 805.87 174.851 805.87V807.87ZM188.009 810.742C191.98 812.641 195.105 815.423 197.403 819.1L199.099 818.04C196.596 814.037 193.181 810.999 188.872 808.938L188.009 810.742ZM197.409 819.109C199.749 822.763 200.941 827.158 200.941 832.34H202.941C202.941 826.842 201.672 822.057 199.093 818.031L197.409 819.109ZM175.031 819.73C172.74 819.73 170.763 820.356 169.174 821.669L170.447 823.211C171.618 822.244 173.121 821.73 175.031 821.73V819.73ZM169.174 821.669C167.583 822.983 166.586 824.825 166.13 827.104L168.091 827.496C168.475 825.575 169.278 824.177 170.447 823.211L169.174 821.669ZM167.111 828.3H182.951V826.3H167.111V828.3ZM183.93 827.098C183.472 824.873 182.471 823.067 180.887 821.759L179.614 823.301C180.79 824.273 181.589 825.647 181.971 827.502L183.93 827.098ZM180.907 821.775C179.318 820.394 177.334 819.73 175.031 819.73V821.73C176.927 821.73 178.423 822.266 179.594 823.285L180.907 821.775ZM219.789 854.66L219.347 855.557L219.352 855.559L219.789 854.66ZM209.439 845.57L208.594 846.104L208.599 846.113L209.439 845.57ZM209.439 819.2L208.599 818.657L208.597 818.661L209.439 819.2ZM219.789 810.11L219.352 809.211L219.347 809.213L219.789 810.11ZM250.209 810.74L249.691 811.595L249.691 811.595L250.209 810.74ZM259.029 821.45L259.47 822.347L260.27 821.955L259.972 821.115L259.029 821.45ZM243.279 829.19L242.366 829.596L242.788 830.546L243.72 830.087L243.279 829.19ZM228.699 825.23L227.98 824.536L227.973 824.543L227.967 824.55L228.699 825.23ZM228.699 839.54L227.967 840.22L227.973 840.227L227.98 840.234L228.699 839.54ZM243.279 835.58L243.72 834.683L242.788 834.224L242.366 835.174L243.279 835.58ZM259.029 843.32L259.972 843.655L260.27 842.815L259.47 842.423L259.029 843.32ZM250.209 854.03L250.727 854.885L250.727 854.885L250.209 854.03ZM234.819 856.9C229.371 856.9 224.514 855.846 220.227 853.761L219.352 855.559C223.945 857.794 229.108 858.9 234.819 858.9V856.9ZM220.232 853.763C216.005 851.679 212.696 848.767 210.279 845.027L208.599 846.113C211.223 850.173 214.814 853.321 219.347 855.557L220.232 853.763ZM210.285 845.036C207.933 841.307 206.749 837.084 206.749 832.34H204.749C204.749 837.436 206.026 842.033 208.594 846.104L210.285 845.036ZM206.749 832.34C206.749 827.595 207.933 823.406 210.281 819.739L208.597 818.661C206.026 822.674 204.749 827.245 204.749 832.34H206.749ZM210.279 819.743C212.696 816.003 216.005 813.091 220.232 811.007L219.347 809.213C214.814 811.449 211.223 814.597 208.599 818.657L210.279 819.743ZM220.227 811.009C224.514 808.924 229.371 807.87 234.819 807.87V805.87C229.108 805.87 223.945 806.976 219.352 809.211L220.227 811.009ZM234.819 807.87C240.674 807.87 245.617 809.128 249.691 811.595L250.727 809.885C246.282 807.192 240.964 805.87 234.819 805.87V807.87ZM249.691 811.595C253.76 814.06 256.547 817.449 258.087 821.785L259.972 821.115C258.272 816.331 255.178 812.58 250.727 809.885L249.691 811.595ZM258.588 820.553L242.838 828.293L243.72 830.087L259.47 822.347L258.588 820.553ZM244.193 828.784C243.186 826.518 241.902 824.743 240.306 823.533C238.697 822.313 236.824 821.71 234.729 821.71V823.71C236.415 823.71 237.857 824.187 239.098 825.127C240.352 826.077 241.453 827.542 242.366 829.596L244.193 828.784ZM234.729 821.71C232.067 821.71 229.794 822.654 227.98 824.536L229.419 825.924C230.845 824.446 232.592 823.71 234.729 823.71V821.71ZM227.967 824.55C226.184 826.469 225.359 829.114 225.359 832.34H227.359C227.359 829.446 228.095 827.351 229.432 825.91L227.967 824.55ZM225.359 832.34C225.359 835.62 226.181 838.297 227.967 840.22L229.432 838.86C228.098 837.423 227.359 835.3 227.359 832.34H225.359ZM227.98 840.234C229.794 842.116 232.067 843.06 234.729 843.06V841.06C232.592 841.06 230.845 840.324 229.419 838.846L227.98 840.234ZM234.729 843.06C236.824 843.06 238.697 842.457 240.306 841.237C241.902 840.027 243.186 838.252 244.193 835.986L242.366 835.174C241.453 837.228 240.352 838.693 239.098 839.643C237.857 840.583 236.415 841.06 234.729 841.06V843.06ZM242.838 836.477L258.588 844.217L259.47 842.423L243.72 834.683L242.838 836.477ZM258.087 842.985C256.547 847.321 253.76 850.71 249.691 853.175L250.727 854.885C255.178 852.19 258.272 848.439 259.972 843.655L258.087 842.985ZM249.691 853.175C245.617 855.642 240.674 856.9 234.819 856.9V858.9C240.964 858.9 246.282 857.578 250.727 854.885L249.691 853.175ZM274.541 854.66L274.084 855.549L274.091 855.553L274.099 855.557L274.541 854.66ZM264.371 845.57L263.525 846.104L263.529 846.109L264.371 845.57ZM264.371 819.2L265.213 819.739L265.217 819.734L264.371 819.2ZM274.541 810.11L274.099 809.213L274.094 809.216L274.541 810.11ZM304.061 810.11L303.614 811.004L303.619 811.007L304.061 810.11ZM314.231 819.2L313.379 819.724L313.384 819.732L313.389 819.739L314.231 819.2ZM314.231 845.57L313.385 845.036L313.383 845.04L314.231 845.57ZM304.061 854.66L304.508 855.554L304.513 855.552L304.061 854.66ZM295.061 839.54L295.807 840.206L295.813 840.2L295.818 840.193L295.061 839.54ZM283.541 839.54L282.784 840.193L282.789 840.2L282.795 840.206L283.541 839.54ZM289.301 856.9C283.976 856.9 279.21 855.848 274.983 853.763L274.099 855.557C278.632 857.792 283.706 858.9 289.301 858.9V856.9ZM274.998 853.771C270.824 851.626 267.572 848.712 265.213 845.031L263.529 846.109C266.09 850.108 269.618 853.254 274.084 855.549L274.998 853.771ZM265.217 845.036C262.864 841.307 261.681 837.084 261.681 832.34H259.681C259.681 837.436 260.958 842.033 263.525 846.104L265.217 845.036ZM261.681 832.34C261.681 827.595 262.864 823.406 265.213 819.739L263.529 818.661C260.958 822.674 259.681 827.245 259.681 832.34H261.681ZM265.217 819.734C267.575 815.995 270.823 813.087 274.988 811.004L274.094 809.216C269.619 811.453 266.087 814.605 263.525 818.666L265.217 819.734ZM274.983 811.007C279.21 808.922 283.976 807.87 289.301 807.87V805.87C283.706 805.87 278.632 806.978 274.099 809.213L274.983 811.007ZM289.301 807.87C294.688 807.87 299.451 808.923 303.614 811.004L304.508 809.216C300.031 806.977 294.954 805.87 289.301 805.87V807.87ZM303.619 811.007C307.842 813.089 311.085 815.995 313.379 819.724L315.083 818.676C312.577 814.605 309.04 811.451 304.503 809.213L303.619 811.007ZM313.389 819.739C315.738 823.406 316.921 827.595 316.921 832.34H318.921C318.921 827.245 317.644 822.674 315.073 818.661L313.389 819.739ZM316.921 832.34C316.921 837.084 315.738 841.307 313.385 845.036L315.077 846.104C317.644 842.033 318.921 837.436 318.921 832.34H316.921ZM313.383 845.04C311.088 848.713 307.841 851.623 303.609 853.768L304.513 855.552C309.041 853.257 312.574 850.107 315.079 846.1L313.383 845.04ZM303.614 853.766C299.451 855.847 294.688 856.9 289.301 856.9V858.9C294.954 858.9 300.031 857.793 304.508 855.554L303.614 853.766ZM289.301 843.06C291.913 843.06 294.109 842.108 295.807 840.206L294.315 838.874C293.013 840.332 291.369 841.06 289.301 841.06V843.06ZM295.818 840.193C297.52 838.219 298.311 835.559 298.311 832.34H296.311C296.311 835.241 295.602 837.381 294.304 838.887L295.818 840.193ZM298.311 832.34C298.311 829.123 297.521 826.484 295.807 824.564L294.315 825.896C295.601 827.336 296.311 829.437 296.311 832.34H298.311ZM295.807 824.564C294.109 822.662 291.913 821.71 289.301 821.71V823.71C291.369 823.71 293.013 824.438 294.315 825.896L295.807 824.564ZM289.301 821.71C286.689 821.71 284.493 822.662 282.795 824.564L284.287 825.896C285.589 824.438 287.233 823.71 289.301 823.71V821.71ZM282.795 824.564C281.081 826.484 280.291 829.123 280.291 832.34H282.291C282.291 829.437 283.001 827.336 284.287 825.896L282.795 824.564ZM280.291 832.34C280.291 835.559 281.082 838.219 282.784 840.193L284.298 838.887C283 837.381 282.291 835.241 282.291 832.34H280.291ZM282.795 840.206C284.493 842.108 286.689 843.06 289.301 843.06V841.06C287.233 841.06 285.589 840.332 284.287 838.874L282.795 840.206ZM403.667 812.36L402.948 813.055L402.954 813.061L403.667 812.36ZM409.067 857V858H410.067V857H409.067ZM388.727 857H387.727V858H388.727V857ZM378.557 826.13L377.789 825.49L377.781 825.499L377.773 825.509L378.557 826.13ZM376.847 857V858H377.847V857H376.847ZM356.507 857H355.507V858H356.507V857ZM346.337 826.13L345.569 825.49L345.561 825.499L345.553 825.509L346.337 826.13ZM344.627 857V858H345.627V857H344.627ZM324.287 857H323.287V858H324.287V857ZM324.287 807.77V806.77H323.287V807.77H324.287ZM343.637 807.77H344.637V806.77H343.637V807.77ZM343.637 812.36H342.637V814.774L344.344 813.067L343.637 812.36ZM366.497 808.76L366.066 809.662L366.075 809.667L366.083 809.67L366.497 808.76ZM372.977 814.34L372.145 814.895L372.892 816.015L373.748 814.976L372.977 814.34ZM380.177 808.85L380.585 809.763L380.593 809.759L380.601 809.756L380.177 808.85ZM389.447 807.87C395.165 807.87 399.628 809.623 402.948 813.055L404.386 811.665C400.626 807.777 395.609 805.87 389.447 805.87V807.87ZM402.954 813.061C406.303 816.466 408.067 821.687 408.067 828.92H410.067C410.067 821.393 408.231 815.574 404.38 811.659L402.954 813.061ZM408.067 828.92V857H410.067V828.92H408.067ZM409.067 856H388.727V858H409.067V856ZM389.727 857V832.43H387.727V857H389.727ZM389.727 832.43C389.727 829.534 389.263 827.189 388.193 825.541C387.075 823.818 385.37 822.97 383.237 822.97V824.97C384.764 824.97 385.804 825.532 386.516 826.629C387.276 827.801 387.727 829.686 387.727 832.43H389.727ZM383.237 822.97C381.029 822.97 379.184 823.816 377.789 825.49L379.325 826.77C380.33 825.564 381.606 824.97 383.237 824.97V822.97ZM377.773 825.509C376.425 827.212 375.847 829.768 375.847 832.97H377.847C377.847 829.932 378.409 827.928 379.341 826.751L377.773 825.509ZM375.847 832.97V857H377.847V832.97H375.847ZM376.847 856H356.507V858H376.847V856ZM357.507 857V832.43H355.507V857H357.507ZM357.507 832.43C357.507 829.534 357.043 827.189 355.973 825.541C354.855 823.818 353.15 822.97 351.017 822.97V824.97C352.544 824.97 353.584 825.532 354.296 826.629C355.056 827.801 355.507 829.686 355.507 832.43H357.507ZM351.017 822.97C348.809 822.97 346.964 823.816 345.569 825.49L347.105 826.77C348.11 825.564 349.386 824.97 351.017 824.97V822.97ZM345.553 825.509C344.205 827.212 343.627 829.768 343.627 832.97H345.627C345.627 829.932 346.189 827.928 347.121 826.751L345.553 825.509ZM343.627 832.97V857H345.627V832.97H343.627ZM344.627 856H324.287V858H344.627V856ZM325.287 857V807.77H323.287V857H325.287ZM324.287 808.77H343.637V806.77H324.287V808.77ZM342.637 807.77V812.36H344.637V807.77H342.637ZM344.344 813.067C347.799 809.612 352.186 807.87 357.587 807.87V805.87C351.708 805.87 346.795 807.788 342.93 811.653L344.344 813.067ZM357.587 807.87C360.757 807.87 363.577 808.474 366.066 809.662L366.928 807.858C364.137 806.526 361.017 805.87 357.587 805.87V807.87ZM366.083 809.67C368.546 810.79 370.564 812.523 372.145 814.895L373.809 813.785C372.03 811.117 369.729 809.13 366.911 807.85L366.083 809.67ZM373.748 814.976C375.631 812.694 377.907 810.96 380.585 809.763L379.769 807.937C376.807 809.26 374.283 811.186 372.206 813.704L373.748 814.976ZM380.601 809.756C383.278 808.503 386.222 807.87 389.447 807.87V805.87C385.952 805.87 382.716 806.557 379.753 807.944L380.601 809.756ZM497.271 812.36L496.552 813.055L496.558 813.061L497.271 812.36ZM502.671 857V858H503.671V857H502.671ZM482.331 857H481.331V858H482.331V857ZM472.161 826.13L471.392 825.49L471.384 825.499L471.377 825.509L472.161 826.13ZM470.451 857V858H471.451V857H470.451ZM450.111 857H449.111V858H450.111V857ZM439.941 826.13L439.172 825.49L439.164 825.499L439.157 825.509L439.941 826.13ZM438.231 857V858H439.231V857H438.231ZM417.891 857H416.891V858H417.891V857ZM417.891 807.77V806.77H416.891V807.77H417.891ZM437.241 807.77H438.241V806.77H437.241V807.77ZM437.241 812.36H436.241V814.774L437.948 813.067L437.241 812.36ZM460.101 808.76L459.67 809.662L459.678 809.667L459.687 809.67L460.101 808.76ZM466.581 814.34L465.749 814.895L466.495 816.015L467.352 814.976L466.581 814.34ZM473.781 808.85L474.189 809.763L474.197 809.759L474.205 809.756L473.781 808.85ZM483.051 807.87C488.769 807.87 493.232 809.623 496.552 813.055L497.989 811.665C494.229 807.777 489.213 805.87 483.051 805.87V807.87ZM496.558 813.061C499.906 816.466 501.671 821.687 501.671 828.92H503.671C503.671 821.393 501.835 815.574 497.984 811.659L496.558 813.061ZM501.671 828.92V857H503.671V828.92H501.671ZM502.671 856H482.331V858H502.671V856ZM483.331 857V832.43H481.331V857H483.331ZM483.331 832.43C483.331 829.534 482.867 827.189 481.797 825.541C480.679 823.818 478.974 822.97 476.841 822.97V824.97C478.368 824.97 479.407 825.532 480.119 826.629C480.88 827.801 481.331 829.686 481.331 832.43H483.331ZM476.841 822.97C474.632 822.97 472.788 823.816 471.392 825.49L472.929 826.77C473.934 825.564 475.209 824.97 476.841 824.97V822.97ZM471.377 825.509C470.028 827.212 469.451 829.768 469.451 832.97H471.451C471.451 829.932 472.013 827.928 472.945 826.751L471.377 825.509ZM469.451 832.97V857H471.451V832.97H469.451ZM470.451 856H450.111V858H470.451V856ZM451.111 857V832.43H449.111V857H451.111ZM451.111 832.43C451.111 829.534 450.647 827.189 449.577 825.541C448.459 823.818 446.754 822.97 444.621 822.97V824.97C446.148 824.97 447.187 825.532 447.899 826.629C448.66 827.801 449.111 829.686 449.111 832.43H451.111ZM444.621 822.97C442.412 822.97 440.568 823.816 439.172 825.49L440.709 826.77C441.714 825.564 442.989 824.97 444.621 824.97V822.97ZM439.157 825.509C437.808 827.212 437.231 829.768 437.231 832.97H439.231C439.231 829.932 439.793 827.928 440.725 826.751L439.157 825.509ZM437.231 832.97V857H439.231V832.97H437.231ZM438.231 856H417.891V858H438.231V856ZM418.891 857V807.77H416.891V857H418.891ZM417.891 808.77H437.241V806.77H417.891V808.77ZM436.241 807.77V812.36H438.241V807.77H436.241ZM437.948 813.067C441.402 809.612 445.79 807.87 451.191 807.87V805.87C445.312 805.87 440.399 807.788 436.534 811.653L437.948 813.067ZM451.191 807.87C454.361 807.87 457.181 808.474 459.67 809.662L460.531 807.858C457.741 806.526 454.62 805.87 451.191 805.87V807.87ZM459.687 809.67C462.149 810.79 464.167 812.523 465.749 814.895L467.413 813.785C465.634 811.117 463.332 809.13 460.514 807.85L459.687 809.67ZM467.352 814.976C469.235 812.694 471.51 810.96 474.189 809.763L473.373 807.937C470.411 809.26 467.887 811.186 465.809 813.704L467.352 814.976ZM474.205 809.756C476.882 808.503 479.825 807.87 483.051 807.87V805.87C479.556 805.87 476.32 806.557 473.357 807.944L474.205 809.756ZM564.483 837.11V838.11H565.422L565.481 837.172L564.483 837.11ZM530.283 837.11V836.11H528.824L529.35 837.471L530.283 837.11ZM533.883 841.43L533.364 842.285L533.375 842.292L533.387 842.298L533.883 841.43ZM545.583 842.06L545.244 841.119L545.232 841.124L545.583 842.06ZM550.443 839.27L551.153 838.566L550.536 837.944L549.839 838.473L550.443 839.27ZM561.063 849.98L561.803 850.653L562.442 849.95L561.773 849.276L561.063 849.98ZM523.893 854.66L523.451 855.557L523.46 855.562L523.893 854.66ZM513.453 845.48L514.299 844.946L513.453 845.48ZM513.363 819.2L512.517 818.666L512.515 818.67L513.363 819.2ZM523.353 810.11L522.901 809.218L522.896 809.221L523.353 810.11ZM551.253 809.84L550.816 810.74L550.822 810.742L551.253 809.84ZM561.063 818.57L560.215 819.1L560.221 819.109L561.063 818.57ZM532.623 822.44L533.26 823.211L533.26 823.211L532.623 822.44ZM529.923 827.3L528.942 827.104L528.703 828.3H529.923V827.3ZM545.763 827.3V828.3H546.99L546.743 827.098L545.763 827.3ZM543.063 822.53L542.407 823.285L542.416 823.293L542.426 823.301L543.063 822.53ZM563.753 832.34C563.753 832.599 563.667 834.141 563.485 837.048L565.481 837.172C565.659 834.319 565.753 832.681 565.753 832.34H563.753ZM564.483 836.11H530.283V838.11H564.483V836.11ZM529.35 837.471C530.149 839.533 531.493 841.148 533.364 842.285L534.402 840.575C532.914 839.672 531.857 838.407 531.216 836.749L529.35 837.471ZM533.387 842.298C535.257 843.367 537.54 843.87 540.183 843.87V841.87C537.786 841.87 535.869 841.413 534.379 840.562L533.387 842.298ZM540.183 843.87C542.418 843.87 544.346 843.592 545.934 842.996L545.232 841.124C543.94 841.608 542.268 841.87 540.183 841.87V843.87ZM545.922 843.001C547.545 842.417 549.254 841.427 551.047 840.067L549.839 838.473C548.152 839.753 546.621 840.623 545.244 841.119L545.922 843.001ZM549.733 839.974L560.353 850.684L561.773 849.276L551.153 838.566L549.733 839.974ZM560.323 849.307C555.771 854.315 548.911 856.9 539.553 856.9V858.9C549.275 858.9 556.756 856.205 561.803 850.653L560.323 849.307ZM539.553 856.9C533.735 856.9 528.667 855.842 524.326 853.758L523.46 855.562C528.119 857.798 533.491 858.9 539.553 858.9V856.9ZM524.335 853.763C519.986 851.617 516.652 848.677 514.299 844.946L512.607 846.014C515.174 850.083 518.8 853.263 523.451 855.557L524.335 853.763ZM514.299 844.946C511.945 841.215 510.763 837.022 510.763 832.34H508.763C508.763 837.378 510.041 841.945 512.607 846.014L514.299 844.946ZM510.763 832.34C510.763 827.591 511.919 823.397 514.211 819.73L512.515 818.67C510.007 822.683 508.763 827.249 508.763 832.34H510.763ZM514.209 819.734C516.571 815.988 519.765 813.08 523.81 810.999L522.896 809.221C518.541 811.46 515.075 814.612 512.517 818.666L514.209 819.734ZM523.805 811.002C527.911 808.92 532.523 807.87 537.663 807.87V805.87C532.243 805.87 527.315 806.98 522.901 809.218L523.805 811.002ZM537.663 807.87C542.507 807.87 546.885 808.832 550.816 810.74L551.69 808.94C547.461 806.888 542.779 805.87 537.663 805.87V807.87ZM550.822 810.742C554.793 812.641 557.917 815.423 560.215 819.1L561.911 818.04C559.409 814.037 555.993 810.999 551.685 808.938L550.822 810.742ZM560.221 819.109C562.561 822.763 563.753 827.158 563.753 832.34H565.753C565.753 826.842 564.485 822.057 561.905 818.031L560.221 819.109ZM537.843 819.73C535.553 819.73 533.575 820.356 531.986 821.669L533.26 823.211C534.431 822.244 535.933 821.73 537.843 821.73V819.73ZM531.986 821.669C530.396 822.983 529.398 824.825 528.942 827.104L530.904 827.496C531.288 825.575 532.09 824.177 533.26 823.211L531.986 821.669ZM529.923 828.3H545.763V826.3H529.923V828.3ZM546.743 827.098C546.284 824.873 545.284 823.067 543.7 821.759L542.426 823.301C543.603 824.273 544.402 825.647 544.784 827.502L546.743 827.098ZM543.719 821.775C542.13 820.394 540.146 819.73 537.843 819.73V821.73C539.74 821.73 541.236 822.266 542.407 823.285L543.719 821.775ZM619.952 812.36L619.245 813.067L619.251 813.073L619.952 812.36ZM625.532 857V858H626.532V857H625.532ZM605.192 857H604.192V858H605.192V857ZM593.582 826.4L592.834 825.736L592.833 825.737L593.582 826.4ZM591.512 857V858H592.512V857H591.512ZM571.172 857H570.172V858H571.172V857ZM571.172 807.77V806.77H570.172V807.77H571.172ZM590.522 807.77H591.522V806.77H590.522V807.77ZM590.522 812.63H589.522V815.044L591.229 813.337L590.522 812.63ZM597.182 808.31L597.538 809.244L597.538 809.244L597.182 808.31ZM605.372 807.87C611.216 807.87 615.804 809.627 619.245 813.067L620.659 811.653C616.78 807.773 611.648 805.87 605.372 805.87V807.87ZM619.251 813.073C622.712 816.478 624.532 821.696 624.532 828.92H626.532C626.532 821.384 624.632 815.562 620.653 811.647L619.251 813.073ZM624.532 828.92V857H626.532V828.92H624.532ZM625.532 856H605.192V858H625.532V856ZM606.192 857V832.43H604.192V857H606.192ZM606.192 832.43C606.192 829.521 605.679 827.161 604.499 825.505C603.274 823.786 601.436 822.97 599.162 822.97V824.97C600.908 824.97 602.085 825.564 602.87 826.665C603.7 827.829 604.192 829.699 604.192 832.43H606.192ZM599.162 822.97C596.613 822.97 594.475 823.89 592.834 825.736L594.329 827.064C595.569 825.67 597.151 824.97 599.162 824.97V822.97ZM592.833 825.737C591.215 827.566 590.512 830.352 590.512 833.87H592.512C592.512 830.548 593.189 828.354 594.331 827.063L592.833 825.737ZM590.512 833.87V857H592.512V833.87H590.512ZM591.512 856H571.172V858H591.512V856ZM572.172 857V807.77H570.172V857H572.172ZM571.172 808.77H590.522V806.77H571.172V808.77ZM589.522 807.77V812.63H591.522V807.77H589.522ZM591.229 813.337C593.05 811.516 595.151 810.154 597.538 809.244L596.826 807.376C594.173 808.386 591.834 809.904 589.815 811.923L591.229 813.337ZM597.538 809.244C599.934 808.332 602.543 807.87 605.372 807.87V805.87C602.321 805.87 599.469 806.368 596.826 807.376L597.538 809.244ZM689.694 790.22H690.694V789.22H689.694V790.22ZM689.694 857V858H690.694V857H689.694ZM670.344 857H669.344V858H670.344V857ZM670.344 852.95H671.344V850.324L669.597 852.285L670.344 852.95ZM644.874 854.84L644.37 855.704L644.379 855.709L644.387 855.713L644.874 854.84ZM636.234 845.84L635.354 846.314L635.359 846.324L636.234 845.84ZM636.234 818.93L635.359 818.445L635.357 818.45L636.234 818.93ZM644.874 810.02L645.367 810.89L645.372 810.887L644.874 810.02ZM669.354 811.1L668.655 811.815L670.354 813.479V811.1H669.354ZM669.354 790.22V789.22H668.354V790.22H669.354ZM667.464 839.54L668.21 840.206L668.216 840.2L668.222 840.193L667.464 839.54ZM655.944 825.23L655.198 824.564L655.198 824.564L655.944 825.23ZM655.944 839.54L655.187 840.193L655.192 840.2L655.198 840.206L655.944 839.54ZM688.694 790.22V857H690.694V790.22H688.694ZM689.694 856H670.344V858H689.694V856ZM671.344 857V852.95H669.344V857H671.344ZM669.597 852.285C666.91 855.301 662.729 856.9 656.844 856.9V858.9C663.079 858.9 667.898 857.199 671.091 853.615L669.597 852.285ZM656.844 856.9C652.689 856.9 648.867 855.921 645.361 853.967L644.387 855.713C648.201 857.839 652.359 858.9 656.844 858.9V856.9ZM645.378 853.976C641.944 851.973 639.188 849.109 637.109 845.355L635.359 846.324C637.6 850.371 640.604 853.507 644.37 855.704L645.378 853.976ZM637.115 845.366C635.104 841.632 634.084 837.3 634.084 832.34H632.084C632.084 837.58 633.164 842.248 635.354 846.314L637.115 845.366ZM634.084 832.34C634.084 827.38 635.104 823.08 637.112 819.41L635.357 818.45C633.164 822.46 632.084 827.1 632.084 832.34H634.084ZM637.109 819.414C639.187 815.663 641.94 812.832 645.367 810.89L644.381 809.15C640.608 811.288 637.601 814.397 635.359 818.445L637.109 819.414ZM645.372 810.887C648.877 808.876 652.694 807.87 656.844 807.87V805.87C652.354 805.87 648.192 806.964 644.376 809.153L645.372 810.887ZM656.844 807.87C662.138 807.87 666.02 809.235 668.655 811.815L670.054 810.385C666.929 807.325 662.471 805.87 656.844 805.87V807.87ZM670.354 811.1V790.22H668.354V811.1H670.354ZM669.354 791.22H689.694V789.22H669.354V791.22ZM661.704 843.06C664.316 843.06 666.512 842.108 668.21 840.206L666.718 838.874C665.416 840.332 663.772 841.06 661.704 841.06V843.06ZM668.222 840.193C669.924 838.219 670.714 835.559 670.714 832.34H668.714C668.714 835.241 668.005 837.381 666.707 838.887L668.222 840.193ZM670.714 832.34C670.714 829.123 669.925 826.484 668.21 824.564L666.718 825.896C668.004 827.336 668.714 829.437 668.714 832.34H670.714ZM668.21 824.564C666.512 822.662 664.316 821.71 661.704 821.71V823.71C663.772 823.71 665.416 824.438 666.718 825.896L668.21 824.564ZM661.704 821.71C659.092 821.71 656.896 822.662 655.198 824.564L656.69 825.896C657.992 824.438 659.636 823.71 661.704 823.71V821.71ZM655.198 824.564C653.484 826.484 652.694 829.123 652.694 832.34H654.694C654.694 829.437 655.405 827.336 656.69 825.896L655.198 824.564ZM652.694 832.34C652.694 835.559 653.485 838.219 655.187 840.193L656.702 838.887C655.404 837.381 654.694 835.241 654.694 832.34H652.694ZM655.198 840.206C656.896 842.108 659.092 843.06 661.704 843.06V841.06C659.636 841.06 657.992 840.332 656.69 838.874L655.198 840.206ZM750.811 837.11V838.11H751.751L751.809 837.172L750.811 837.11ZM716.611 837.11V836.11H715.152L715.679 837.471L716.611 837.11ZM720.211 841.43L719.692 842.285L719.704 842.292L719.715 842.298L720.211 841.43ZM731.911 842.06L731.572 841.119L731.56 841.124L731.911 842.06ZM736.771 839.27L737.481 838.566L736.865 837.944L736.167 838.473L736.771 839.27ZM747.391 849.98L748.131 850.653L748.77 849.95L748.101 849.276L747.391 849.98ZM710.221 854.66L709.779 855.557L709.788 855.562L710.221 854.66ZM699.781 845.48L700.627 844.946L699.781 845.48ZM699.691 819.2L698.845 818.666L698.843 818.67L699.691 819.2ZM709.681 810.11L709.229 809.218L709.224 809.221L709.681 810.11ZM737.581 809.84L737.145 810.74L737.15 810.742L737.581 809.84ZM747.391 818.57L746.543 819.1L746.549 819.109L747.391 818.57ZM718.951 822.44L719.588 823.211L719.588 823.211L718.951 822.44ZM716.251 827.3L715.271 827.104L715.031 828.3H716.251V827.3ZM732.091 827.3V828.3H733.318L733.071 827.098L732.091 827.3ZM729.391 822.53L728.735 823.285L728.745 823.293L728.754 823.301L729.391 822.53ZM750.081 832.34C750.081 832.599 749.995 834.141 749.813 837.048L751.809 837.172C751.988 834.319 752.081 832.681 752.081 832.34H750.081ZM750.811 836.11H716.611V838.11H750.811V836.11ZM715.679 837.471C716.477 839.533 717.821 841.148 719.692 842.285L720.73 840.575C719.242 839.672 718.185 838.407 717.544 836.749L715.679 837.471ZM719.715 842.298C721.585 843.367 723.868 843.87 726.511 843.87V841.87C724.114 841.87 722.197 841.413 720.707 840.562L719.715 842.298ZM726.511 843.87C728.746 843.87 730.675 843.592 732.262 842.996L731.56 841.124C730.268 841.608 728.596 841.87 726.511 841.87V843.87ZM732.25 843.001C733.873 842.417 735.582 841.427 737.376 840.067L736.167 838.473C734.48 839.753 732.949 840.623 731.572 841.119L732.25 843.001ZM736.061 839.974L746.681 850.684L748.101 849.276L737.481 838.566L736.061 839.974ZM746.651 849.307C742.099 854.315 735.239 856.9 725.881 856.9V858.9C735.603 858.9 743.084 856.205 748.131 850.653L746.651 849.307ZM725.881 856.9C720.063 856.9 714.996 855.842 710.654 853.758L709.788 855.562C714.447 857.798 719.82 858.9 725.881 858.9V856.9ZM710.664 853.763C706.314 851.617 702.98 848.677 700.627 844.946L698.935 846.014C701.502 850.083 705.128 853.263 709.779 855.557L710.664 853.763ZM700.627 844.946C698.273 841.215 697.091 837.022 697.091 832.34H695.091C695.091 837.378 696.369 841.945 698.935 846.014L700.627 844.946ZM697.091 832.34C697.091 827.591 698.247 823.397 700.539 819.73L698.843 818.67C696.335 822.683 695.091 827.249 695.091 832.34H697.091ZM700.537 819.734C702.899 815.988 706.093 813.08 710.139 810.999L709.224 809.221C704.869 811.46 701.403 814.612 698.845 818.666L700.537 819.734ZM710.133 811.002C714.239 808.92 718.851 807.87 723.991 807.87V805.87C718.571 805.87 713.643 806.98 709.229 809.218L710.133 811.002ZM723.991 807.87C728.835 807.87 733.214 808.832 737.145 810.74L738.018 808.94C733.789 806.888 729.107 805.87 723.991 805.87V807.87ZM737.15 810.742C741.121 812.641 744.245 815.423 746.543 819.1L748.239 818.04C745.737 814.037 742.322 810.999 738.013 808.938L737.15 810.742ZM746.549 819.109C748.889 822.763 750.081 827.158 750.081 832.34H752.081C752.081 826.842 750.813 822.057 748.233 818.031L746.549 819.109ZM724.171 819.73C721.881 819.73 719.904 820.356 718.314 821.669L719.588 823.211C720.759 822.244 722.261 821.73 724.171 821.73V819.73ZM718.314 821.669C716.724 822.983 715.726 824.825 715.271 827.104L717.232 827.496C717.616 825.575 718.418 824.177 719.588 823.211L718.314 821.669ZM716.251 828.3H732.091V826.3H716.251V828.3ZM733.071 827.098C732.613 824.873 731.612 823.067 730.028 821.759L728.754 823.301C729.931 824.273 730.73 825.647 731.112 827.502L733.071 827.098ZM730.047 821.775C728.459 820.394 726.474 819.73 724.171 819.73V821.73C726.068 821.73 727.564 822.266 728.735 823.285L730.047 821.775ZM811.95 790.22H812.95V789.22H811.95V790.22ZM811.95 857V858H812.95V857H811.95ZM792.6 857H791.6V858H792.6V857ZM792.6 852.95H793.6V850.324L791.853 852.285L792.6 852.95ZM767.13 854.84L766.626 855.704L766.635 855.709L766.643 855.713L767.13 854.84ZM758.49 845.84L757.609 846.314L757.615 846.324L758.49 845.84ZM758.49 818.93L757.615 818.445L757.613 818.45L758.49 818.93ZM767.13 810.02L767.623 810.89L767.628 810.887L767.13 810.02ZM791.61 811.1L790.91 811.815L792.61 813.479V811.1H791.61ZM791.61 790.22V789.22H790.61V790.22H791.61ZM789.72 839.54L790.466 840.206L790.472 840.2L790.477 840.193L789.72 839.54ZM778.2 825.23L777.454 824.564L777.454 824.564L778.2 825.23ZM778.2 839.54L777.443 840.193L777.448 840.2L777.454 840.206L778.2 839.54ZM810.95 790.22V857H812.95V790.22H810.95ZM811.95 856H792.6V858H811.95V856ZM793.6 857V852.95H791.6V857H793.6ZM791.853 852.285C789.166 855.301 784.985 856.9 779.1 856.9V858.9C785.335 858.9 790.154 857.199 793.347 853.615L791.853 852.285ZM779.1 856.9C774.945 856.9 771.123 855.921 767.617 853.967L766.643 855.713C770.457 857.839 774.615 858.9 779.1 858.9V856.9ZM767.634 853.976C764.2 851.973 761.444 849.109 759.365 845.355L757.615 846.324C759.856 850.371 762.86 853.507 766.626 855.704L767.634 853.976ZM759.37 845.366C757.36 841.632 756.34 837.3 756.34 832.34H754.34C754.34 837.58 755.42 842.248 757.61 846.314L759.37 845.366ZM756.34 832.34C756.34 827.38 757.36 823.08 759.367 819.41L757.613 818.45C755.42 822.46 754.34 827.1 754.34 832.34H756.34ZM759.365 819.414C761.443 815.663 764.196 812.832 767.623 810.89L766.637 809.15C762.864 811.288 759.857 814.397 757.615 818.445L759.365 819.414ZM767.628 810.887C771.132 808.876 774.95 807.87 779.1 807.87V805.87C774.61 805.87 770.448 806.964 766.632 809.153L767.628 810.887ZM779.1 807.87C784.393 807.87 788.276 809.235 790.91 811.815L792.31 810.385C789.184 807.325 784.727 805.87 779.1 805.87V807.87ZM792.61 811.1V790.22H790.61V811.1H792.61ZM791.61 791.22H811.95V789.22H791.61V791.22ZM783.96 843.06C786.572 843.06 788.768 842.108 790.466 840.206L788.974 838.874C787.672 840.332 786.028 841.06 783.96 841.06V843.06ZM790.477 840.193C792.179 838.219 792.97 835.559 792.97 832.34H790.97C790.97 835.241 790.261 837.381 788.963 838.887L790.477 840.193ZM792.97 832.34C792.97 829.123 792.18 826.484 790.466 824.564L788.974 825.896C790.26 827.336 790.97 829.437 790.97 832.34H792.97ZM790.466 824.564C788.768 822.662 786.572 821.71 783.96 821.71V823.71C786.028 823.71 787.672 824.438 788.974 825.896L790.466 824.564ZM783.96 821.71C781.348 821.71 779.152 822.662 777.454 824.564L778.946 825.896C780.248 824.438 781.892 823.71 783.96 823.71V821.71ZM777.454 824.564C775.74 826.484 774.95 829.123 774.95 832.34H776.95C776.95 829.437 777.66 827.336 778.946 825.896L777.454 824.564ZM774.95 832.34C774.95 835.559 775.741 838.219 777.443 840.193L778.957 838.887C777.659 837.381 776.95 835.241 776.95 832.34H774.95ZM777.454 840.206C779.152 842.108 781.348 843.06 783.96 843.06V841.06C781.892 841.06 780.248 840.332 778.946 838.874L777.454 840.206ZM894.109 796.88L893.703 797.794L893.703 797.794L894.109 796.88ZM904.099 805.16L903.261 805.705L903.261 805.705L904.099 805.16ZM904.099 830.36L903.261 829.815L903.261 829.815L904.099 830.36ZM894.109 838.64L893.703 837.726L893.703 837.726L894.109 838.64ZM869.809 841.52V840.52H868.809V841.52H869.809ZM869.809 857V858H870.809V857H869.809ZM848.569 857H847.569V858H848.569V857ZM848.569 794V793H847.569V794H848.569ZM884.029 823.25L884.688 824.003L884.697 823.995L884.705 823.987L884.029 823.25ZM884.029 812.36L883.354 813.097L883.362 813.105L883.371 813.113L884.029 812.36ZM869.809 810.38V809.38H868.809V810.38H869.809ZM869.809 825.14H868.809V826.14H869.809V825.14ZM878.899 795C884.611 795 889.537 795.942 893.703 797.794L894.516 795.966C890.042 793.978 884.828 793 878.899 793V795ZM893.703 797.794C897.865 799.643 901.037 802.283 903.261 805.705L904.938 804.615C902.482 800.837 898.994 797.956 894.516 795.966L893.703 797.794ZM903.261 805.705C905.483 809.124 906.609 813.13 906.609 817.76H908.609C908.609 812.79 907.395 808.396 904.938 804.615L903.261 805.705ZM906.609 817.76C906.609 822.39 905.483 826.396 903.261 829.815L904.938 830.905C907.395 827.124 908.609 822.73 908.609 817.76H906.609ZM903.261 829.815C901.037 833.237 897.865 835.876 893.703 837.726L894.516 839.554C898.994 837.564 902.482 834.683 904.938 830.905L903.261 829.815ZM893.703 837.726C889.537 839.578 884.611 840.52 878.899 840.52V842.52C884.828 842.52 890.042 841.542 894.516 839.554L893.703 837.726ZM878.899 840.52H869.809V842.52H878.899V840.52ZM868.809 841.52V857H870.809V841.52H868.809ZM869.809 856H848.569V858H869.809V856ZM849.569 857V794H847.569V857H849.569ZM848.569 795H878.899V793H848.569V795ZM877.549 826.14C880.553 826.14 882.993 825.486 884.688 824.003L883.371 822.497C882.186 823.534 880.306 824.14 877.549 824.14V826.14ZM884.705 823.987C886.392 822.441 887.189 820.32 887.189 817.76H885.189C885.189 819.88 884.547 821.419 883.354 822.513L884.705 823.987ZM887.189 817.76C887.189 815.202 886.393 813.099 884.688 811.607L883.371 813.113C884.546 814.141 885.189 815.638 885.189 817.76H887.189ZM884.705 811.623C883.01 810.069 880.563 809.38 877.549 809.38V811.38C880.296 811.38 882.169 812.011 883.354 813.097L884.705 811.623ZM877.549 809.38H869.809V811.38H877.549V809.38ZM868.809 810.38V825.14H870.809V810.38H868.809ZM869.809 826.14H877.549V824.14H869.809V826.14ZM914.824 790.22V789.22H913.824V790.22H914.824ZM935.164 790.22H936.164V789.22H935.164V790.22ZM935.164 857V858H936.164V857H935.164ZM914.824 857H913.824V858H914.824V857ZM914.824 791.22H935.164V789.22H914.824V791.22ZM934.164 790.22V857H936.164V790.22H934.164ZM935.164 856H914.824V858H935.164V856ZM915.824 857V790.22H913.824V857H915.824ZM986.03 812.72L985.38 813.48L985.386 813.485L986.03 812.72ZM992.87 857V858H993.87V857H992.87ZM973.97 857H972.97V858H973.97V857ZM973.97 850.52H974.97L973.067 850.09L973.97 850.52ZM950.03 855.92L949.575 856.81L949.586 856.816L949.598 856.822L950.03 855.92ZM943.82 850.43L942.958 850.938L942.966 850.951L942.974 850.964L943.82 850.43ZM947.33 831.53L946.769 830.702L946.769 830.702L947.33 831.53ZM972.44 827.75V828.75H973.626L973.425 827.581L972.44 827.75ZM956.42 823.07L956.698 824.031L956.709 824.027L956.721 824.024L956.42 823.07ZM950.57 825.86L949.669 826.295L950.195 827.382L951.165 826.664L950.57 825.86ZM944.09 812.45L943.565 811.599L942.797 812.073L943.189 812.885L944.09 812.45ZM954.26 808.4L954.495 809.372L954.506 809.369L954.26 808.4ZM970.01 844.49L969.445 843.665L969.445 843.665L970.01 844.49ZM972.53 840.98L973.475 841.307L973.53 841.148V840.98H972.53ZM972.53 837.56H973.53V836.56H972.53V837.56ZM962.54 844.58L961.859 845.313L961.886 845.338L961.915 845.361L962.54 844.58ZM966.23 807.87C974.734 807.87 981.066 809.791 985.38 813.48L986.68 811.96C981.873 807.849 975.005 805.87 966.23 805.87V807.87ZM985.386 813.485C989.648 817.074 991.87 822.686 991.87 830.54H993.87C993.87 822.314 991.531 816.046 986.674 811.955L985.386 813.485ZM991.87 830.54V857H993.87V830.54H991.87ZM992.87 856H973.97V858H992.87V856ZM974.97 857V850.52H972.97V857H974.97ZM973.067 850.09C970.941 854.559 966.722 856.9 960.02 856.9V858.9C967.237 858.9 972.318 856.321 974.873 850.95L973.067 850.09ZM960.02 856.9C956.229 856.9 953.055 856.258 950.461 855.018L949.598 856.822C952.525 858.222 956.01 858.9 960.02 858.9V856.9ZM950.485 855.03C947.924 853.721 945.998 852.006 944.665 849.896L942.974 850.964C944.521 853.414 946.735 855.359 949.575 856.81L950.485 855.03ZM944.681 849.922C943.397 847.745 942.75 845.312 942.75 842.6H940.75C940.75 845.648 941.482 848.435 942.958 850.938L944.681 849.922ZM942.75 842.6C942.75 838.04 944.471 834.675 947.891 832.358L946.769 830.702C942.749 833.425 940.75 837.44 940.75 842.6H942.75ZM947.891 832.358C951.367 830.003 956.767 828.75 964.25 828.75V826.75C956.612 826.75 950.733 828.017 946.769 830.702L947.891 832.358ZM964.25 828.75H972.44V826.75H964.25V828.75ZM973.425 827.581C973.051 825.402 971.962 823.703 970.155 822.581C968.39 821.484 966.027 820.99 963.17 820.99V822.99C965.833 822.99 967.775 823.456 969.099 824.279C970.383 825.077 971.169 826.258 971.454 827.919L973.425 827.581ZM963.17 820.99C960.84 820.99 958.488 821.368 956.119 822.116L956.721 824.024C958.911 823.332 961.059 822.99 963.17 822.99V820.99ZM956.142 822.109C953.767 822.797 951.705 823.774 949.974 825.056L951.165 826.664C952.674 825.546 954.512 824.663 956.698 824.031L956.142 822.109ZM951.47 825.425L944.99 812.015L943.189 812.885L949.669 826.295L951.47 825.425ZM944.615 813.301C947.327 811.627 950.615 810.313 954.495 809.372L954.024 807.428C949.984 808.407 946.492 809.793 943.565 811.599L944.615 813.301ZM954.506 809.369C958.449 808.369 962.356 807.87 966.23 807.87V805.87C962.183 805.87 958.11 806.391 954.014 807.431L954.506 809.369ZM966.14 846.66C967.772 846.66 969.261 846.214 970.574 845.315L969.445 843.665C968.479 844.326 967.387 844.66 966.14 844.66V846.66ZM970.574 845.315C971.924 844.392 972.879 843.029 973.475 841.307L971.585 840.653C971.101 842.051 970.376 843.028 969.445 843.665L970.574 845.315ZM973.53 840.98V837.56H971.53V840.98H973.53ZM972.53 836.56H967.49V838.56H972.53V836.56ZM967.49 836.56C965.34 836.56 963.553 836.913 962.277 837.763C960.93 838.661 960.28 840.029 960.28 841.7H962.28C962.28 840.611 962.664 839.909 963.387 839.427C964.181 838.897 965.499 838.56 967.49 838.56V836.56ZM960.28 841.7C960.28 843.12 960.817 844.345 961.859 845.313L963.22 843.847C962.583 843.255 962.28 842.56 962.28 841.7H960.28ZM961.915 845.361C963.04 846.261 964.482 846.66 966.14 846.66V844.66C964.798 844.66 963.84 844.339 963.164 843.799L961.915 845.361ZM1050.44 812.36L1049.73 813.067L1049.74 813.073L1050.44 812.36ZM1056.02 857V858H1057.02V857H1056.02ZM1035.68 857H1034.68V858H1035.68V857ZM1024.07 826.4L1023.32 825.736L1023.32 825.737L1024.07 826.4ZM1022 857V858H1023V857H1022ZM1001.66 857H1000.66V858H1001.66V857ZM1001.66 807.77V806.77H1000.66V807.77H1001.66ZM1021.01 807.77H1022.01V806.77H1021.01V807.77ZM1021.01 812.63H1020.01V815.044L1021.72 813.337L1021.01 812.63ZM1027.67 808.31L1028.03 809.244L1028.03 809.244L1027.67 808.31ZM1035.86 807.87C1041.7 807.87 1046.29 809.627 1049.73 813.067L1051.15 811.653C1047.27 807.773 1042.14 805.87 1035.86 805.87V807.87ZM1049.74 813.073C1053.2 816.478 1055.02 821.696 1055.02 828.92H1057.02C1057.02 821.384 1055.12 815.562 1051.14 811.647L1049.74 813.073ZM1055.02 828.92V857H1057.02V828.92H1055.02ZM1056.02 856H1035.68V858H1056.02V856ZM1036.68 857V832.43H1034.68V857H1036.68ZM1036.68 832.43C1036.68 829.521 1036.17 827.161 1034.99 825.505C1033.76 823.786 1031.92 822.97 1029.65 822.97V824.97C1031.4 824.97 1032.57 825.564 1033.36 826.665C1034.19 827.829 1034.68 829.699 1034.68 832.43H1036.68ZM1029.65 822.97C1027.1 822.97 1024.96 823.89 1023.32 825.736L1024.82 827.064C1026.06 825.67 1027.64 824.97 1029.65 824.97V822.97ZM1023.32 825.737C1021.7 827.566 1021 830.352 1021 833.87H1023C1023 830.548 1023.68 828.354 1024.82 827.063L1023.32 825.737ZM1021 833.87V857H1023V833.87H1021ZM1022 856H1001.66V858H1022V856ZM1002.66 857V807.77H1000.66V857H1002.66ZM1001.66 808.77H1021.01V806.77H1001.66V808.77ZM1020.01 807.77V812.63H1022.01V807.77H1020.01ZM1021.72 813.337C1023.54 811.516 1025.64 810.154 1028.03 809.244L1027.31 807.376C1024.66 808.386 1022.32 809.904 1020.3 811.923L1021.72 813.337ZM1028.03 809.244C1030.42 808.332 1033.03 807.87 1035.86 807.87V805.87C1032.81 805.87 1029.96 806.368 1027.31 807.376L1028.03 809.244ZM1071.69 856.55L1071.48 857.527L1071.69 856.55ZM1061.79 853.04L1060.87 852.656L1060.53 853.47L1061.3 853.908L1061.79 853.04ZM1067.37 839.63L1067.89 838.774L1066.9 838.173L1066.45 839.246L1067.37 839.63ZM1075.47 842.87L1075.72 841.9L1075.72 841.9L1075.47 842.87ZM1089.42 843.5L1089.79 844.428L1089.81 844.423L1089.82 844.416L1089.42 843.5ZM1089.06 840.08L1088.81 841.047L1088.82 841.05L1089.06 840.08ZM1083.39 839.18L1083.27 840.173L1083.28 840.174L1083.39 839.18ZM1073.13 837.38L1072.87 838.344L1072.88 838.346L1072.89 838.349L1073.13 837.38ZM1065.66 832.97L1064.95 833.667L1064.96 833.677L1065.66 832.97ZM1065.39 815.15L1064.6 814.544L1064.6 814.544L1065.39 815.15ZM1073.94 809.12L1073.58 808.189L1073.57 808.191L1073.94 809.12ZM1098.6 807.95L1098.4 808.93L1098.41 808.932L1098.42 808.934L1098.6 807.95ZM1107.78 810.92L1108.71 811.304L1109.06 810.459L1108.25 810.034L1107.78 810.92ZM1102.2 824.33L1101.72 825.204L1102.7 825.748L1103.13 824.714L1102.2 824.33ZM1083.12 824.78L1082.84 825.738L1082.86 825.745L1082.88 825.75L1083.12 824.78ZM1088.79 825.68L1088.91 824.687L1088.91 824.687L1088.79 825.68ZM1098.96 827.57L1098.69 828.532L1098.7 828.534L1098.96 827.57ZM1106.34 831.98L1105.63 832.677L1105.64 832.687L1106.34 831.98ZM1106.7 849.62L1107.5 850.226L1107.5 850.226L1106.7 849.62ZM1098.06 855.65L1098.43 856.581L1098.43 856.581L1098.06 855.65ZM1084.11 856.9C1079.99 856.9 1075.92 856.458 1071.91 855.573L1071.48 857.527C1075.63 858.442 1079.84 858.9 1084.11 858.9V856.9ZM1071.91 855.573C1067.89 854.687 1064.69 853.545 1062.29 852.172L1061.3 853.908C1063.93 855.415 1067.34 856.613 1071.48 857.527L1071.91 855.573ZM1062.72 853.424L1068.3 840.014L1066.45 839.246L1060.87 852.656L1062.72 853.424ZM1066.86 840.485C1069.24 841.927 1072.03 843.041 1075.23 843.84L1075.72 841.9C1072.67 841.139 1070.07 840.093 1067.89 838.774L1066.86 840.485ZM1075.23 843.84C1078.42 844.638 1081.53 845.04 1084.56 845.04V843.04C1081.71 843.04 1078.76 842.662 1075.72 841.9L1075.23 843.84ZM1084.56 845.04C1086.9 845.04 1088.7 844.868 1089.79 844.428L1089.05 842.572C1088.35 842.852 1086.91 843.04 1084.56 843.04V845.04ZM1089.82 844.416C1091 843.902 1091.86 843.018 1091.86 841.7H1089.86C1089.86 841.942 1089.77 842.258 1089.02 842.584L1089.82 844.416ZM1091.86 841.7C1091.86 841.015 1091.58 840.419 1091.08 839.967C1090.61 839.544 1089.99 839.28 1089.31 839.11L1088.82 841.05C1089.34 841.18 1089.61 841.336 1089.74 841.453C1089.84 841.541 1089.86 841.605 1089.86 841.7H1091.86ZM1089.32 839.113C1088.1 838.793 1086.15 838.487 1083.51 838.186L1083.28 840.174C1085.92 840.473 1087.74 840.767 1088.81 841.047L1089.32 839.113ZM1083.51 838.187C1079.52 837.71 1076.15 837.117 1073.38 836.411L1072.89 838.349C1075.76 839.083 1079.23 839.69 1083.27 840.173L1083.51 838.187ZM1073.4 836.416C1070.75 835.684 1068.41 834.306 1066.37 832.263L1064.96 833.677C1067.23 835.954 1069.87 837.516 1072.87 838.344L1073.4 836.416ZM1066.38 832.273C1064.52 830.355 1063.51 827.549 1063.51 823.7H1061.51C1061.51 827.891 1062.61 831.265 1064.95 833.667L1066.38 832.273ZM1063.51 823.7C1063.51 820.738 1064.4 818.101 1066.19 815.756L1064.6 814.544C1062.54 817.239 1061.51 820.302 1061.51 823.7H1063.51ZM1066.19 815.756C1067.97 813.416 1070.65 811.501 1074.31 810.049L1073.57 808.191C1069.67 809.739 1066.66 811.844 1064.6 814.544L1066.19 815.756ZM1074.31 810.051C1078 808.608 1082.46 807.87 1087.71 807.87V805.87C1082.28 805.87 1077.56 806.632 1073.58 808.189L1074.31 810.051ZM1087.71 807.87C1091.37 807.87 1094.93 808.224 1098.4 808.93L1098.8 806.97C1095.2 806.236 1091.5 805.87 1087.71 805.87V807.87ZM1098.42 808.934C1101.95 809.58 1104.91 810.544 1107.32 811.806L1108.25 810.034C1105.62 808.656 1102.46 807.64 1098.78 806.966L1098.42 808.934ZM1106.86 810.536L1101.28 823.946L1103.13 824.714L1108.71 811.304L1106.86 810.536ZM1102.69 823.456C1098.21 820.97 1093.31 819.73 1087.98 819.73V821.73C1092.98 821.73 1097.55 822.89 1101.72 825.204L1102.69 823.456ZM1087.98 819.73C1085.73 819.73 1083.93 819.924 1082.66 820.372C1082.02 820.597 1081.44 820.91 1081.01 821.358C1080.57 821.829 1080.32 822.414 1080.32 823.07H1082.32C1082.32 822.946 1082.36 822.848 1082.47 822.735C1082.59 822.598 1082.85 822.423 1083.32 822.258C1084.27 821.926 1085.79 821.73 1087.98 821.73V819.73ZM1080.32 823.07C1080.32 823.752 1080.6 824.347 1081.08 824.807C1081.54 825.242 1082.16 825.534 1082.84 825.738L1083.41 823.822C1082.89 823.666 1082.61 823.493 1082.46 823.357C1082.35 823.248 1082.32 823.168 1082.32 823.07H1080.32ZM1082.88 825.75C1084.15 826.067 1086.09 826.372 1088.68 826.673L1088.91 824.687C1086.34 824.387 1084.5 824.093 1083.37 823.81L1082.88 825.75ZM1088.67 826.673C1092.66 827.149 1096 827.771 1098.69 828.532L1099.24 826.608C1096.41 825.809 1092.96 825.171 1088.91 824.687L1088.67 826.673ZM1098.7 828.534C1101.34 829.265 1103.65 830.64 1105.63 832.677L1107.06 831.283C1104.84 829 1102.23 827.435 1099.23 826.606L1098.7 828.534ZM1105.64 832.687C1107.56 834.606 1108.58 837.408 1108.58 841.25H1110.58C1110.58 837.052 1109.45 833.674 1107.05 831.273L1105.64 832.687ZM1108.58 841.25C1108.58 844.083 1107.7 846.662 1105.91 849.014L1107.5 850.226C1109.55 847.538 1110.58 844.537 1110.58 841.25H1108.58ZM1105.91 849.014C1104.13 851.35 1101.42 853.266 1097.7 854.719L1098.43 856.581C1102.39 855.034 1105.44 852.93 1107.5 850.226L1105.91 849.014ZM1097.7 854.719C1094.01 856.161 1089.49 856.9 1084.11 856.9V858.9C1089.66 858.9 1094.44 858.139 1098.43 856.581L1097.7 854.719Z" fill="white"/>
<rect x="61" y="945" width="1799" height="440" rx="50" fill="#C4C4C4"/>
<line x1="475" y1="943" x2="475" y2="1385.02" stroke="black" stroke-width="4"/>
<line x1="930" y1="945" x2="930" y2="1387.02" stroke="black" stroke-width="4"/>
<line x1="1398" y1="945" x2="1398" y2="1387.02" stroke="black" stroke-width="4"/>
<path d="M152.85 1157.14L125.58 1166.5L152.85 1175.86V1191.16L106.95 1174.51V1158.49L152.85 1141.84V1157.14Z" fill="black"/>
<path d="M1796.85 1158.49V1174.51L1750.95 1191.16V1175.86L1778.22 1166.5L1750.95 1157.14V1141.84L1796.85 1158.49Z" fill="black"/>
<path d="M1730.09 868L1717.69 896H1714.77L1702.37 868H1705.57L1716.29 892.32L1727.09 868H1730.09ZM1733.44 874.96H1736.28V896H1733.44V874.96ZM1734.88 870.36C1734.29 870.36 1733.8 870.16 1733.4 869.76C1733 869.36 1732.8 868.88 1732.8 868.32C1732.8 867.787 1733 867.32 1733.4 866.92C1733.8 866.52 1734.29 866.32 1734.88 866.32C1735.46 866.32 1735.96 866.52 1736.36 866.92C1736.76 867.293 1736.96 867.747 1736.96 868.28C1736.96 868.867 1736.76 869.36 1736.36 869.76C1735.96 870.16 1735.46 870.36 1734.88 870.36ZM1762.5 886.36H1744.9C1745.06 888.547 1745.9 890.32 1747.42 891.68C1748.94 893.013 1750.86 893.68 1753.18 893.68C1754.49 893.68 1755.69 893.453 1756.78 893C1757.87 892.52 1758.82 891.827 1759.62 890.92L1761.22 892.76C1760.29 893.88 1759.11 894.733 1757.7 895.32C1756.31 895.907 1754.78 896.2 1753.1 896.2C1750.94 896.2 1749.02 895.747 1747.34 894.84C1745.69 893.907 1744.39 892.627 1743.46 891C1742.53 889.373 1742.06 887.533 1742.06 885.48C1742.06 883.427 1742.5 881.587 1743.38 879.96C1744.29 878.333 1745.51 877.067 1747.06 876.16C1748.63 875.253 1750.39 874.8 1752.34 874.8C1754.29 874.8 1756.03 875.253 1757.58 876.16C1759.13 877.067 1760.34 878.333 1761.22 879.96C1762.1 881.56 1762.54 883.4 1762.54 885.48L1762.5 886.36ZM1752.34 877.24C1750.31 877.24 1748.61 877.893 1747.22 879.2C1745.86 880.48 1745.09 882.16 1744.9 884.24H1759.82C1759.63 882.16 1758.85 880.48 1757.46 879.2C1756.1 877.893 1754.39 877.24 1752.34 877.24ZM1798.81 874.96L1790.85 896H1788.17L1781.53 878.76L1774.89 896H1772.21L1764.29 874.96H1767.01L1773.61 892.84L1780.37 874.96H1782.81L1789.53 892.84L1796.21 874.96H1798.81ZM1831.71 888.52H1816.11L1812.75 896H1809.67L1822.47 868H1825.39L1838.19 896H1835.07L1831.71 888.52ZM1830.63 886.12L1823.91 871.08L1817.19 886.12H1830.63ZM1842.23 866.32H1845.07V896H1842.23V866.32ZM1852.97 866.32H1855.81V896H1852.97V866.32Z" fill="black"/>
</svg>
