<?xml version="1.0" encoding="utf-8"?>
<!-- Generator: Adobe Illustrator 16.0.0, SVG Export Plug-In . SVG Version: 6.00 Build 0)  -->
<!DOCTYPE svg PUBLIC "-//W3C//DTD SVG 1.1//EN" "http://www.w3.org/Graphics/SVG/1.1/DTD/svg11.dtd">
<svg version="1.1" id="Layer_1" xmlns="http://www.w3.org/2000/svg" xmlns:xlink="http://www.w3.org/1999/xlink" x="0px" y="0px"
	 width="1026px" height="1027px" viewBox="0 0 1026 1027" enable-background="new 0 0 1026 1027" xml:space="preserve">
<rect x="2" y="3" fill="none" width="1024" height="1024"/>
<g>
	<path d="M334.369,983.664h4.002c3.142,0,5.729,0.822,7.764,2.471c2.054,1.627,3.074,3.969,3.074,7.023
		c0,3.133-1.016,5.531-3.047,7.197c-2.031,1.656-4.656,2.488-7.869,2.488h-3.924V983.664z M336.781,1000.664h0.847
		c1.247,0,2.425-0.129,3.536-0.371c1.11-0.25,2.079-0.664,2.913-1.248c0.821-0.588,1.486-1.357,1.982-2.297
		c0.497-0.934,0.743-2.098,0.743-3.492c0-1.373-0.241-2.547-0.734-3.52c-0.484-0.977-1.16-1.736-2.032-2.283
		c-0.874-0.561-1.837-0.963-2.883-1.227c-1.054-0.254-2.227-0.375-3.525-0.375h-0.847V1000.664z"/>
	<path d="M352.748,997.273c0.033,1.066,0.374,1.996,1.025,2.785c0.666,0.773,1.525,1.156,2.589,1.156
		c0.836,0,1.522-0.182,2.062-0.568c0.538-0.383,1.048-0.963,1.523-1.748l1.951,1.102c-0.566,1.014-1.343,1.813-2.318,2.393
		c-0.99,0.574-2.066,0.863-3.244,0.863c-1.799,0-3.23-0.592-4.305-1.781c-1.063-1.211-1.588-2.701-1.588-4.479
		c0-1.885,0.5-3.424,1.51-4.631c0.99-1.188,2.434-1.781,4.33-1.781c1.848,0,3.238,0.594,4.182,1.781
		c0.956,1.188,1.434,2.707,1.434,4.557v0.352H352.748z M359.592,995.553c-0.143-0.924-0.487-1.654-1.063-2.182
		c-0.572-0.533-1.319-0.805-2.245-0.805c-0.443,0-0.856,0.076-1.241,0.221c-0.384,0.143-0.726,0.348-1.026,0.619
		c-0.297,0.275-0.543,0.588-0.747,0.959c-0.192,0.363-0.325,0.762-0.389,1.188H359.592z"/>
	<path d="M368.688,993.664c-0.342-0.695-0.852-1.043-1.536-1.043c-0.326,0-0.615,0.111-0.872,0.34
		c-0.255,0.229-0.385,0.508-0.385,0.832c0,0.305,0.101,0.564,0.293,0.777c0.2,0.205,0.467,0.406,0.81,0.588
		c0.222,0.105,0.393,0.189,0.513,0.242c0.119,0.063,0.313,0.156,0.59,0.271c0.135,0.066,0.258,0.125,0.357,0.146
		c0.101,0.043,0.176,0.074,0.23,0.109c0.855,0.383,1.531,0.838,2.024,1.346c0.497,0.512,0.747,1.195,0.747,2.039
		c0,1.117-0.408,2.061-1.23,2.822c-0.805,0.75-1.771,1.121-2.897,1.121c-0.464,0-0.908-0.061-1.332-0.188
		c-0.429-0.129-0.83-0.303-1.195-0.543c-0.367-0.221-0.69-0.5-0.971-0.834c-0.28-0.338-0.505-0.701-0.655-1.111l1.973-0.889
		c0.566,1.02,1.287,1.523,2.181,1.523c0.36,0,0.692-0.092,0.998-0.287c0.304-0.197,0.534-0.439,0.679-0.742
		c0.143-0.293,0.174-0.611,0.091-0.967c-0.085-0.344-0.349-0.674-0.796-0.982l-2.258-1.188c-0.389-0.205-0.734-0.408-1.022-0.617
		c-0.292-0.199-0.53-0.416-0.718-0.639c-0.191-0.236-0.33-0.492-0.422-0.768c-0.094-0.275-0.146-0.605-0.146-0.98
		c0-0.969,0.347-1.783,1.033-2.445c0.677-0.682,1.514-1.016,2.51-1.016c1.5,0,2.596,0.697,3.277,2.088L368.688,993.664z"/>
	<path d="M376.965,985.496c0,0.426-0.15,0.789-0.459,1.094c-0.31,0.303-0.688,0.453-1.127,0.453c-0.451,0-0.822-0.15-1.128-0.453
		c-0.31-0.305-0.468-0.668-0.468-1.094c0-0.447,0.158-0.818,0.468-1.141c0.306-0.309,0.677-0.461,1.128-0.461
		c0.439,0,0.817,0.152,1.127,0.461C376.814,984.678,376.965,985.049,376.965,985.496 M376.531,1002.844h-2.309v-11.91h2.309
		V1002.844z"/>
	<path d="M391.447,1002.623c0,2.236-0.432,3.973-1.285,5.217c-0.854,1.219-2.379,1.828-4.562,1.828c-1.69,0-3.074-0.48-4.15-1.453
		c-1.062-0.967-1.608-2.277-1.642-3.949h2.305c0,1.078,0.334,1.904,0.991,2.492c0.655,0.584,1.527,0.877,2.601,0.877
		c1.318,0,2.217-0.387,2.705-1.148c0.488-0.766,0.726-1.84,0.726-3.23v-2.266h-0.05c-0.48,0.713-1.073,1.266-1.777,1.666
		c-0.713,0.4-1.475,0.6-2.297,0.6c-1.779,0-3.18-0.617-4.205-1.855c-1.025-1.246-1.533-2.766-1.533-4.584
		c0-1.713,0.517-3.168,1.559-4.375c1.046-1.236,2.4-1.857,4.08-1.857c1.762,0,3.15,0.803,4.174,2.389h0.05v-2.039h2.312V1002.623z
		 M385.371,1001.215c1.215,0,2.162-0.414,2.842-1.242c0.7-0.848,1.053-1.875,1.053-3.078c0-1.184-0.353-2.197-1.053-3.029
		c-0.68-0.826-1.627-1.244-2.842-1.244c-1.144,0-2.066,0.422-2.768,1.268c-0.685,0.836-1.027,1.838-1.027,3.006
		c0,1.203,0.343,2.225,1.027,3.053C383.305,1000.797,384.228,1001.215,385.371,1001.215"/>
	<path d="M396.754,992.547h0.048c0.338-0.635,0.833-1.115,1.487-1.453c0.647-0.342,1.354-0.51,2.125-0.51
		c0.785,0,1.449,0.121,2.004,0.35c0.543,0.244,0.982,0.582,1.313,1.025c0.336,0.441,0.578,0.979,0.72,1.613
		c0.146,0.635,0.219,1.361,0.219,2.174v7.098h-2.306v-6.816c0-1.172-0.176-2.033-0.513-2.572c-0.345-0.559-1.052-0.834-2.129-0.834
		c-0.393,0-0.728,0.033-0.998,0.111c-0.274,0.076-0.513,0.186-0.718,0.332c-0.205,0.148-0.375,0.311-0.514,0.492
		c-0.133,0.193-0.264,0.391-0.383,0.617c-0.051,0.117-0.102,0.275-0.146,0.455c-0.043,0.188-0.076,0.379-0.109,0.576
		c-0.033,0.195-0.066,0.389-0.079,0.588c-0.015,0.193-0.021,0.352-0.021,0.463v1.119v5.469h-2.309v-11.91h2.309V992.547z"/>
	<path d="M415.073,980.758h2.305v12.164h0.05c1.061-1.559,2.455-2.338,4.18-2.338c1.672,0,3.028,0.621,4.076,1.857
		c1.04,1.207,1.561,2.662,1.561,4.375c0,1.818-0.512,3.338-1.531,4.584c-1.029,1.238-2.434,1.855-4.209,1.855
		c-0.816,0-1.587-0.199-2.295-0.6s-1.301-0.953-1.781-1.666h-0.05v1.854h-2.305V980.758z M421.047,1001.215
		c1.21,0,2.156-0.414,2.842-1.242c0.701-0.848,1.049-1.875,1.049-3.078c0-1.184-0.348-2.197-1.049-3.029
		c-0.686-0.826-1.632-1.244-2.842-1.244c-1.148,0-2.07,0.422-2.771,1.268c-0.681,0.836-1.027,1.838-1.027,3.006
		c0,1.203,0.347,2.225,1.027,3.053C418.977,1000.797,419.898,1001.215,421.047,1001.215"/>
	<polygon points="427.577,990.934 430.271,990.934 434.316,998.494 438.08,990.934 440.673,990.934 430.959,1009.668 
		428.352,1009.668 433.063,1000.816 	"/>
	<path d="M452.31,998.035l-2.203,4.809h-2.589l9.225-19.99l9.229,19.99h-2.593l-2.203-4.809H452.31z M456.742,988.088l-3.435,7.76
		h6.87L456.742,988.088z"/>
	<rect x="467.428" y="980.758" width="2.305" height="22.086"/>
	<rect x="473.117" y="980.758" width="2.309" height="22.086"/>
	<rect x="478.581" y="993.738" width="5.608" height="1.91"/>
	<path d="M493.156,983.074c-0.715-0.316-1.23-0.479-1.531-0.479c-0.496,0-0.861,0.15-1.079,0.471
		c-0.225,0.311-0.374,0.701-0.465,1.156c-0.046,0.338-0.079,0.605-0.089,0.811c-0.008,0.188-0.012,0.459-0.012,0.797v5.104h3.176
		v2.143h-3.176v9.768h-2.307v-9.768h-1.05v-2.143h1.05v-5.797c0-3.121,1.29-4.68,3.872-4.68c0.562,0,1.101,0.105,1.61,0.301V983.074
		z"/>
	<path d="M496.719,992.871h0.074c0.295-0.703,0.723-1.271,1.285-1.674c0.563-0.41,1.231-0.613,2-0.613
		c0.634,0,1.264,0.191,1.898,0.586l-1.052,2.086c-0.376-0.326-0.847-0.48-1.412-0.48c-1.176,0-1.96,0.477-2.353,1.424
		c-0.174,0.441-0.293,0.881-0.351,1.307c-0.059,0.43-0.091,0.926-0.091,1.49v5.848h-2.301v-11.91h2.301V992.871z"/>
	<path d="M504.64,997.273c0.034,1.066,0.372,1.996,1.026,2.785c0.664,0.773,1.528,1.156,2.584,1.156
		c0.844,0,1.527-0.182,2.066-0.568c0.539-0.383,1.043-0.963,1.528-1.748l1.944,1.102c-0.563,1.014-1.335,1.813-2.32,2.393
		c-0.977,0.574-2.063,0.863-3.24,0.863c-1.798,0-3.226-0.592-4.303-1.781c-1.063-1.211-1.595-2.701-1.595-4.479
		c0-1.885,0.506-3.424,1.52-4.631c0.985-1.188,2.429-1.781,4.324-1.781c1.849,0,3.239,0.594,4.179,1.781
		c0.96,1.188,1.436,2.707,1.436,4.557v0.352H504.64z M511.485,995.553c-0.143-0.924-0.493-1.654-1.073-2.182
		c-0.566-0.533-1.314-0.805-2.237-0.805c-0.438,0-0.854,0.076-1.239,0.221c-0.384,0.143-0.727,0.348-1.027,0.619
		c-0.296,0.275-0.546,0.588-0.738,0.959c-0.195,0.363-0.334,0.762-0.4,1.188H511.485z"/>
	<path d="M517.146,997.273c0.037,1.066,0.38,1.996,1.026,2.785c0.664,0.773,1.528,1.156,2.588,1.156
		c0.836,0,1.528-0.182,2.063-0.568c0.537-0.383,1.052-0.963,1.527-1.748l1.949,1.102c-0.572,1.014-1.34,1.813-2.32,2.393
		c-0.986,0.574-2.07,0.863-3.244,0.863c-1.794,0-3.227-0.592-4.307-1.781c-1.061-1.211-1.582-2.701-1.582-4.479
		c0-1.885,0.5-3.424,1.502-4.631c0.99-1.188,2.441-1.781,4.342-1.781c1.84,0,3.234,0.594,4.17,1.781
		c0.96,1.188,1.439,2.707,1.439,4.557v0.352H517.146z M523.995,995.553c-0.143-0.924-0.493-1.654-1.069-2.182
		c-0.576-0.533-1.322-0.805-2.236-0.805c-0.451,0-0.869,0.076-1.248,0.221c-0.385,0.143-0.723,0.348-1.027,0.619
		c-0.296,0.275-0.551,0.588-0.742,0.959c-0.201,0.363-0.334,0.762-0.396,1.188H523.995z"/>
	<rect x="528.148" y="993.738" width="5.605" height="1.91"/>
	<path d="M545.725,1000.99h-0.055c-0.479,0.713-1.068,1.266-1.781,1.666c-0.711,0.4-1.474,0.6-2.293,0.6
		c-1.781,0-3.18-0.617-4.202-1.855c-1.026-1.246-1.536-2.766-1.536-4.584c0-1.713,0.518-3.168,1.564-4.375
		c1.041-1.236,2.393-1.857,4.066-1.857c1.729,0,3.122,0.779,4.182,2.338h0.055v-12.164h2.305v22.086h-2.305V1000.99z
		 M541.951,1001.215c1.219,0,2.162-0.414,2.848-1.242c0.695-0.848,1.051-1.875,1.051-3.078c0-1.184-0.355-2.197-1.051-3.029
		c-0.686-0.826-1.629-1.244-2.848-1.244c-1.139,0-2.062,0.422-2.768,1.268c-0.684,0.836-1.022,1.838-1.022,3.006
		c0,1.203,0.339,2.225,1.022,3.053C539.89,1000.797,540.813,1001.215,541.951,1001.215"/>
	<path d="M551.795,992.408c1.247-1.211,2.771-1.824,4.562-1.824c1.795,0,3.31,0.613,4.533,1.824c1.247,1.227,1.87,2.734,1.87,4.514
		c0,1.781-0.623,3.279-1.87,4.502c-1.224,1.223-2.738,1.832-4.533,1.832c-1.79,0-3.314-0.609-4.562-1.832
		c-1.229-1.223-1.842-2.721-1.842-4.502C549.953,995.143,550.566,993.635,551.795,992.408 M552.253,996.922
		c0,1.098,0.405,2.072,1.202,2.924c0.793,0.818,1.762,1.219,2.901,1.219c1.128,0,2.099-0.4,2.896-1.219
		c0.803-0.852,1.207-1.826,1.207-2.924c0-1.125-0.404-2.098-1.207-2.928c-0.797-0.809-1.768-1.223-2.896-1.223
		c-1.14,0-2.108,0.414-2.901,1.223C552.658,994.824,552.253,995.797,552.253,996.922"/>
	<polygon points="568.966,998.523 572.497,990.283 576.012,998.523 579.497,990.934 582.114,990.934 576.012,1003.256 
		572.497,995.297 568.966,1003.256 562.868,990.934 565.48,990.934 	"/>
	<path d="M585.575,992.547h0.045c0.347-0.635,0.839-1.115,1.495-1.453c0.643-0.342,1.352-0.51,2.123-0.51
		c0.781,0,1.449,0.121,1.996,0.35c0.547,0.244,0.985,0.582,1.314,1.025c0.343,0.441,0.576,0.979,0.727,1.613
		c0.146,0.635,0.213,1.361,0.213,2.174v7.098h-2.305v-6.816c0-1.172-0.17-2.033-0.513-2.572c-0.343-0.559-1.052-0.834-2.129-0.834
		c-0.388,0-0.718,0.033-0.997,0.111c-0.271,0.076-0.51,0.186-0.715,0.332c-0.204,0.148-0.379,0.311-0.516,0.492
		c-0.139,0.193-0.264,0.391-0.389,0.617c-0.043,0.117-0.093,0.275-0.139,0.455c-0.037,0.188-0.074,0.379-0.117,0.576
		c-0.029,0.195-0.054,0.389-0.074,0.588c-0.013,0.193-0.021,0.352-0.021,0.463v1.119v5.469h-2.313v-11.91h2.313V992.547z"/>
	<rect x="596.773" y="980.758" width="2.305" height="22.086"/>
	<path d="M603.127,992.408c1.252-1.211,2.766-1.824,4.561-1.824c1.791,0,3.303,0.613,4.539,1.824
		c1.251,1.227,1.869,2.734,1.869,4.514c0,1.781-0.618,3.279-1.869,4.502c-1.236,1.223-2.748,1.832-4.539,1.832
		c-1.795,0-3.309-0.609-4.561-1.832c-1.236-1.223-1.846-2.721-1.846-4.502C601.281,995.143,601.891,993.635,603.127,992.408
		 M603.59,996.922c0,1.098,0.404,2.072,1.202,2.924c0.78,0.818,1.753,1.219,2.896,1.219c1.127,0,2.096-0.4,2.897-1.219
		c0.802-0.852,1.202-1.826,1.202-2.924c0-1.125-0.4-2.098-1.202-2.928c-0.802-0.809-1.771-1.223-2.897-1.223
		c-1.143,0-2.115,0.414-2.896,1.223C603.994,994.824,603.59,995.797,603.59,996.922"/>
	<path d="M627.447,1002.844h-2.308v-1.854h-0.05c-1.022,1.512-2.388,2.266-4.078,2.266c-1.756,0-3.156-0.617-4.207-1.855
		c-1.015-1.246-1.523-2.766-1.523-4.584c0-1.713,0.514-3.168,1.561-4.375c1.045-1.236,2.404-1.857,4.095-1.857
		c1.707,0,3.098,0.779,4.153,2.338h0.05v-1.988h2.308V1002.844z M621.375,1001.215c1.211,0,2.158-0.414,2.843-1.242
		c0.7-0.848,1.048-1.875,1.048-3.078c0-1.184-0.348-2.197-1.048-3.029c-0.685-0.826-1.632-1.244-2.843-1.244
		c-1.148,0-2.07,0.422-2.768,1.268c-0.684,0.836-1.026,1.838-1.026,3.006c0,1.203,0.343,2.225,1.026,3.053
		C619.305,1000.797,620.227,1001.215,621.375,1001.215"/>
	<path d="M639.386,1000.99h-0.055c-0.471,0.713-1.068,1.266-1.773,1.666c-0.706,0.4-1.478,0.6-2.296,0.6
		c-1.777,0-3.177-0.617-4.199-1.855c-1.027-1.246-1.536-2.766-1.536-4.584c0-1.713,0.518-3.168,1.561-4.375
		c1.044-1.236,2.397-1.857,4.074-1.857c1.729,0,3.114,0.779,4.17,2.338h0.055v-12.164h2.313v22.086h-2.313V1000.99z
		 M635.62,1001.215c1.22,0,2.158-0.414,2.847-1.242c0.697-0.848,1.048-1.875,1.048-3.078c0-1.184-0.351-2.197-1.048-3.029
		c-0.688-0.826-1.627-1.244-2.847-1.244c-1.144,0-2.07,0.422-2.767,1.268c-0.685,0.836-1.031,1.838-1.031,3.006
		c0,1.203,0.347,2.225,1.031,3.053C633.55,1000.797,634.477,1001.215,635.62,1001.215"/>
	<path d="M648.306,1001.779c0,0.406-0.143,0.764-0.434,1.043c-0.297,0.287-0.64,0.434-1.052,0.434c-0.41,0-0.766-0.146-1.052-0.434
		c-0.289-0.279-0.439-0.637-0.439-1.043c0-0.395,0.15-0.738,0.439-1.031c0.286-0.295,0.642-0.447,1.052-0.447
		c0.412,0,0.755,0.152,1.052,0.447C648.163,1001.041,648.306,1001.385,648.306,1001.779"/>
	<path d="M660.919,994.33c-0.964-1.074-2.103-1.613-3.443-1.613c-1.102,0-2.054,0.418-2.838,1.254
		c-0.769,0.846-1.152,1.826-1.152,2.924c0,1.24,0.384,2.246,1.152,3.023c0.801,0.801,1.803,1.201,2.997,1.201
		c1.23,0,2.32-0.531,3.284-1.578v2.922c-0.997,0.527-2.095,0.793-3.306,0.793c-1.777,0-3.301-0.605-4.57-1.811
		c-1.24-1.182-1.865-2.672-1.865-4.449c0-1.838,0.625-3.361,1.865-4.588c1.248-1.211,2.817-1.824,4.692-1.824
		c1.234,0,2.291,0.262,3.184,0.789V994.33z"/>
	<path d="M664.167,992.408c1.252-1.211,2.768-1.824,4.566-1.824c1.795,0,3.311,0.613,4.533,1.824
		c1.251,1.227,1.873,2.734,1.873,4.514c0,1.781-0.622,3.279-1.873,4.502c-1.223,1.223-2.738,1.832-4.533,1.832
		c-1.799,0-3.314-0.609-4.566-1.832c-1.224-1.223-1.845-2.721-1.845-4.502C662.322,995.143,662.943,993.635,664.167,992.408
		 M664.635,996.922c0,1.098,0.396,2.072,1.201,2.924c0.781,0.818,1.754,1.219,2.897,1.219c1.127,0,2.087-0.4,2.896-1.219
		c0.802-0.852,1.201-1.826,1.201-2.924c0-1.125-0.399-2.098-1.201-2.928c-0.81-0.809-1.77-1.223-2.896-1.223
		c-1.144,0-2.116,0.414-2.897,1.223C665.03,994.824,664.635,995.797,664.635,996.922"/>
	<path d="M679.469,992.441h0.05c0.348-0.543,0.793-0.988,1.369-1.336c0.572-0.354,1.178-0.521,1.808-0.521
		c1.491,0,2.642,0.701,3.46,2.113c0.38-0.648,0.894-1.156,1.557-1.541c0.647-0.381,1.369-0.572,2.129-0.572
		c2.655,0,3.979,1.715,3.979,5.143v7.117h-2.304v-6.738c0-0.309-0.013-0.607-0.042-0.9c-0.021-0.295-0.066-0.588-0.138-0.867
		c-0.067-0.277-0.172-0.535-0.313-0.781c-0.133-0.234-0.321-0.447-0.563-0.635c-0.306-0.205-0.702-0.301-1.17-0.301
		c-0.488,0-0.894,0.096-1.235,0.301c-0.325,0.188-0.572,0.426-0.755,0.705c-0.185,0.271-0.326,0.631-0.422,1.061
		c-0.101,0.416-0.172,0.807-0.196,1.131c-0.025,0.346-0.037,0.738-0.037,1.178v5.848h-2.3v-6.309c0-0.398-0.018-0.738-0.034-1.01
		c-0.017-0.279-0.066-0.611-0.158-1.021c-0.08-0.443-0.188-0.766-0.325-0.969c-0.143-0.234-0.355-0.451-0.643-0.639
		c-0.293-0.18-0.644-0.275-1.048-0.275c-1.182,0-1.938,0.51-2.28,1.523c-0.158,0.48-0.254,0.928-0.308,1.354
		c-0.051,0.422-0.08,0.922-0.08,1.498v5.848h-2.308v-11.91h2.308V992.441z"/>
	<path d="M280.613,995.818h32.643c0.987,0,0.987-1.512,0-1.512h-32.643C279.628,994.307,279.628,995.818,280.613,995.818"/>
	<path d="M714.936,995.818h32.646c0.984,0,0.984-1.512,0-1.512h-32.646C713.954,994.307,713.954,995.818,714.936,995.818"/>
</g>
<g>
	<g id="_x31_">
		<polygon opacity="0.5" fill="#663528" points="95.026,572.696 567.42,299.959 909.636,497.535 437.241,770.278 399.184,748.307 
			316.051,796.304 299.201,786.575 382.335,738.579 		"/>
		<g>
			<g>
				<g enable-background="new    ">
					<g>
						<g enable-background="new    ">
							<path fill="#21222B" d="M436.736,760.415l452.919-261.457c3.136-1.823,5.089-5.706,5.104-11.238L441.832,749.18
								C441.815,754.704,439.875,758.589,436.736,760.415L436.736,760.415z"/>
						</g>
					</g>
					<g>
						<polygon fill="#242632" points="441.832,749.18 894.759,487.72 894.928,426.622 442.005,688.075 						"/>
					</g>
					<g>
						<polygon fill="#393D48" points="424.561,657.775 877.483,396.319 550.989,207.813 98.061,469.275 						"/>
					</g>
					<g>
						<g enable-background="new    ">
							<path fill="#30343F" d="M442.005,688.075l452.922-261.453c0.028-11.127-7.762-24.716-17.444-30.303L424.561,657.775
								C434.241,663.364,442.038,676.952,442.005,688.075L442.005,688.075z"/>
						</g>
					</g>
					<path fill="#30343F" d="M424.27,759.188c9.685,5.589,17.529,1.115,17.562-10.008l0.174-61.104
						c0.033-11.123-7.764-24.711-17.444-30.3l-326.5-188.5l-0.11,7.238l9.518,5.432l19.118,44.028l-18.975,32.709l-9.818,5.797
						l-0.017,6.203L424.27,759.188z"/>
				</g>
				<path fill="#393D48" d="M436.001,749.168c-0.014,3.099-0.836,5.419-2.207,6.208c-1.396,0.808-3.866,0.338-6.603-1.24
					L97.793,564.483l9.471-5.466l21.514-27.786l-21.31-49.286l314.178,180.886c3.737,2.157,7.45,6.117,10.196,10.872
					c2.765,4.795,4.347,10.024,4.335,14.355L436.001,749.168z"/>
				
					<linearGradient id="SVGID_1_" gradientUnits="userSpaceOnUse" x1="575.3945" y1="398.9902" x2="341.1186" y2="493.284" gradientTransform="matrix(0.5 0.866 0.866 -0.5 -385.6035 154.1826)">
					<stop  offset="0" style="stop-color:#EDD1B4"/>
					<stop  offset="1" style="stop-color:#EDE0D1"/>
				</linearGradient>
				<path fill="url(#SVGID_1_)" d="M107.48,481.95l314.166,180.881c3.737,2.157,7.45,6.117,10.196,10.872
					c2.765,4.795,4.347,10.024,4.335,14.355l-0.171,60.233L107.264,559.018L107.48,481.95z"/>
				<path opacity="0.8" fill="#CEB7A3" d="M107.452,493.005l0.028-11.055l314.166,180.881c3.737,2.157,7.45,6.117,10.196,10.872
					c1.507,2.614,2.624,5.35,3.361,8.004L107.452,493.005z"/>
				<path opacity="0.5" fill="#B2A497" d="M371.792,665.928c3.517,1.959,7.612,4.166,12.006,6.677
					c4.392,2.5,9.077,5.171,13.764,7.838c4.683,2.738,9.37,5.485,13.759,8.055c4.392,2.63,8.495,5.08,12.006,7.183
					c7.027,4.261,11.712,7.228,11.712,7.228s-4.685-2.441-11.712-6.301c-3.511-1.955-7.614-4.231-12.006-6.678
					c-4.389-2.497-9.076-5.168-13.759-7.832c-4.687-2.744-9.372-5.482-13.764-8.056c-4.394-2.561-8.49-5.089-12.006-7.183
					c-7.027-4.257-11.71-7.229-11.71-7.229S364.764,662.067,371.792,665.928z"/>
				<path fill="#353231" d="M394.043,678.769l17.008,9.999c-59.53,0.122-96.488,67.127-112.979,84.578l-17.766-9.722
					C280.306,763.624,331.97,682.62,394.043,678.769z"/>
			</g>
			<path fill="#F1EBDC" d="M151.79,482.345c118.237,68.264,133.923,77.321,248.52,143.485c1.009,0.579,2.594,0.561,3.596-0.019
				c10.553-6.132,27.772-6.132,38.391,0c1.007,0.579,2.591,0.598,3.59,0.019c143.25-83.243,87.306-50.636,374.801-217.711
				c1-0.579,0.963-1.497-0.044-2.076c-10.619-6.132-10.676-16.107-0.128-22.235c1.001-0.582,1.028-1.508,0.024-2.087
				c-114.604-66.157-130.285-75.219-248.525-143.483c-1.004-0.583-2.623-0.583-3.624,0c-10.55,6.13-27.769,6.13-38.357,0.021
				c-1.007-0.58-2.591-0.604-3.591-0.021c-40.72,23.665-344.569,200.14-374.804,217.71c-1,0.578-0.957,1.498,0.047,2.08
				c10.586,6.112,10.642,16.088,0.094,22.219C150.776,480.828,150.781,481.763,151.79,482.345z M157.123,481.236
				c10.191-6.934,10.133-17.245-0.165-24.204c31.326-18.204,331.986-192.824,371.376-215.723
				c12.046,5.945,29.847,5.945,41.789,0.023c23.381,13.499,210.988,121.81,245.051,141.477
				c-10.191,6.938-10.102,17.271,0.164,24.209c-41.197,23.941-330.112,191.736-371.376,215.716
				c-12.013-5.925-29.847-5.943-41.785-0.02C368.107,603.046,180.505,494.732,157.123,481.236z"/>
		</g>
	</g>
	<g>
		<g>
			<g>
				<path fill="#242632" d="M438.912,428.537l-11.037-6.37l22.002-12.702l-8.682-5.015l-21.998,12.698l-11.042-6.362l7.361-1.554
					l18.751-10.828l-2.335-1.35l7.366-1.547l20.226-11.679l2.676-4.249l11.036,6.367l-22.002,12.705l8.675,5.015l22.012-12.701
					l11.032,6.369l-7.354,1.546l-44.008,25.408L438.912,428.537z"/>
				<path fill="#242632" d="M516.667,422.613l-33.976,19.613l-14.581,3.166l-16.981-9.804l5.485-8.417l38.994-22.513l2.678-4.248
					l23.726,13.702l-5.338,8.33L516.667,422.613z M506.703,416.86l-7.426-4.283l-31.5,18.181l-1.33,2.086l6.408,3.707l3.615-0.771
					l28.715-16.58L506.703,416.86z"/>
				<path fill="#242632" d="M519.503,457.238l-15.433,8.915l-28.421-16.404l7.352-1.555l44.015-25.403l2.674-4.243l13.371,7.715
					l-7.354,1.547l-38.994,22.51l8.69,5.019l5.402-3.122L519.503,457.238z"/>
				<path fill="#242632" d="M527.253,473.749l-2.679,4.241l-13.371-7.711l7.354-1.558l15.292-8.823l22.639-25.883l12.966,7.485
					l-6.776,1.439l-9.206,10.644l18.367-5.349l2.5-3.915l12.972,7.487l-44.766,13.111L527.253,473.749z"/>
				<path fill="#242632" d="M368.508,455.756l-7.434,1.596l-2.755,4.29l-13.588,7.842l-14.583,3.177l-23.866-13.783l7.351-1.549
					l18.759-10.835l-2.338-1.348l7.361-1.543l20.228-11.683l2.679-4.246l23.725,13.7l-5.5,8.589L368.508,455.756z M334.896,463.811
					l3.607-0.77l8.49-4.902l1.509-2.341l-7.421-4.281l-13.741,7.936L334.896,463.811z M351.12,445.724l7.561,4.358l3.605-0.772
					l4.94-2.849l1.509-2.34l-7.421-4.284L351.12,445.724z"/>
				<path fill="#242632" d="M353.732,480.48l-2.68,4.249l-13.37-7.721l7.36-1.547l44.007-25.412l2.673-4.242l13.37,7.716
					l-7.354,1.552L353.732,480.48z"/>
				<path fill="#242632" d="M418.627,484.694l-7.436,1.589l-2.755,4.29l-13.585,7.849l-14.59,3.174l-23.862-13.782l7.361-1.55
					l18.759-10.83l-2.343-1.352l7.356-1.55l20.228-11.674l2.678-4.249l23.728,13.701l-5.502,8.588L418.627,484.694z
					 M385.011,492.747l3.61-0.774l8.497-4.903l1.512-2.331l-7.421-4.29l-13.746,7.938L385.011,492.747z M401.24,474.659l7.553,4.359
					l3.61-0.772l4.943-2.854l1.509-2.333l-7.42-4.285L401.24,474.659z"/>
				<path fill="#242632" d="M431.659,513.431l-15.44,8.919l-28.41-16.402l7.352-1.549l44.009-25.411l2.676-4.248l13.365,7.718
					l-7.351,1.552l-38.992,22.511l8.687,5.015l5.408-3.122L431.659,513.431z"/>
				<path fill="#242632" d="M488.56,519.54l-8.689-5.016l5.407-3.122l-8.691-5.014l-11.97,6.905l4.879,2.821l-10.031,5.798
					l-4.883-2.821l-11.968,6.905l8.689,5.019l5.408-3.122l8.69,5.023l-15.443,8.912l-28.405-16.402l7.347-1.547l16.988-9.811
					l-2.331-1.346l7.349-1.549l22.002-12.705l2.686-4.247l28.405,16.405L488.56,519.54z"/>
			</g>
			<polygon fill="#242632" points="500.872,493.329 391.828,430.373 398.256,426.657 507.307,489.616 			"/>
			<polygon fill="#242632" points="406.591,543.921 297.546,480.962 303.975,477.251 413.024,540.208 			"/>
			<polygon fill="#242632" points="593.303,439.748 484.26,376.786 490.687,373.075 599.736,436.034 			"/>
		</g>
		<g>
			<g>
				<path fill="#F1EBDC" d="M438.912,426.045l-11.037-6.373l22.002-12.702l-8.682-5.015l-21.998,12.701l-11.042-6.365l7.361-1.554
					l18.751-10.828l-2.335-1.35l7.366-1.549l20.226-11.675l2.676-4.249l11.036,6.365l-22.002,12.709l8.675,5.013l22.012-12.703
					l11.032,6.366l-7.354,1.55l-44.008,25.407L438.912,426.045z"/>
				<path fill="#F1EBDC" d="M516.667,420.115l-33.976,19.616l-14.581,3.166l-16.981-9.807l5.485-8.414l38.994-22.512l2.678-4.249
					l23.726,13.703l-5.338,8.327L516.667,420.115z M506.703,414.365l-7.426-4.286l-31.5,18.187l-1.33,2.087l6.408,3.703l3.615-0.771
					l28.715-16.578L506.703,414.365z"/>
				<path fill="#F1EBDC" d="M519.503,454.747l-15.433,8.912l-28.421-16.405l7.352-1.551l44.015-25.406l2.674-4.246l13.371,7.717
					l-7.354,1.549l-38.994,22.511l8.69,5.016l5.402-3.119L519.503,454.747z"/>
				<path fill="#F1EBDC" d="M527.253,471.254l-2.679,4.244l-13.371-7.716l7.354-1.554l15.292-8.825l22.639-25.881l12.966,7.483
					l-6.776,1.439l-9.206,10.644l18.367-5.347l2.5-3.917l12.972,7.49l-44.766,13.108L527.253,471.254z"/>
				<path fill="#F1EBDC" d="M368.508,453.263l-7.434,1.594l-2.755,4.289l-13.588,7.844l-14.583,3.173l-23.866-13.778l7.351-1.548
					l18.759-10.835l-2.338-1.35l7.361-1.542l20.228-11.685l2.679-4.249l23.725,13.703l-5.5,8.591L368.508,453.263z M334.896,461.315
					l3.607-0.768l8.49-4.902l1.509-2.341l-7.421-4.281l-13.741,7.937L334.896,461.315z M351.12,443.227l7.561,4.36l3.605-0.77
					l4.94-2.854l1.509-2.338l-7.421-4.28L351.12,443.227z"/>
				<path fill="#F1EBDC" d="M353.732,477.985l-2.68,4.251l-13.37-7.723l7.36-1.544l44.007-25.416l2.673-4.242l13.37,7.717
					l-7.354,1.549L353.732,477.985z"/>
				<path fill="#F1EBDC" d="M418.627,482.201l-7.436,1.587l-2.755,4.293l-13.585,7.847l-14.59,3.171l-23.862-13.783l7.361-1.546
					l18.759-10.83l-2.343-1.35l7.356-1.549l20.228-11.676l2.678-4.25l23.728,13.7l-5.502,8.588L418.627,482.201z M385.011,490.252
					l3.61-0.772l8.497-4.905l1.512-2.333l-7.421-4.286l-13.746,7.938L385.011,490.252z M401.24,472.163l7.553,4.36l3.61-0.775
					l4.943-2.849l1.509-2.336l-7.42-4.285L401.24,472.163z"/>
				<path fill="#F1EBDC" d="M431.659,510.938l-15.44,8.919l-28.41-16.406l7.352-1.549l44.009-25.406l2.676-4.248l13.365,7.717
					l-7.351,1.55l-38.992,22.509l8.687,5.019l5.408-3.124L431.659,510.938z"/>
				<path fill="#F1EBDC" d="M488.56,517.046l-8.689-5.017l5.407-3.122l-8.691-5.014l-11.97,6.908l4.879,2.818l-10.031,5.796
					l-4.883-2.817l-11.968,6.905l8.689,5.017l5.408-3.122l8.69,5.025l-15.443,8.912l-28.405-16.404l7.347-1.546l16.988-9.81
					l-2.331-1.348l7.349-1.549l22.002-12.708l2.686-4.244l28.405,16.405L488.56,517.046z"/>
			</g>
			<polygon fill="#F1EBDC" points="500.872,490.834 391.828,427.875 398.256,424.162 507.307,487.123 			"/>
			<polygon fill="#F1EBDC" points="406.591,541.425 297.546,478.467 303.975,474.754 413.024,537.715 			"/>
			<polygon fill="#F1EBDC" points="593.303,437.255 484.26,374.294 490.687,370.58 599.736,433.54 			"/>
		</g>
	</g>
	<g>
		<polygon fill-rule="evenodd" clip-rule="evenodd" fill="#242632" points="575.753,348.063 595.634,358.951 609.317,358.207 
			595.681,358.955 548.53,389.849 562.247,397.372 609.399,366.485 629.196,377.326 642.797,368.421 622.999,357.577 
			640.681,346.001 626.95,338.476 609.237,350.076 609.426,358.155 609.235,350.048 589.352,339.157 		"/>
		<polygon fill-rule="evenodd" clip-rule="evenodd" fill="#242632" points="575.753,348.063 595.634,358.951 609.317,358.207 
			589.441,347.315 		"/>
		<polygon fill-rule="evenodd" clip-rule="evenodd" fill="#242632" points="589.441,347.315 609.317,358.207 609.336,358.207 
			609.426,358.155 609.235,350.048 589.352,339.157 589.535,347.315 		"/>
		<polygon fill-rule="evenodd" clip-rule="evenodd" fill="#242632" points="589.352,339.157 575.753,348.063 589.535,347.315 		"/>
		<path fill-rule="evenodd" clip-rule="evenodd" fill="#242632" d="M562.247,397.372l47.152-30.887l-0.084-0.045l0.021-8.229l0,0
			l-47.23,30.931L562.247,397.372z M622.999,357.577l17.682-11.576l-13.677,0.634l-17.578,11.521l13.49-0.621L622.999,357.577z"/>
		<polygon fill-rule="evenodd" clip-rule="evenodd" fill="#242632" points="562.105,389.142 627.004,346.635 626.907,346.644 
			626.95,338.476 609.237,350.076 609.426,358.155 609.336,358.207 609.317,358.207 595.681,358.955 548.53,389.849 
			562.102,389.091 		"/>
		<polygon fill-rule="evenodd" clip-rule="evenodd" fill="#242632" points="548.53,389.849 562.247,397.372 562.102,389.091 		"/>
		<polygon fill-rule="evenodd" clip-rule="evenodd" fill="#242632" points="626.95,338.476 640.681,346.001 626.907,346.644 		"/>
		<polygon fill-rule="evenodd" clip-rule="evenodd" fill="#242632" points="629.196,377.326 609.315,366.44 609.336,358.211 
			629.217,369.1 		"/>
		<polygon fill-rule="evenodd" clip-rule="evenodd" fill="#242632" points="629.217,369.1 609.336,358.211 609.336,358.207 
			609.426,358.155 622.916,357.534 642.797,368.421 629.213,369.041 		"/>
	</g>
	<g>
		<polygon fill-rule="evenodd" clip-rule="evenodd" fill="#F1EBDC" points="575.753,345.104 595.634,355.993 609.317,355.249 
			595.681,355.998 548.53,386.892 562.247,394.414 609.399,363.529 629.196,374.369 642.797,365.464 622.999,354.622 
			640.681,343.044 626.95,335.519 609.237,347.118 609.426,355.197 609.235,347.088 589.352,336.199 		"/>
		<polygon fill-rule="evenodd" clip-rule="evenodd" fill="#F7F7F7" points="575.753,345.104 595.634,355.993 609.317,355.249 
			589.441,344.358 		"/>
		<polygon fill-rule="evenodd" clip-rule="evenodd" fill="#F1EBDC" points="589.441,344.358 609.317,355.249 609.336,355.249 
			609.426,355.197 609.235,347.088 589.352,336.199 589.535,344.358 		"/>
		<polygon fill-rule="evenodd" clip-rule="evenodd" fill="#D3CDC1" points="589.352,336.199 575.753,345.104 589.535,344.358 		"/>
		<path fill-rule="evenodd" clip-rule="evenodd" fill="#F7F7F7" d="M562.247,394.414l47.152-30.885l-0.084-0.047l0.021-8.229l0,0
			l-47.23,30.931L562.247,394.414z M622.999,354.622l17.682-11.578l-13.677,0.633l-17.578,11.521l13.49-0.619L622.999,354.622z"/>
		<polygon fill-rule="evenodd" clip-rule="evenodd" fill="#F1EBDC" points="562.105,386.185 627.004,343.677 626.907,343.684 
			626.95,335.519 609.237,347.118 609.426,355.197 609.336,355.249 609.317,355.249 595.681,355.998 548.53,386.892 
			562.102,386.134 		"/>
		<polygon fill-rule="evenodd" clip-rule="evenodd" fill="#D3CDC1" points="548.53,386.892 562.247,394.414 562.102,386.134 		"/>
		<polygon fill-rule="evenodd" clip-rule="evenodd" fill="#D3CDC1" points="626.95,335.519 640.681,343.044 626.907,343.684 		"/>
		<polygon fill-rule="evenodd" clip-rule="evenodd" fill="#F1EBDC" points="629.196,374.369 609.315,363.482 609.336,355.254 
			629.217,366.143 		"/>
		<polygon fill-rule="evenodd" clip-rule="evenodd" fill="#F7F7F7" points="629.217,366.143 609.336,355.254 609.336,355.249 
			609.426,355.197 622.916,354.578 642.797,365.464 629.213,366.084 		"/>
	</g>
</g>
</svg>
