<svg id="visual" viewBox="0 0 1348 710" width="1348" height="710" xmlns="http://www.w3.org/2000/svg" xmlns:xlink="http://www.w3.org/1999/xlink" version="1.1"><rect x="0" y="0" width="1348" height="710" fill="#393d48"></rect><path d="M0 524L193 432L385 459L578 510L770 416L963 456L1155 522L1348 522L1348 711L1155 711L963 711L770 711L578 711L385 711L193 711L0 711Z" fill="#393d48"></path><path d="M0 487L193 507L385 540L578 517L770 504L963 493L1155 554L1348 514L1348 711L1155 711L963 711L770 711L578 711L385 711L193 711L0 711Z" fill="#6b666f"></path><path d="M0 549L193 519L385 585L578 598L770 567L963 570L1155 572L1348 594L1348 711L1155 711L963 711L770 711L578 711L385 711L193 711L0 711Z" fill="#9c9397"></path><path d="M0 598L193 623L385 637L578 612L770 578L963 615L1155 569L1348 618L1348 711L1155 711L963 711L770 711L578 711L385 711L193 711L0 711Z" fill="#cbc4c4"></path><path d="M0 632L193 679L385 668L578 669L770 623L963 651L1155 621L1348 661L1348 711L1155 711L963 711L770 711L578 711L385 711L193 711L0 711Z" fill="#faf8f7"></path></svg>