<svg id="visual" viewBox="0 0 960 540" width="960" height="540" xmlns="http://www.w3.org/2000/svg" xmlns:xlink="http://www.w3.org/1999/xlink" version="1.1"><rect x="0" y="0" width="960" height="540" fill="#faf8f7"></rect><path d="M0 390L17.8 392.8C35.7 395.7 71.3 401.3 106.8 407.2C142.3 413 177.7 419 213.2 415C248.7 411 284.3 397 320 386.5C355.7 376 391.3 369 426.8 372C462.3 375 497.7 388 533.2 391.2C568.7 394.3 604.3 387.7 640 389C675.7 390.3 711.3 399.7 746.8 402.5C782.3 405.3 817.7 401.7 853.2 396.8C888.7 392 924.3 386 942.2 383L960 380L960 541L942.2 541C924.3 541 888.7 541 853.2 541C817.7 541 782.3 541 746.8 541C711.3 541 675.7 541 640 541C604.3 541 568.7 541 533.2 541C497.7 541 462.3 541 426.8 541C391.3 541 355.7 541 320 541C284.3 541 248.7 541 213.2 541C177.7 541 142.3 541 106.8 541C71.3 541 35.7 541 17.8 541L0 541Z" fill="#e0dcdc"></path><path d="M0 429L17.8 431.2C35.7 433.3 71.3 437.7 106.8 439.2C142.3 440.7 177.7 439.3 213.2 432.2C248.7 425 284.3 412 320 413.3C355.7 414.7 391.3 430.3 426.8 431.2C462.3 432 497.7 418 533.2 411C568.7 404 604.3 404 640 404.8C675.7 405.7 711.3 407.3 746.8 408.5C782.3 409.7 817.7 410.3 853.2 413.8C888.7 417.3 924.3 423.7 942.2 426.8L960 430L960 541L942.2 541C924.3 541 888.7 541 853.2 541C817.7 541 782.3 541 746.8 541C711.3 541 675.7 541 640 541C604.3 541 568.7 541 533.2 541C497.7 541 462.3 541 426.8 541C391.3 541 355.7 541 320 541C284.3 541 248.7 541 213.2 541C177.7 541 142.3 541 106.8 541C71.3 541 35.7 541 17.8 541L0 541Z" fill="#bfb9bb"></path><path d="M0 461L17.8 458.7C35.7 456.3 71.3 451.7 106.8 445.3C142.3 439 177.7 431 213.2 430.8C248.7 430.7 284.3 438.3 320 437C355.7 435.7 391.3 425.3 426.8 421.2C462.3 417 497.7 419 533.2 425.7C568.7 432.3 604.3 443.7 640 442.5C675.7 441.3 711.3 427.7 746.8 423C782.3 418.3 817.7 422.7 853.2 430.3C888.7 438 924.3 449 942.2 454.5L960 460L960 541L942.2 541C924.3 541 888.7 541 853.2 541C817.7 541 782.3 541 746.8 541C711.3 541 675.7 541 640 541C604.3 541 568.7 541 533.2 541C497.7 541 462.3 541 426.8 541C391.3 541 355.7 541 320 541C284.3 541 248.7 541 213.2 541C177.7 541 142.3 541 106.8 541C71.3 541 35.7 541 17.8 541L0 541Z" fill="#9f979c"></path><path d="M0 474L17.8 473C35.7 472 71.3 470 106.8 465.8C142.3 461.7 177.7 455.3 213.2 453.3C248.7 451.3 284.3 453.7 320 456.2C355.7 458.7 391.3 461.3 426.8 458.7C462.3 456 497.7 448 533.2 445.8C568.7 443.7 604.3 447.3 640 454C675.7 460.7 711.3 470.3 746.8 475C782.3 479.7 817.7 479.3 853.2 478.5C888.7 477.7 924.3 476.3 942.2 475.7L960 475L960 541L942.2 541C924.3 541 888.7 541 853.2 541C817.7 541 782.3 541 746.8 541C711.3 541 675.7 541 640 541C604.3 541 568.7 541 533.2 541C497.7 541 462.3 541 426.8 541C391.3 541 355.7 541 320 541C284.3 541 248.7 541 213.2 541C177.7 541 142.3 541 106.8 541C71.3 541 35.7 541 17.8 541L0 541Z" fill="#7d777f"></path><path d="M0 486L17.8 486.2C35.7 486.3 71.3 486.7 106.8 486C142.3 485.3 177.7 483.7 213.2 484.7C248.7 485.7 284.3 489.3 320 488.5C355.7 487.7 391.3 482.3 426.8 483.7C462.3 485 497.7 493 533.2 492.5C568.7 492 604.3 483 640 483.3C675.7 483.7 711.3 493.3 746.8 497.7C782.3 502 817.7 501 853.2 498.8C888.7 496.7 924.3 493.3 942.2 491.7L960 490L960 541L942.2 541C924.3 541 888.7 541 853.2 541C817.7 541 782.3 541 746.8 541C711.3 541 675.7 541 640 541C604.3 541 568.7 541 533.2 541C497.7 541 462.3 541 426.8 541C391.3 541 355.7 541 320 541C284.3 541 248.7 541 213.2 541C177.7 541 142.3 541 106.8 541C71.3 541 35.7 541 17.8 541L0 541Z" fill="#5b5963"></path><path d="M0 497L17.8 496.8C35.7 496.7 71.3 496.3 106.8 499C142.3 501.7 177.7 507.3 213.2 511.2C248.7 515 284.3 517 320 515.2C355.7 513.3 391.3 507.7 426.8 506.5C462.3 505.3 497.7 508.7 533.2 508.7C568.7 508.7 604.3 505.3 640 506.2C675.7 507 711.3 512 746.8 513.2C782.3 514.3 817.7 511.7 853.2 509C888.7 506.3 924.3 503.7 942.2 502.3L960 501L960 541L942.2 541C924.3 541 888.7 541 853.2 541C817.7 541 782.3 541 746.8 541C711.3 541 675.7 541 640 541C604.3 541 568.7 541 533.2 541C497.7 541 462.3 541 426.8 541C391.3 541 355.7 541 320 541C284.3 541 248.7 541 213.2 541C177.7 541 142.3 541 106.8 541C71.3 541 35.7 541 17.8 541L0 541Z" fill="#393d48"></path></svg>