<svg id="visual" viewBox="0 0 1920 448" width="1920" height="448" xmlns="http://www.w3.org/2000/svg" xmlns:xlink="http://www.w3.org/1999/xlink" version="1.1"><rect x="0" y="0" width="1920" height="448" fill="#faf8f7"></rect><defs><linearGradient id="grad1_0" x1="76.7%" y1="100%" x2="100%" y2="0%"><stop offset="-35.714285714285715%" stop-color="#faf8f7" stop-opacity="1"></stop><stop offset="135.71428571428572%" stop-color="#faf8f7" stop-opacity="1"></stop></linearGradient></defs><defs><linearGradient id="grad2_0" x1="0%" y1="100%" x2="23.3%" y2="0%"><stop offset="-35.714285714285715%" stop-color="#faf8f7" stop-opacity="1"></stop><stop offset="135.71428571428572%" stop-color="#faf8f7" stop-opacity="1"></stop></linearGradient></defs><g transform="translate(1920, 448)"><path d="M-201.6 0C-196.4 -35.4 -191.2 -70.8 -174.6 -100.8C-158 -130.8 -130 -155.6 -99 -171.5C-68 -187.4 -34 -194.5 0 -201.6L0 0Z" fill="#33383b"></path></g><g transform="translate(0, 0)"><path d="M201.6 0C196.8 36.1 192 72.1 174.6 100.8C157.2 129.5 127.2 150.7 96 166.3C64.8 181.8 32.4 191.7 0 201.6L0 0Z" fill="#33383b"></path></g></svg>