<svg id="visual" viewBox="0 0 1903 747" width="1903" height="747" xmlns="http://www.w3.org/2000/svg" xmlns:xlink="http://www.w3.org/1999/xlink" version="1.1"><rect x="0" y="0" width="1903" height="747" fill="#faf8f7"></rect><defs><linearGradient id="grad1_0" x1="60.7%" y1="100%" x2="100%" y2="0%"><stop offset="-0.9504685408299913%" stop-color="#faf8f7" stop-opacity="1"></stop><stop offset="100.95046854082999%" stop-color="#faf8f7" stop-opacity="1"></stop></linearGradient></defs><defs><linearGradient id="grad2_0" x1="0%" y1="100%" x2="39.3%" y2="0%"><stop offset="-0.9504685408299913%" stop-color="#faf8f7" stop-opacity="1"></stop><stop offset="100.95046854082999%" stop-color="#faf8f7" stop-opacity="1"></stop></linearGradient></defs><g transform="translate(1903, 747)"><path d="M-336.1 0C-325.6 -57.5 -315.1 -114.9 -288.4 -166.5C-261.7 -218.1 -218.8 -263.8 -168.1 -291.1C-117.3 -318.4 -58.7 -327.3 0 -336.1L0 0Z" fill="#33383b"></path></g><g transform="translate(0, 0)"><path d="M336.2 0C315.9 51.9 295.7 103.7 270.2 156C244.7 208.3 214 261 168.1 291.1C122.2 321.2 61.1 328.7 0 336.2L0 0Z" fill="#33383b"></path></g></svg>