<svg id="visual" viewBox="0 0 960 540" width="960" height="540" xmlns="http://www.w3.org/2000/svg" xmlns:xlink="http://www.w3.org/1999/xlink" version="1.1"><rect x="0" y="0" width="960" height="540" fill="#faf8f7"></rect><path d="M0 83L17.8 82.2C35.7 81.3 71.3 79.7 106.8 76.3C142.3 73 177.7 68 213.2 66.2C248.7 64.3 284.3 65.7 320 69.2C355.7 72.7 391.3 78.3 426.8 79.8C462.3 81.3 497.7 78.7 533.2 79.5C568.7 80.3 604.3 84.7 640 86.5C675.7 88.3 711.3 87.7 746.8 84.5C782.3 81.3 817.7 75.7 853.2 76.2C888.7 76.7 924.3 83.3 942.2 86.7L960 90L960 0L942.2 0C924.3 0 888.7 0 853.2 0C817.7 0 782.3 0 746.8 0C711.3 0 675.7 0 640 0C604.3 0 568.7 0 533.2 0C497.7 0 462.3 0 426.8 0C391.3 0 355.7 0 320 0C284.3 0 248.7 0 213.2 0C177.7 0 142.3 0 106.8 0C71.3 0 35.7 0 17.8 0L0 0Z" fill="#e0dcdc"></path><path d="M0 61L17.8 60.2C35.7 59.3 71.3 57.7 106.8 58.3C142.3 59 177.7 62 213.2 63.3C248.7 64.7 284.3 64.3 320 64.2C355.7 64 391.3 64 426.8 62C462.3 60 497.7 56 533.2 53.8C568.7 51.7 604.3 51.3 640 51.2C675.7 51 711.3 51 746.8 53.2C782.3 55.3 817.7 59.7 853.2 60.5C888.7 61.3 924.3 58.7 942.2 57.3L960 56L960 0L942.2 0C924.3 0 888.7 0 853.2 0C817.7 0 782.3 0 746.8 0C711.3 0 675.7 0 640 0C604.3 0 568.7 0 533.2 0C497.7 0 462.3 0 426.8 0C391.3 0 355.7 0 320 0C284.3 0 248.7 0 213.2 0C177.7 0 142.3 0 106.8 0C71.3 0 35.7 0 17.8 0L0 0Z" fill="#bfb9bb"></path><path d="M0 62L17.8 60.3C35.7 58.7 71.3 55.3 106.8 51.3C142.3 47.3 177.7 42.7 213.2 44.3C248.7 46 284.3 54 320 55.7C355.7 57.3 391.3 52.7 426.8 50.5C462.3 48.3 497.7 48.7 533.2 50.5C568.7 52.3 604.3 55.7 640 53.8C675.7 52 711.3 45 746.8 45C782.3 45 817.7 52 853.2 53.7C888.7 55.3 924.3 51.7 942.2 49.8L960 48L960 0L942.2 0C924.3 0 888.7 0 853.2 0C817.7 0 782.3 0 746.8 0C711.3 0 675.7 0 640 0C604.3 0 568.7 0 533.2 0C497.7 0 462.3 0 426.8 0C391.3 0 355.7 0 320 0C284.3 0 248.7 0 213.2 0C177.7 0 142.3 0 106.8 0C71.3 0 35.7 0 17.8 0L0 0Z" fill="#9f979c"></path><path d="M0 48L17.8 45.7C35.7 43.3 71.3 38.7 106.8 38.3C142.3 38 177.7 42 213.2 43.3C248.7 44.7 284.3 43.3 320 43.7C355.7 44 391.3 46 426.8 43.5C462.3 41 497.7 34 533.2 30.7C568.7 27.3 604.3 27.7 640 30.8C675.7 34 711.3 40 746.8 42.8C782.3 45.7 817.7 45.3 853.2 43C888.7 40.7 924.3 36.3 942.2 34.2L960 32L960 0L942.2 0C924.3 0 888.7 0 853.2 0C817.7 0 782.3 0 746.8 0C711.3 0 675.7 0 640 0C604.3 0 568.7 0 533.2 0C497.7 0 462.3 0 426.8 0C391.3 0 355.7 0 320 0C284.3 0 248.7 0 213.2 0C177.7 0 142.3 0 106.8 0C71.3 0 35.7 0 17.8 0L0 0Z" fill="#7d777f"></path><path d="M0 32L17.8 31.2C35.7 30.3 71.3 28.7 106.8 29C142.3 29.3 177.7 31.7 213.2 32C248.7 32.3 284.3 30.7 320 27.8C355.7 25 391.3 21 426.8 20.7C462.3 20.3 497.7 23.7 533.2 26.2C568.7 28.7 604.3 30.3 640 29.8C675.7 29.3 711.3 26.7 746.8 26.7C782.3 26.7 817.7 29.3 853.2 31C888.7 32.7 924.3 33.3 942.2 33.7L960 34L960 0L942.2 0C924.3 0 888.7 0 853.2 0C817.7 0 782.3 0 746.8 0C711.3 0 675.7 0 640 0C604.3 0 568.7 0 533.2 0C497.7 0 462.3 0 426.8 0C391.3 0 355.7 0 320 0C284.3 0 248.7 0 213.2 0C177.7 0 142.3 0 106.8 0C71.3 0 35.7 0 17.8 0L0 0Z" fill="#5b5963"></path><path d="M0 8L17.8 9.3C35.7 10.7 71.3 13.3 106.8 14.2C142.3 15 177.7 14 213.2 13.7C248.7 13.3 284.3 13.7 320 15.2C355.7 16.7 391.3 19.3 426.8 18.3C462.3 17.3 497.7 12.7 533.2 12.3C568.7 12 604.3 16 640 17.3C675.7 18.7 711.3 17.3 746.8 17.3C782.3 17.3 817.7 18.7 853.2 18.2C888.7 17.7 924.3 15.3 942.2 14.2L960 13L960 0L942.2 0C924.3 0 888.7 0 853.2 0C817.7 0 782.3 0 746.8 0C711.3 0 675.7 0 640 0C604.3 0 568.7 0 533.2 0C497.7 0 462.3 0 426.8 0C391.3 0 355.7 0 320 0C284.3 0 248.7 0 213.2 0C177.7 0 142.3 0 106.8 0C71.3 0 35.7 0 17.8 0L0 0Z" fill="#393d48"></path></svg>