<svg id="visual" viewBox="0 0 1903 1830" width="1903" height="1830" xmlns="http://www.w3.org/2000/svg" xmlns:xlink="http://www.w3.org/1999/xlink" version="1.1"><rect x="0" y="0" width="1903" height="1830" fill="#faf8f7"></rect><path d="M0 108L45.3 105.2C90.7 102.3 181.3 96.7 272 100.2C362.7 103.7 453.3 116.3 544 117.8C634.7 119.3 725.3 109.7 815.8 111.7C906.3 113.7 996.7 127.3 1087.2 129.8C1177.7 132.3 1268.3 123.7 1359 124.2C1449.7 124.7 1540.3 134.3 1631 130.8C1721.7 127.3 1812.3 110.7 1857.7 102.3L1903 94L1903 0L1857.7 0C1812.3 0 1721.7 0 1631 0C1540.3 0 1449.7 0 1359 0C1268.3 0 1177.7 0 1087.2 0C996.7 0 906.3 0 815.8 0C725.3 0 634.7 0 544 0C453.3 0 362.7 0 272 0C181.3 0 90.7 0 45.3 0L0 0Z" fill="#5c616c"></path><path d="M0 121L45.3 115C90.7 109 181.3 97 272 95.5C362.7 94 453.3 103 544 106.2C634.7 109.3 725.3 106.7 815.8 104.5C906.3 102.3 996.7 100.7 1087.2 103.7C1177.7 106.7 1268.3 114.3 1359 115C1449.7 115.7 1540.3 109.3 1631 105.3C1721.7 101.3 1812.3 99.7 1857.7 98.8L1903 98L1903 0L1857.7 0C1812.3 0 1721.7 0 1631 0C1540.3 0 1449.7 0 1359 0C1268.3 0 1177.7 0 1087.2 0C996.7 0 906.3 0 815.8 0C725.3 0 634.7 0 544 0C453.3 0 362.7 0 272 0C181.3 0 90.7 0 45.3 0L0 0Z" fill="#4a4f5a"></path><path d="M0 53L45.3 54.5C90.7 56 181.3 59 272 59C362.7 59 453.3 56 544 61.7C634.7 67.3 725.3 81.7 815.8 82C906.3 82.3 996.7 68.7 1087.2 63.5C1177.7 58.3 1268.3 61.7 1359 62.2C1449.7 62.7 1540.3 60.3 1631 62.2C1721.7 64 1812.3 70 1857.7 73L1903 76L1903 0L1857.7 0C1812.3 0 1721.7 0 1631 0C1540.3 0 1449.7 0 1359 0C1268.3 0 1177.7 0 1087.2 0C996.7 0 906.3 0 815.8 0C725.3 0 634.7 0 544 0C453.3 0 362.7 0 272 0C181.3 0 90.7 0 45.3 0L0 0Z" fill="#393d48"></path><path d="M0 57L45.3 54.3C90.7 51.7 181.3 46.3 272 45.7C362.7 45 453.3 49 544 50.5C634.7 52 725.3 51 815.8 48.7C906.3 46.3 996.7 42.7 1087.2 45.3C1177.7 48 1268.3 57 1359 57C1449.7 57 1540.3 48 1631 45.7C1721.7 43.3 1812.3 47.7 1857.7 49.8L1903 52L1903 0L1857.7 0C1812.3 0 1721.7 0 1631 0C1540.3 0 1449.7 0 1359 0C1268.3 0 1177.7 0 1087.2 0C996.7 0 906.3 0 815.8 0C725.3 0 634.7 0 544 0C453.3 0 362.7 0 272 0C181.3 0 90.7 0 45.3 0L0 0Z" fill="#32353e"></path><path d="M0 35L45.3 34.7C90.7 34.3 181.3 33.7 272 33.2C362.7 32.7 453.3 32.3 544 31.7C634.7 31 725.3 30 815.8 31.8C906.3 33.7 996.7 38.3 1087.2 37C1177.7 35.7 1268.3 28.3 1359 26C1449.7 23.7 1540.3 26.3 1631 29.7C1721.7 33 1812.3 37 1857.7 39L1903 41L1903 0L1857.7 0C1812.3 0 1721.7 0 1631 0C1540.3 0 1449.7 0 1359 0C1268.3 0 1177.7 0 1087.2 0C996.7 0 906.3 0 815.8 0C725.3 0 634.7 0 544 0C453.3 0 362.7 0 272 0C181.3 0 90.7 0 45.3 0L0 0Z" fill="#2b2d35"></path></svg>