<?xml version="1.0" encoding="UTF-8" standalone="no" ?>
<!DOCTYPE svg PUBLIC "-//W3C//DTD SVG 1.1//EN" "http://www.w3.org/Graphics/SVG/1.1/DTD/svg11.dtd">
<svg xmlns="http://www.w3.org/2000/svg" xmlns:xlink="http://www.w3.org/1999/xlink" version="1.1" width="500" height="500" viewBox="0 0 500 500" xml:space="preserve">
<desc>Created with Fabric.js 4.6.0</desc>
<defs>
</defs>
<g transform="matrix(0.6 0 0 0.6 258.06 261.76)" id="QAEPzzRd3fmTKL8Zc5kF5"  >
<path style="stroke: none; stroke-width: 0; stroke-dasharray: none; stroke-linecap: butt; stroke-dashoffset: 0; stroke-linejoin: miter; stroke-miterlimit: 4; fill: none; fill-rule: nonzero; opacity: 1;" vector-effect="non-scaling-stroke"  transform=" translate(-512, -512)" d="M 0 1024 L 0 0 L 1024 0 L 1024 1024 z" stroke-linecap="round" />
</g>
<g transform="matrix(0.6 0 0 0.6 170.2 550.4)" id="6LaXzrgDDf28MwyrICGZl"  >
<path style="stroke: none; stroke-width: 0; stroke-dasharray: none; stroke-linecap: butt; stroke-dashoffset: 0; stroke-linejoin: miter; stroke-miterlimit: 4; fill: rgb(0,0,0); fill-rule: nonzero; opacity: 1;" vector-effect="non-scaling-stroke"  transform=" translate(-367.32, -996.92)" d="M 368.688 993.664 C 368.346 992.9689999999999 367.836 992.621 367.152 992.621 C 366.82599999999996 992.621 366.537 992.732 366.28 992.961 C 366.025 993.19 365.895 993.469 365.895 993.793 C 365.895 994.098 365.996 994.357 366.188 994.57 C 366.388 994.7750000000001 366.655 994.976 366.998 995.158 C 367.21999999999997 995.263 367.39099999999996 995.347 367.51099999999997 995.4 C 367.63 995.463 367.82399999999996 995.5559999999999 368.10099999999994 995.6709999999999 C 368.23599999999993 995.737 368.3589999999999 995.7959999999999 368.45799999999997 995.8169999999999 C 368.55899999999997 995.8599999999999 368.63399999999996 995.8909999999998 368.688 995.9259999999999 C 369.543 996.309 370.219 996.7639999999999 370.712 997.2719999999999 C 371.209 997.7839999999999 371.459 998.467 371.459 999.3109999999999 C 371.459 1000.4279999999999 371.051 1001.372 370.229 1002.1329999999999 C 369.424 1002.8829999999999 368.45799999999997 1003.2539999999999 367.332 1003.2539999999999 C 366.868 1003.2539999999999 366.424 1003.1929999999999 366 1003.0659999999999 C 365.571 1002.9369999999999 365.17 1002.7629999999999 364.805 1002.5229999999999 C 364.438 1002.3019999999999 364.115 1002.0229999999999 363.834 1001.689 C 363.55400000000003 1001.351 363.329 1000.9879999999999 363.17900000000003 1000.578 L 365.15200000000004 999.689 C 365.718 1000.709 366.439 1001.212 367.333 1001.212 C 367.69300000000004 1001.212 368.02500000000003 1001.12 368.331 1000.925 C 368.635 1000.728 368.865 1000.486 369.01 1000.183 C 369.15299999999996 999.89 369.18399999999997 999.572 369.101 999.216 C 369.016 998.872 368.752 998.542 368.305 998.234 L 366.047 997.046 C 365.658 996.841 365.31300000000005 996.638 365.02500000000003 996.4290000000001 C 364.73300000000006 996.2300000000001 364.49500000000006 996.013 364.307 995.7900000000001 C 364.11600000000004 995.5540000000001 363.97700000000003 995.2980000000001 363.885 995.022 C 363.791 994.7470000000001 363.739 994.417 363.739 994.042 C 363.739 993.073 364.08599999999996 992.259 364.772 991.597 C 365.449 990.915 366.286 990.581 367.282 990.581 C 368.782 990.581 369.878 991.278 370.55899999999997 992.669 L 368.688 993.664 z" stroke-linecap="round" />
</g>
<g transform="matrix(0.6 0 0 0.6 181.01 552.32)" id="DTVhX3GHS2Tcx_VTh-XD-"  >
<path style="stroke: none; stroke-width: 0; stroke-dasharray: none; stroke-linecap: butt; stroke-dashoffset: 0; stroke-linejoin: miter; stroke-miterlimit: 4; fill: rgb(0,0,0); fill-rule: nonzero; opacity: 1;" vector-effect="non-scaling-stroke"  transform=" translate(-385.36, -1000.13)" d="M 391.447 1002.623 C 391.447 1004.859 391.015 1006.596 390.162 1007.84 C 389.308 1009.0590000000001 387.78299999999996 1009.668 385.59999999999997 1009.668 C 383.90999999999997 1009.668 382.52599999999995 1009.188 381.45 1008.215 C 380.388 1007.248 379.842 1005.938 379.808 1004.2660000000001 L 382.113 1004.2660000000001 C 382.113 1005.344 382.447 1006.1700000000001 383.104 1006.758 C 383.75899999999996 1007.342 384.631 1007.635 385.705 1007.635 C 387.02299999999997 1007.635 387.92199999999997 1007.248 388.40999999999997 1006.487 C 388.89799999999997 1005.721 389.13599999999997 1004.6469999999999 389.13599999999997 1003.257 L 389.13599999999997 1000.991 L 389.08599999999996 1000.991 C 388.60599999999994 1001.704 388.013 1002.257 387.30899999999997 1002.657 C 386.59599999999995 1003.057 385.83399999999995 1003.2570000000001 385.01199999999994 1003.2570000000001 C 383.23299999999995 1003.2570000000001 381.83199999999994 1002.6400000000001 380.80699999999996 1001.402 C 379.782 1000.1560000000001 379.27399999999994 998.6360000000001 379.27399999999994 996.8180000000001 C 379.27399999999994 995.1050000000001 379.79099999999994 993.6500000000001 380.83299999999997 992.4430000000001 C 381.87899999999996 991.2070000000001 383.23299999999995 990.5860000000001 384.91299999999995 990.5860000000001 C 386.67499999999995 990.5860000000001 388.06299999999993 991.3890000000001 389.08699999999993 992.9750000000001 L 389.13699999999994 992.9750000000001 L 389.13699999999994 990.9360000000001 L 391.44899999999996 990.9360000000001 L 391.44899999999996 1002.623 z M 385.371 1001.215 C 386.58599999999996 1001.215 387.53299999999996 1000.801 388.21299999999997 999.9730000000001 C 388.91299999999995 999.1250000000001 389.26599999999996 998.0980000000001 389.26599999999996 996.8950000000001 C 389.26599999999996 995.7110000000001 388.91299999999995 994.6980000000001 388.21299999999997 993.8660000000001 C 387.53299999999996 993.0400000000001 386.58599999999996 992.6220000000001 385.371 992.6220000000001 C 384.227 992.6220000000001 383.305 993.0440000000001 382.603 993.8900000000001 C 381.918 994.7260000000001 381.576 995.7280000000001 381.576 996.8960000000001 C 381.576 998.099 381.91900000000004 999.1210000000001 382.603 999.9490000000001 C 383.305 1000.797 384.228 1001.215 385.371 1001.215" stroke-linecap="round" />
</g>
<g transform="matrix(0.6 0 0 0.6 189.51 550.27)" id="nUj1h3BH4SPCZ1nauEmXn"  >
<path style="stroke: none; stroke-width: 0; stroke-dasharray: none; stroke-linecap: butt; stroke-dashoffset: 0; stroke-linejoin: miter; stroke-miterlimit: 4; fill: rgb(0,0,0); fill-rule: nonzero; opacity: 1;" vector-effect="non-scaling-stroke"  transform=" translate(-399.56, -996.71)" d="M 396.754 992.547 L 396.802 992.547 C 397.14000000000004 991.912 397.63500000000005 991.432 398.28900000000004 991.094 C 398.93600000000004 990.7520000000001 399.64300000000003 990.5840000000001 400.41400000000004 990.5840000000001 C 401.19900000000007 990.5840000000001 401.86300000000006 990.705 402.41800000000006 990.9340000000001 C 402.96100000000007 991.1780000000001 403.4000000000001 991.5160000000001 403.73100000000005 991.9590000000001 C 404.06700000000006 992.4000000000001 404.309 992.9380000000001 404.4510000000001 993.5720000000001 C 404.5970000000001 994.2070000000001 404.6700000000001 994.9330000000001 404.6700000000001 995.7460000000001 L 404.6700000000001 1002.844 L 402.3640000000001 1002.844 L 402.3640000000001 996.028 C 402.3640000000001 994.856 402.1880000000001 993.995 401.8510000000001 993.456 C 401.5060000000001 992.897 400.7990000000001 992.6220000000001 399.7220000000001 992.6220000000001 C 399.3290000000001 992.6220000000001 398.9940000000001 992.6550000000001 398.7240000000001 992.7330000000001 C 398.4500000000001 992.8090000000001 398.2110000000001 992.9190000000001 398.0060000000001 993.065 C 397.8010000000001 993.2130000000001 397.6310000000001 993.3760000000001 397.4920000000001 993.557 C 397.3590000000001 993.75 397.22800000000007 993.948 397.1090000000001 994.174 C 397.0580000000001 994.2909999999999 397.0070000000001 994.449 396.9630000000001 994.629 C 396.9200000000001 994.817 396.88700000000006 995.008 396.8540000000001 995.205 C 396.8210000000001 995.4000000000001 396.7880000000001 995.594 396.7750000000001 995.793 C 396.7600000000001 995.986 396.7540000000001 996.145 396.7540000000001 996.256 L 396.7540000000001 997.375 L 396.7540000000001 1002.844 L 394.44500000000005 1002.844 L 394.44500000000005 990.9340000000001 L 396.7540000000001 990.9340000000001 L 396.7540000000001 992.547 z" stroke-linecap="round" />
</g>
<g transform="matrix(0.6 0 0 0.6 202.45 547.46)" id="MYnUqibFFtdaqe6C1XMDO"  >
<path style="stroke: none; stroke-width: 0; stroke-dasharray: none; stroke-linecap: butt; stroke-dashoffset: 0; stroke-linejoin: miter; stroke-miterlimit: 4; fill: rgb(0,0,0); fill-rule: nonzero; opacity: 1;" vector-effect="non-scaling-stroke"  transform=" translate(-421.16, -992.01)" d="M 415.073 980.758 L 417.378 980.758 L 417.378 992.922 L 417.428 992.922 C 418.489 991.363 419.883 990.5840000000001 421.608 990.5840000000001 C 423.28000000000003 990.5840000000001 424.636 991.205 425.684 992.441 C 426.72400000000005 993.648 427.245 995.1030000000001 427.245 996.816 C 427.245 998.634 426.733 1000.154 425.714 1001.4 C 424.685 1002.638 423.28 1003.255 421.505 1003.255 C 420.689 1003.255 419.918 1003.056 419.21 1002.655 C 418.50199999999995 1002.2539999999999 417.909 1001.702 417.429 1000.9889999999999 L 417.37899999999996 1000.9889999999999 L 417.37899999999996 1002.843 L 415.07399999999996 1002.843 L 415.07399999999996 980.758 z M 421.047 1001.215 C 422.257 1001.215 423.20300000000003 1000.801 423.889 999.9730000000001 C 424.59000000000003 999.1250000000001 424.938 998.0980000000001 424.938 996.8950000000001 C 424.938 995.7110000000001 424.59 994.6980000000001 423.889 993.8660000000001 C 423.20300000000003 993.0400000000001 422.257 992.6220000000001 421.047 992.6220000000001 C 419.899 992.6220000000001 418.97700000000003 993.0440000000001 418.276 993.8900000000001 C 417.595 994.7260000000001 417.249 995.7280000000001 417.249 996.8960000000001 C 417.249 998.099 417.596 999.1210000000001 418.276 999.9490000000001 C 418.977 1000.797 419.898 1001.215 421.047 1001.215" stroke-linecap="round" />
</g>
<g transform="matrix(0.6 0 0 0.6 210.22 552.42)" id="lPsvpmRlgIhisW_CCp-LG"  >
<path style="stroke: none; stroke-width: 0; stroke-dasharray: none; stroke-linecap: butt; stroke-dashoffset: 0; stroke-linejoin: miter; stroke-miterlimit: 4; fill: rgb(0,0,0); fill-rule: nonzero; opacity: 1;" vector-effect="non-scaling-stroke"  transform=" translate(-434.13, -1000.3)" d="M 427.577 990.934 L 430.271 990.934 L 434.31600000000003 998.4939999999999 L 438.08000000000004 990.934 L 440.67300000000006 990.934 L 430.95900000000006 1009.668 L 428.35200000000003 1009.668 L 433.06300000000005 1000.816 z" stroke-linecap="round" />
</g>
<g transform="matrix(0.6 0 0 0.6 223.77 547.96)" id="p3niU6I3AlSy39QEMstyc"  >
<path style="stroke: none; stroke-width: 0; stroke-dasharray: none; stroke-linecap: butt; stroke-dashoffset: 0; stroke-linejoin: miter; stroke-miterlimit: 4; fill: rgb(0,0,0); fill-rule: nonzero; opacity: 1;" vector-effect="non-scaling-stroke"  transform=" translate(-456.75, -992.85)" d="M 452.31 998.035 L 450.107 1002.8439999999999 L 447.51800000000003 1002.8439999999999 L 456.74300000000005 982.8539999999999 L 465.97200000000004 1002.8439999999999 L 463.379 1002.8439999999999 L 461.17600000000004 998.035 L 452.31 998.035 z M 456.742 988.088 L 453.307 995.848 L 460.177 995.848 L 456.742 988.088 z" stroke-linecap="round" />
</g>
<g transform="matrix(0.6 0 0 0.6 230.85 547.33)" id="1zCxKxqItTzobOdhLCIL6"  >
<path style="stroke: none; stroke-width: 0; stroke-dasharray: none; stroke-linecap: butt; stroke-dashoffset: 0; stroke-linejoin: miter; stroke-miterlimit: 4; fill: rgb(0,0,0); fill-rule: nonzero; opacity: 1;" vector-effect="non-scaling-stroke"  transform=" translate(-1.15, -11.04)" d="M 0 22.086 L 0 0 L 2.305 0 L 2.305 22.086 z" stroke-linecap="round" />
</g>
<g transform="matrix(0.6 0 0 0.6 234.26 547.33)" id="ap35gzBGmlMcawn8W3nE2"  >
<path style="stroke: none; stroke-width: 0; stroke-dasharray: none; stroke-linecap: butt; stroke-dashoffset: 0; stroke-linejoin: miter; stroke-miterlimit: 4; fill: rgb(0,0,0); fill-rule: nonzero; opacity: 1;" vector-effect="non-scaling-stroke"  transform=" translate(-1.15, -11.04)" d="M 0 22.086 L 0 0 L 2.309 0 L 2.309 22.086 z" stroke-linecap="round" />
</g>
<g transform="matrix(0.6 0 0 0.6 238.52 549.06)" id="UgEmikosIUKmiG4QvOmLg"  >
<path style="stroke: none; stroke-width: 0; stroke-dasharray: none; stroke-linecap: butt; stroke-dashoffset: 0; stroke-linejoin: miter; stroke-miterlimit: 4; fill: rgb(0,0,0); fill-rule: nonzero; opacity: 1;" vector-effect="non-scaling-stroke"  transform=" translate(-2.8, -0.95)" d="M 0 1.91 L 0 0 L 5.608 0 L 5.608 1.91 z" stroke-linecap="round" />
</g>
<g transform="matrix(0.6 0 0 0.6 243.62 547.24)" id="UyciLKfY8KYAiDHRb1DT-"  >
<path style="stroke: none; stroke-width: 0; stroke-dasharray: none; stroke-linecap: butt; stroke-dashoffset: 0; stroke-linejoin: miter; stroke-miterlimit: 4; fill: rgb(0,0,0); fill-rule: nonzero; opacity: 1;" vector-effect="non-scaling-stroke"  transform=" translate(-489.89, -991.65)" d="M 493.156 983.074 C 492.44100000000003 982.7579999999999 491.926 982.5949999999999 491.625 982.5949999999999 C 491.129 982.5949999999999 490.764 982.7449999999999 490.546 983.0659999999999 C 490.32099999999997 983.377 490.17199999999997 983.7669999999999 490.081 984.2219999999999 C 490.035 984.5599999999998 490.002 984.8269999999999 489.992 985.0329999999999 C 489.98400000000004 985.2209999999999 489.98 985.4919999999998 489.98 985.8299999999999 L 489.98 990.934 L 493.156 990.934 L 493.156 993.077 L 489.98 993.077 L 489.98 1002.845 L 487.673 1002.845 L 487.673 993.077 L 486.623 993.077 L 486.623 990.934 L 487.673 990.934 L 487.673 985.137 C 487.673 982.016 488.963 980.457 491.545 980.457 C 492.107 980.457 492.646 980.562 493.15500000000003 980.758 L 493.15500000000003 983.074 z" stroke-linecap="round" />
</g>
<g transform="matrix(0.6 0 0 0.6 248.59 550.27)" id="e7DbdB-eMIG-Skq4St21e"  >
<path style="stroke: none; stroke-width: 0; stroke-dasharray: none; stroke-linecap: butt; stroke-dashoffset: 0; stroke-linejoin: miter; stroke-miterlimit: 4; fill: rgb(0,0,0); fill-rule: nonzero; opacity: 1;" vector-effect="non-scaling-stroke"  transform=" translate(-498.2, -996.71)" d="M 496.719 992.871 L 496.793 992.871 C 497.088 992.168 497.516 991.6 498.07800000000003 991.197 C 498.641 990.787 499.309 990.584 500.07800000000003 990.584 C 500.71200000000005 990.584 501.34200000000004 990.775 501.97600000000006 991.17 L 500.92400000000004 993.256 C 500.54800000000006 992.93 500.07700000000006 992.776 499.51200000000006 992.776 C 498.33600000000007 992.776 497.5520000000001 993.2529999999999 497.15900000000005 994.1999999999999 C 496.98500000000007 994.641 496.86600000000004 995.0809999999999 496.80800000000005 995.507 C 496.749 995.9369999999999 496.71700000000004 996.433 496.71700000000004 996.997 L 496.71700000000004 1002.8449999999999 L 494.41600000000005 1002.8449999999999 L 494.41600000000005 990.935 L 496.71700000000004 990.935 L 496.71700000000004 992.871 z" stroke-linecap="round" />
</g>
<g transform="matrix(0.6 0 0 0.6 254.5 550.4)" id="8Ga_lqVzDnkjVGlYFKvuN"  >
<path style="stroke: none; stroke-width: 0; stroke-dasharray: none; stroke-linecap: butt; stroke-dashoffset: 0; stroke-linejoin: miter; stroke-miterlimit: 4; fill: rgb(0,0,0); fill-rule: nonzero; opacity: 1;" vector-effect="non-scaling-stroke"  transform=" translate(-508.06, -996.92)" d="M 504.64 997.273 C 504.674 998.339 505.012 999.269 505.666 1000.058 C 506.33 1000.831 507.194 1001.2139999999999 508.25 1001.2139999999999 C 509.094 1001.2139999999999 509.777 1001.0319999999999 510.316 1000.646 C 510.85499999999996 1000.2629999999999 511.359 999.683 511.844 998.8979999999999 L 513.788 999.9999999999999 C 513.225 1001.0139999999999 512.453 1001.8129999999999 511.468 1002.3929999999999 C 510.49100000000004 1002.9669999999999 509.40500000000003 1003.256 508.228 1003.256 C 506.43 1003.256 505.002 1002.664 503.925 1001.475 C 502.862 1000.264 502.33 998.774 502.33 996.996 C 502.33 995.111 502.83599999999996 993.572 503.84999999999997 992.365 C 504.835 991.177 506.27899999999994 990.5840000000001 508.174 990.5840000000001 C 510.02299999999997 990.5840000000001 511.41299999999995 991.1780000000001 512.353 992.365 C 513.313 993.553 513.789 995.072 513.789 996.922 L 513.789 997.274 L 504.64 997.274 z M 511.485 995.553 C 511.34200000000004 994.629 510.992 993.899 510.41200000000003 993.371 C 509.84600000000006 992.838 509.098 992.566 508.175 992.566 C 507.737 992.566 507.321 992.642 506.93600000000004 992.787 C 506.552 992.9300000000001 506.20900000000006 993.135 505.90900000000005 993.4060000000001 C 505.61300000000006 993.681 505.36300000000006 993.994 505.17100000000005 994.365 C 504.97600000000006 994.7280000000001 504.83700000000005 995.127 504.7710000000001 995.553 L 511.485 995.553 z" stroke-linecap="round" />
</g>
<g transform="matrix(0.6 0 0 0.6 261.99 550.4)" id="7-qxU8mLoBEFiALealHA9"  >
<path style="stroke: none; stroke-width: 0; stroke-dasharray: none; stroke-linecap: butt; stroke-dashoffset: 0; stroke-linejoin: miter; stroke-miterlimit: 4; fill: rgb(0,0,0); fill-rule: nonzero; opacity: 1;" vector-effect="non-scaling-stroke"  transform=" translate(-520.57, -996.92)" d="M 517.146 997.273 C 517.183 998.339 517.526 999.269 518.1719999999999 1000.058 C 518.8359999999999 1000.831 519.6999999999999 1001.2139999999999 520.7599999999999 1001.2139999999999 C 521.5959999999999 1001.2139999999999 522.2879999999999 1001.0319999999999 522.8229999999999 1000.646 C 523.3599999999999 1000.2629999999999 523.8749999999999 999.683 524.3499999999999 998.8979999999999 L 526.2989999999999 999.9999999999999 C 525.7269999999999 1001.0139999999999 524.9589999999998 1001.8129999999999 523.9789999999998 1002.3929999999999 C 522.9929999999998 1002.9669999999999 521.9089999999998 1003.256 520.7349999999998 1003.256 C 518.9409999999998 1003.256 517.5079999999998 1002.664 516.4279999999998 1001.475 C 515.3669999999997 1000.264 514.8459999999998 998.774 514.8459999999998 996.996 C 514.8459999999998 995.111 515.3459999999998 993.572 516.3479999999997 992.365 C 517.3379999999997 991.177 518.7889999999998 990.5840000000001 520.6899999999997 990.5840000000001 C 522.5299999999997 990.5840000000001 523.9239999999998 991.1780000000001 524.8599999999997 992.365 C 525.8199999999997 993.553 526.2989999999996 995.072 526.2989999999996 996.922 L 526.2989999999996 997.274 L 517.146 997.274 z M 523.995 995.553 C 523.852 994.629 523.502 993.899 522.926 993.371 C 522.35 992.838 521.604 992.566 520.69 992.566 C 520.239 992.566 519.821 992.642 519.442 992.787 C 519.057 992.9300000000001 518.719 993.135 518.415 993.4060000000001 C 518.1189999999999 993.681 517.8639999999999 993.994 517.673 994.365 C 517.472 994.7280000000001 517.339 995.127 517.277 995.553 L 523.995 995.553 z" stroke-linecap="round" />
</g>
<g transform="matrix(0.6 0 0 0.6 268.21 549.06)" id="dEe7WKSdpJAU2BMybGYeU"  >
<path style="stroke: none; stroke-width: 0; stroke-dasharray: none; stroke-linecap: butt; stroke-dashoffset: 0; stroke-linejoin: miter; stroke-miterlimit: 4; fill: rgb(0,0,0); fill-rule: nonzero; opacity: 1;" vector-effect="non-scaling-stroke"  transform=" translate(-2.8, -0.95)" d="M 0 1.91 L 0 0 L 5.605 0 L 5.605 1.91 z" stroke-linecap="round" />
</g>
<g transform="matrix(0.6 0 0 0.6 274.79 547.46)" id="TmFmkz81L-N7XVP1kV4pO"  >
<path style="stroke: none; stroke-width: 0; stroke-dasharray: none; stroke-linecap: butt; stroke-dashoffset: 0; stroke-linejoin: miter; stroke-miterlimit: 4; fill: rgb(0,0,0); fill-rule: nonzero; opacity: 1;" vector-effect="non-scaling-stroke"  transform=" translate(-541.94, -992.01)" d="M 545.725 1000.99 L 545.6700000000001 1000.99 C 545.191 1001.703 544.6020000000001 1002.256 543.8890000000001 1002.6560000000001 C 543.1780000000001 1003.056 542.4150000000001 1003.2560000000001 541.5960000000001 1003.2560000000001 C 539.8150000000002 1003.2560000000001 538.4160000000002 1002.6390000000001 537.3940000000001 1001.4010000000001 C 536.3680000000002 1000.1550000000001 535.8580000000002 998.6350000000001 535.8580000000002 996.8170000000001 C 535.8580000000002 995.1040000000002 536.3760000000002 993.6490000000001 537.4220000000001 992.4420000000001 C 538.4630000000002 991.2060000000001 539.8150000000002 990.5850000000002 541.4880000000002 990.5850000000002 C 543.2170000000002 990.5850000000002 544.6100000000001 991.3640000000001 545.6700000000002 992.9230000000001 L 545.7250000000001 992.9230000000001 L 545.7250000000001 980.7590000000001 L 548.0300000000001 980.7590000000001 L 548.0300000000001 1002.8450000000001 L 545.7250000000001 1002.8450000000001 L 545.7250000000001 1000.99 z M 541.951 1001.215 C 543.1700000000001 1001.215 544.113 1000.801 544.799 999.9730000000001 C 545.494 999.1250000000001 545.85 998.0980000000001 545.85 996.8950000000001 C 545.85 995.7110000000001 545.495 994.6980000000001 544.799 993.8660000000001 C 544.1129999999999 993.0400000000001 543.17 992.6220000000001 541.951 992.6220000000001 C 540.812 992.6220000000001 539.889 993.0440000000001 539.183 993.8900000000001 C 538.499 994.7260000000001 538.161 995.7280000000001 538.161 996.8960000000001 C 538.161 998.099 538.5 999.1210000000001 539.183 999.9490000000001 C 539.89 1000.797 540.813 1001.215 541.951 1001.215" stroke-linecap="round" />
</g>
<g transform="matrix(0.6 0 0 0.6 283.43 550.4)" id="K7JlaPBpMNgOU8rRHA_cR"  >
<path style="stroke: none; stroke-width: 0; stroke-dasharray: none; stroke-linecap: butt; stroke-dashoffset: 0; stroke-linejoin: miter; stroke-miterlimit: 4; fill: rgb(0,0,0); fill-rule: nonzero; opacity: 1;" vector-effect="non-scaling-stroke"  transform=" translate(-556.36, -996.92)" d="M 551.795 992.408 C 553.0419999999999 991.197 554.5659999999999 990.5840000000001 556.357 990.5840000000001 C 558.1519999999999 990.5840000000001 559.6669999999999 991.1970000000001 560.89 992.408 C 562.137 993.635 562.76 995.142 562.76 996.922 C 562.76 998.703 562.137 1000.201 560.89 1001.424 C 559.6659999999999 1002.6469999999999 558.1519999999999 1003.256 556.357 1003.256 C 554.567 1003.256 553.043 1002.6469999999999 551.795 1001.424 C 550.5659999999999 1000.201 549.953 998.703 549.953 996.922 C 549.953 995.143 550.566 993.635 551.795 992.408 M 552.253 996.922 C 552.253 998.02 552.658 998.994 553.455 999.846 C 554.248 1000.664 555.217 1001.065 556.356 1001.065 C 557.484 1001.065 558.455 1000.6650000000001 559.252 999.846 C 560.055 998.994 560.459 998.02 560.459 996.922 C 560.459 995.797 560.055 994.8240000000001 559.252 993.994 C 558.4549999999999 993.1850000000001 557.4839999999999 992.7710000000001 556.356 992.7710000000001 C 555.216 992.7710000000001 554.248 993.1850000000001 553.455 993.994 C 552.658 994.824 552.253 995.797 552.253 996.922" stroke-linecap="round" />
</g>
<g transform="matrix(0.6 0 0 0.6 293.09 550.31)" id="S9_fJnGervJ2X1sF52ACX"  >
<path style="stroke: none; stroke-width: 0; stroke-dasharray: none; stroke-linecap: butt; stroke-dashoffset: 0; stroke-linejoin: miter; stroke-miterlimit: 4; fill: rgb(0,0,0); fill-rule: nonzero; opacity: 1;" vector-effect="non-scaling-stroke"  transform=" translate(-572.49, -996.77)" d="M 568.966 998.523 L 572.497 990.283 L 576.012 998.523 L 579.497 990.934 L 582.1139999999999 990.934 L 576.012 1003.256 L 572.497 995.297 L 568.966 1003.256 L 562.868 990.934 L 565.48 990.934 z" stroke-linecap="round" />
</g>
<g transform="matrix(0.6 0 0 0.6 302.6 550.27)" id="P6zBSgU8aF7D6Rk5iNgBP"  >
<path style="stroke: none; stroke-width: 0; stroke-dasharray: none; stroke-linecap: butt; stroke-dashoffset: 0; stroke-linejoin: miter; stroke-miterlimit: 4; fill: rgb(0,0,0); fill-rule: nonzero; opacity: 1;" vector-effect="non-scaling-stroke"  transform=" translate(-588.37, -996.71)" d="M 585.575 992.547 L 585.62 992.547 C 585.967 991.912 586.4590000000001 991.432 587.115 991.094 C 587.758 990.7520000000001 588.467 990.5840000000001 589.238 990.5840000000001 C 590.019 990.5840000000001 590.687 990.705 591.234 990.9340000000001 C 591.7810000000001 991.1780000000001 592.219 991.5160000000001 592.548 991.9590000000001 C 592.891 992.4000000000001 593.124 992.9380000000001 593.275 993.5720000000001 C 593.4209999999999 994.2070000000001 593.4879999999999 994.9330000000001 593.4879999999999 995.7460000000001 L 593.4879999999999 1002.844 L 591.183 1002.844 L 591.183 996.028 C 591.183 994.856 591.013 993.995 590.67 993.456 C 590.327 992.897 589.6179999999999 992.6220000000001 588.5409999999999 992.6220000000001 C 588.1529999999999 992.6220000000001 587.823 992.6550000000001 587.544 992.7330000000001 C 587.273 992.8090000000001 587.034 992.9190000000001 586.829 993.065 C 586.625 993.2130000000001 586.4499999999999 993.3760000000001 586.313 993.557 C 586.174 993.75 586.049 993.948 585.924 994.174 C 585.881 994.2909999999999 585.831 994.449 585.785 994.629 C 585.7479999999999 994.817 585.711 995.008 585.668 995.205 C 585.639 995.4000000000001 585.614 995.594 585.594 995.793 C 585.581 995.986 585.5730000000001 996.145 585.5730000000001 996.256 L 585.5730000000001 997.375 L 585.5730000000001 1002.844 L 583.2600000000001 1002.844 L 583.2600000000001 990.9340000000001 L 585.5730000000001 990.9340000000001 L 585.5730000000001 992.547 z" stroke-linecap="round" />
</g>
<g transform="matrix(0.6 0 0 0.6 308.32 547.33)" id="mDF_QokqSjRZ4mfWRUcQK"  >
<path style="stroke: none; stroke-width: 0; stroke-dasharray: none; stroke-linecap: butt; stroke-dashoffset: 0; stroke-linejoin: miter; stroke-miterlimit: 4; fill: rgb(0,0,0); fill-rule: nonzero; opacity: 1;" vector-effect="non-scaling-stroke"  transform=" translate(-1.15, -11.04)" d="M 0 22.086 L 0 0 L 2.305 0 L 2.305 22.086 z" stroke-linecap="round" />
</g>
<g transform="matrix(0.6 0 0 0.6 314.17 550.4)" id="ngQEx2j3GNrs2Xmkmbt-4"  >
<path style="stroke: none; stroke-width: 0; stroke-dasharray: none; stroke-linecap: butt; stroke-dashoffset: 0; stroke-linejoin: miter; stroke-miterlimit: 4; fill: rgb(0,0,0); fill-rule: nonzero; opacity: 1;" vector-effect="non-scaling-stroke"  transform=" translate(-607.69, -996.92)" d="M 603.127 992.408 C 604.3789999999999 991.197 605.8929999999999 990.5840000000001 607.688 990.5840000000001 C 609.479 990.5840000000001 610.991 991.1970000000001 612.227 992.408 C 613.478 993.635 614.096 995.142 614.096 996.922 C 614.096 998.703 613.478 1000.201 612.227 1001.424 C 610.991 1002.6469999999999 609.4789999999999 1003.256 607.688 1003.256 C 605.893 1003.256 604.379 1002.6469999999999 603.127 1001.424 C 601.891 1000.201 601.281 998.703 601.281 996.922 C 601.281 995.143 601.891 993.635 603.127 992.408 M 603.59 996.922 C 603.59 998.02 603.994 998.994 604.792 999.846 C 605.572 1000.664 606.5450000000001 1001.065 607.688 1001.065 C 608.8149999999999 1001.065 609.784 1000.6650000000001 610.585 999.846 C 611.3870000000001 998.994 611.787 998.02 611.787 996.922 C 611.787 995.797 611.3870000000001 994.8240000000001 610.585 993.994 C 609.783 993.1850000000001 608.8140000000001 992.7710000000001 607.688 992.7710000000001 C 606.545 992.7710000000001 605.573 993.1850000000001 604.792 993.994 C 603.994 994.824 603.59 995.797 603.59 996.922" stroke-linecap="round" />
</g>
<g transform="matrix(0.6 0 0 0.6 322.36 550.4)" id="Y-_zhttOShCeWB7HoSZGx"  >
<path style="stroke: none; stroke-width: 0; stroke-dasharray: none; stroke-linecap: butt; stroke-dashoffset: 0; stroke-linejoin: miter; stroke-miterlimit: 4; fill: rgb(0,0,0); fill-rule: nonzero; opacity: 1;" vector-effect="non-scaling-stroke"  transform=" translate(-621.36, -996.92)" d="M 627.447 1002.844 L 625.139 1002.844 L 625.139 1000.99 L 625.089 1000.99 C 624.067 1002.502 622.701 1003.256 621.0110000000001 1003.256 C 619.2550000000001 1003.256 617.8550000000001 1002.639 616.8040000000001 1001.401 C 615.7890000000001 1000.155 615.2810000000001 998.635 615.2810000000001 996.817 C 615.2810000000001 995.104 615.7950000000001 993.649 616.8420000000001 992.442 C 617.8870000000001 991.206 619.2460000000001 990.585 620.9370000000001 990.585 C 622.6440000000001 990.585 624.0350000000001 991.364 625.0900000000001 992.923 L 625.1400000000001 992.923 L 625.1400000000001 990.935 L 627.4480000000001 990.935 L 627.4480000000001 1002.844 z M 621.375 1001.215 C 622.586 1001.215 623.533 1000.801 624.218 999.9730000000001 C 624.918 999.1250000000001 625.266 998.0980000000001 625.266 996.8950000000001 C 625.266 995.7110000000001 624.918 994.6980000000001 624.218 993.8660000000001 C 623.533 993.0400000000001 622.586 992.6220000000001 621.375 992.6220000000001 C 620.227 992.6220000000001 619.305 993.0440000000001 618.607 993.8900000000001 C 617.923 994.7260000000001 617.581 995.7280000000001 617.581 996.8960000000001 C 617.581 998.099 617.924 999.1210000000001 618.607 999.9490000000001 C 619.305 1000.797 620.227 1001.215 621.375 1001.215" stroke-linecap="round" />
</g>
<g transform="matrix(0.6 0 0 0.6 330.89 547.46)" id="QhI4tSaYwlb7hynGeKQrp"  >
<path style="stroke: none; stroke-width: 0; stroke-dasharray: none; stroke-linecap: butt; stroke-dashoffset: 0; stroke-linejoin: miter; stroke-miterlimit: 4; fill: rgb(0,0,0); fill-rule: nonzero; opacity: 1;" vector-effect="non-scaling-stroke"  transform=" translate(-635.61, -992.01)" d="M 639.386 1000.99 L 639.331 1000.99 C 638.86 1001.703 638.263 1002.256 637.558 1002.6560000000001 C 636.852 1003.056 636.08 1003.2560000000001 635.262 1003.2560000000001 C 633.4849999999999 1003.2560000000001 632.0849999999999 1002.6390000000001 631.063 1001.4010000000001 C 630.036 1000.1550000000001 629.527 998.6350000000001 629.527 996.8170000000001 C 629.527 995.1040000000002 630.0450000000001 993.6490000000001 631.0880000000001 992.4420000000001 C 632.1320000000001 991.2060000000001 633.4850000000001 990.5850000000002 635.162 990.5850000000002 C 636.8910000000001 990.5850000000002 638.2760000000001 991.3640000000001 639.332 992.9230000000001 L 639.387 992.9230000000001 L 639.387 980.7590000000001 L 641.6999999999999 980.7590000000001 L 641.6999999999999 1002.8450000000001 L 639.387 1002.8450000000001 L 639.387 1000.99 z M 635.62 1001.215 C 636.84 1001.215 637.778 1000.801 638.467 999.9730000000001 C 639.164 999.1250000000001 639.515 998.0980000000001 639.515 996.8950000000001 C 639.515 995.7110000000001 639.164 994.6980000000001 638.467 993.8660000000001 C 637.779 993.0400000000001 636.84 992.6220000000001 635.62 992.6220000000001 C 634.476 992.6220000000001 633.55 993.0440000000001 632.853 993.8900000000001 C 632.168 994.7260000000001 631.822 995.7280000000001 631.822 996.8960000000001 C 631.822 998.099 632.169 999.1210000000001 632.853 999.9490000000001 C 633.55 1000.797 634.477 1001.215 635.62 1001.215" stroke-linecap="round" />
</g>
<g transform="matrix(0.6 0 0 0.6 337.61 553.31)" id="THK5X02przLd_PZIuJWFp"  >
<path style="stroke: none; stroke-width: 0; stroke-dasharray: none; stroke-linecap: butt; stroke-dashoffset: 0; stroke-linejoin: miter; stroke-miterlimit: 4; fill: rgb(0,0,0); fill-rule: nonzero; opacity: 1;" vector-effect="non-scaling-stroke"  transform=" translate(-646.82, -1001.78)" d="M 648.306 1001.779 C 648.306 1002.185 648.163 1002.543 647.8720000000001 1002.822 C 647.575 1003.109 647.2320000000001 1003.256 646.82 1003.256 C 646.4100000000001 1003.256 646.0540000000001 1003.11 645.768 1002.822 C 645.479 1002.543 645.3290000000001 1002.1850000000001 645.3290000000001 1001.779 C 645.3290000000001 1001.384 645.479 1001.0409999999999 645.768 1000.748 C 646.054 1000.4530000000001 646.4100000000001 1000.301 646.82 1000.301 C 647.2320000000001 1000.301 647.575 1000.4530000000001 647.8720000000001 1000.748 C 648.163 1001.041 648.306 1001.385 648.306 1001.779" stroke-linecap="round" />
</g>
<g transform="matrix(0.6 0 0 0.6 343.13 550.4)" id="DBX7M3_FURMjaYaSQEm0Q"  >
<path style="stroke: none; stroke-width: 0; stroke-dasharray: none; stroke-linecap: butt; stroke-dashoffset: 0; stroke-linejoin: miter; stroke-miterlimit: 4; fill: rgb(0,0,0); fill-rule: nonzero; opacity: 1;" vector-effect="non-scaling-stroke"  transform=" translate(-656.05, -996.92)" d="M 660.919 994.33 C 659.9549999999999 993.2560000000001 658.816 992.717 657.476 992.717 C 656.374 992.717 655.422 993.135 654.638 993.971 C 653.869 994.817 653.486 995.797 653.486 996.895 C 653.486 998.135 653.87 999.141 654.638 999.918 C 655.4390000000001 1000.719 656.441 1001.119 657.635 1001.119 C 658.865 1001.119 659.955 1000.5880000000001 660.919 999.541 L 660.919 1002.4630000000001 C 659.922 1002.9900000000001 658.824 1003.2560000000001 657.6129999999999 1003.2560000000001 C 655.8359999999999 1003.2560000000001 654.3119999999999 1002.6510000000001 653.0429999999999 1001.445 C 651.8029999999999 1000.263 651.1779999999999 998.773 651.1779999999999 996.9960000000001 C 651.1779999999999 995.1580000000001 651.8029999999999 993.6350000000001 653.0429999999999 992.4080000000001 C 654.2909999999999 991.1970000000001 655.8599999999999 990.5840000000002 657.7349999999999 990.5840000000002 C 658.9689999999999 990.5840000000002 660.026 990.8460000000001 660.9189999999999 991.3730000000002 L 660.9189999999999 994.33 z" stroke-linecap="round" />
</g>
<g transform="matrix(0.6 0 0 0.6 350.73 550.4)" id="fikHdXpmhwVZV6zQVvgjJ"  >
<path style="stroke: none; stroke-width: 0; stroke-dasharray: none; stroke-linecap: butt; stroke-dashoffset: 0; stroke-linejoin: miter; stroke-miterlimit: 4; fill: rgb(0,0,0); fill-rule: nonzero; opacity: 1;" vector-effect="non-scaling-stroke"  transform=" translate(-668.73, -996.92)" d="M 664.167 992.408 C 665.419 991.197 666.9350000000001 990.5840000000001 668.7330000000001 990.5840000000001 C 670.528 990.5840000000001 672.0440000000001 991.1970000000001 673.2660000000001 992.408 C 674.517 993.635 675.1390000000001 995.142 675.1390000000001 996.922 C 675.1390000000001 998.703 674.5170000000002 1000.201 673.2660000000001 1001.424 C 672.0430000000001 1002.6469999999999 670.528 1003.256 668.7330000000001 1003.256 C 666.9340000000001 1003.256 665.4190000000001 1002.6469999999999 664.167 1001.424 C 662.943 1000.201 662.322 998.703 662.322 996.922 C 662.322 995.143 662.943 993.635 664.167 992.408 M 664.635 996.922 C 664.635 998.02 665.031 998.994 665.836 999.846 C 666.617 1000.664 667.59 1001.065 668.7330000000001 1001.065 C 669.86 1001.065 670.82 1000.6650000000001 671.629 999.846 C 672.431 998.994 672.83 998.02 672.83 996.922 C 672.83 995.797 672.431 994.8240000000001 671.629 993.994 C 670.8190000000001 993.1850000000001 669.859 992.7710000000001 668.7330000000001 992.7710000000001 C 667.589 992.7710000000001 666.6170000000001 993.1850000000001 665.836 993.994 C 665.03 994.824 664.635 995.797 664.635 996.922" stroke-linecap="round" />
</g>
<g transform="matrix(0.6 0 0 0.6 360.77 550.28)" id="lB3woscyhkYEbdF2O84k5"  >
<path style="stroke: none; stroke-width: 0; stroke-dasharray: none; stroke-linecap: butt; stroke-dashoffset: 0; stroke-linejoin: miter; stroke-miterlimit: 4; fill: rgb(0,0,0); fill-rule: nonzero; opacity: 1;" vector-effect="non-scaling-stroke"  transform=" translate(-685.49, -996.72)" d="M 679.469 992.441 L 679.519 992.441 C 679.867 991.898 680.312 991.453 680.888 991.105 C 681.46 990.751 682.066 990.5840000000001 682.696 990.5840000000001 C 684.187 990.5840000000001 685.3380000000001 991.2850000000001 686.1560000000001 992.6970000000001 C 686.5360000000001 992.0490000000001 687.0500000000001 991.5410000000002 687.7130000000001 991.1560000000001 C 688.3600000000001 990.7750000000001 689.0820000000001 990.5840000000001 689.8420000000001 990.5840000000001 C 692.4970000000001 990.5840000000001 693.8210000000001 992.2990000000001 693.8210000000001 995.7270000000001 L 693.8210000000001 1002.844 L 691.5170000000002 1002.844 L 691.5170000000002 996.106 C 691.5170000000002 995.797 691.5040000000001 995.499 691.4750000000001 995.206 C 691.4540000000002 994.9110000000001 691.4090000000001 994.618 691.3370000000001 994.339 C 691.2700000000001 994.062 691.1650000000001 993.8040000000001 691.0240000000001 993.5580000000001 C 690.8910000000001 993.3240000000001 690.7030000000001 993.1110000000001 690.4610000000001 992.9230000000001 C 690.1550000000001 992.7180000000001 689.7590000000001 992.6220000000001 689.2910000000002 992.6220000000001 C 688.8030000000001 992.6220000000001 688.3970000000002 992.7180000000001 688.0560000000002 992.9230000000001 C 687.7310000000001 993.1110000000001 687.4840000000002 993.3490000000002 687.3010000000002 993.6280000000002 C 687.1160000000002 993.8990000000001 686.9750000000001 994.2590000000001 686.8790000000001 994.6890000000002 C 686.7780000000001 995.1050000000002 686.7070000000001 995.4960000000002 686.6830000000001 995.8200000000002 C 686.6580000000001 996.1660000000002 686.6460000000001 996.5580000000002 686.6460000000001 996.9980000000002 L 686.6460000000001 1002.8460000000001 L 684.3460000000001 1002.8460000000001 L 684.3460000000001 996.5370000000001 C 684.3460000000001 996.1390000000001 684.3280000000001 995.7990000000001 684.3120000000001 995.5270000000002 C 684.2950000000001 995.2480000000002 684.2460000000001 994.9160000000002 684.1540000000001 994.5060000000002 C 684.0740000000001 994.0630000000002 683.9660000000001 993.7400000000002 683.8290000000001 993.5370000000001 C 683.686 993.3030000000001 683.474 993.0860000000001 683.186 992.8980000000001 C 682.893 992.7180000000002 682.542 992.6230000000002 682.138 992.6230000000002 C 680.956 992.6230000000002 680.2 993.1330000000002 679.8580000000001 994.1460000000002 C 679.7 994.6260000000002 679.604 995.0740000000002 679.5500000000001 995.5000000000002 C 679.499 995.9220000000003 679.47 996.4220000000003 679.47 996.9980000000003 L 679.47 1002.8460000000002 L 677.162 1002.8460000000002 L 677.162 990.9360000000003 L 679.47 990.9360000000003 L 679.47 992.441 z" stroke-linecap="round" />
</g>
<g transform="matrix(0.6 0 0 0.6 388.18 549.28)" id="3J2Wu79pmE4YlzjOq5BFW"  >
<path style="stroke: none; stroke-width: 0; stroke-dasharray: none; stroke-linecap: butt; stroke-dashoffset: 0; stroke-linejoin: miter; stroke-miterlimit: 4; fill: rgb(0,0,0); fill-rule: nonzero; opacity: 1;" vector-effect="non-scaling-stroke"  transform=" translate(-731.26, -995.06)" d="M 714.936 995.818 L 747.582 995.818 C 748.566 995.818 748.566 994.306 747.582 994.306 L 714.936 994.306 C 713.954 994.307 713.954 995.818 714.936 995.818" stroke-linecap="round" />
</g>
<g transform="matrix(0.6 0 0 0.6 251.07 281.6)" id="2spn-nbl-WvTbRoDuuY5b"  >
<path style="stroke: none; stroke-width: 0; stroke-dasharray: none; stroke-linecap: butt; stroke-dashoffset: 0; stroke-linejoin: miter; stroke-miterlimit: 4; fill: rgb(102,53,40); fill-rule: nonzero; opacity: 1;" vector-effect="non-scaling-stroke"  transform=" translate(-502.33, -548.13)" d="M 95.026 572.696 L 567.42 299.959 L 909.636 497.53499999999997 L 437.241 770.278 L 399.18399999999997 748.307 L 316.051 796.304 L 299.20099999999996 786.5749999999999 L 382.335 738.579 z" stroke-linecap="round" />
</g>
<g transform="matrix(0.6 0 0 0.6 348.94 327.08)" id="gD5PJhhFcehqdJ4JeCdp0"  >
<path style="stroke: none; stroke-width: 0; stroke-dasharray: none; stroke-linecap: butt; stroke-dashoffset: 0; stroke-linejoin: miter; stroke-miterlimit: 4; fill: rgb(33,34,43); fill-rule: nonzero; opacity: 1;" vector-effect="non-scaling-stroke"  transform=" translate(-665.75, -624.07)" d="M 436.736 760.415 L 889.655 498.95799999999997 C 892.7909999999999 497.135 894.744 493.25199999999995 894.759 487.71999999999997 L 441.832 749.18 C 441.815 754.704 439.875 758.589 436.736 760.415 L 436.736 760.415 z" stroke-linecap="round" />
</g>
<g transform="matrix(0.6 0 0 0.6 350.52 305.42)" id="8NIgbHc_cyrS4hd4GdvgA"  >
<path style="stroke: none; stroke-width: 0; stroke-dasharray: none; stroke-linecap: butt; stroke-dashoffset: 0; stroke-linejoin: miter; stroke-miterlimit: 4; fill: rgb(36,38,50); fill-rule: nonzero; opacity: 1;" vector-effect="non-scaling-stroke"  transform=" translate(-668.38, -587.9)" d="M 441.832 749.18 L 894.759 487.71999999999997 L 894.928 426.62199999999996 L 442.005 688.0749999999999 z" stroke-linecap="round" />
</g>
<g transform="matrix(0.6 0 0 0.6 242.35 212.52)" id="5W5PBnDGuBflhPYPCIfAz"  >
<path style="stroke: none; stroke-width: 0; stroke-dasharray: none; stroke-linecap: butt; stroke-dashoffset: 0; stroke-linejoin: miter; stroke-miterlimit: 4; fill: rgb(57,61,72); fill-rule: nonzero; opacity: 1;" vector-effect="non-scaling-stroke"  transform=" translate(-487.77, -432.79)" d="M 424.561 657.775 L 877.483 396.31899999999996 L 550.9889999999999 207.81299999999996 L 98.06099999999992 469.275 z" stroke-linecap="round" />
</g>
<g transform="matrix(0.6 0 0 0.6 345.34 278.05)" id="xXzww3zBG493x-isps6Ch"  >
<path style="stroke: none; stroke-width: 0; stroke-dasharray: none; stroke-linecap: butt; stroke-dashoffset: 0; stroke-linejoin: miter; stroke-miterlimit: 4; fill: rgb(48,52,63); fill-rule: nonzero; opacity: 1;" vector-effect="non-scaling-stroke"  transform=" translate(-659.74, -542.2)" d="M 442.005 688.075 L 894.927 426.62200000000007 C 894.955 415.49500000000006 887.1650000000001 401.90600000000006 877.4830000000001 396.3190000000001 L 424.561 657.775 C 434.241 663.364 442.038 676.952 442.005 688.075 L 442.005 688.075 z" stroke-linecap="round" />
</g>
<g transform="matrix(0.6 0 0 0.6 111.85 321.92)" id="_kuaYxSFv8jzBjBGXR9mo"  >
<path style="stroke: none; stroke-width: 0; stroke-dasharray: none; stroke-linecap: butt; stroke-dashoffset: 0; stroke-linejoin: miter; stroke-miterlimit: 4; fill: rgb(48,52,63); fill-rule: nonzero; opacity: 1;" vector-effect="non-scaling-stroke"  transform=" translate(-269.89, -615.44)" d="M 424.27 759.188 C 433.955 764.777 441.799 760.303 441.832 749.18 L 442.006 688.0759999999999 C 442.039 676.9529999999999 434.24199999999996 663.3649999999999 424.56199999999995 657.776 L 98.06199999999995 469.27599999999995 L 97.95199999999996 476.51399999999995 L 107.46999999999996 481.94599999999997 L 126.58799999999995 525.9739999999999 L 107.61299999999994 558.683 L 97.79499999999994 564.48 L 97.77799999999995 570.683 L 424.27 759.188 z" stroke-linecap="round" />
</g>
<g transform="matrix(0.6 0 0 0.6 110.11 323.96)" id="-BCVbO7vi__fhpkAB6J-L"  >
<path style="stroke: none; stroke-width: 0; stroke-dasharray: none; stroke-linecap: butt; stroke-dashoffset: 0; stroke-linejoin: miter; stroke-miterlimit: 4; fill: rgb(57,61,72); fill-rule: nonzero; opacity: 1;" vector-effect="non-scaling-stroke"  transform=" translate(-266.99, -618.85)" d="M 436.001 749.168 C 435.98699999999997 752.267 435.16499999999996 754.587 433.794 755.376 C 432.39799999999997 756.184 429.928 755.7139999999999 427.191 754.136 L 97.793 564.483 L 107.26400000000001 559.0169999999999 L 128.77800000000002 531.231 L 107.46800000000002 481.945 L 421.646 662.831 C 425.38300000000004 664.988 429.096 668.948 431.84200000000004 673.703 C 434.607 678.4979999999999 436.189 683.727 436.177 688.058 L 436.001 749.168 z" stroke-linecap="round" />
</g>
<g transform="matrix(0.6 0 0 0.6 112.95 321.72)" id="04TOgsObqAKwBlcs_cOxk"  >
<linearGradient id="SVGID_6" gradientUnits="userSpaceOnUse" gradientTransform="matrix(0.5 0.87 0.87 -0.5 -385.6 154.18)"  x1="575.3945" y1="398.9902" x2="341.1186" y2="493.284">
<stop offset="0%" style="stop-color:rgb(237,209,180);stop-opacity: 1"/>
<stop offset="100%" style="stop-color:rgb(237,224,209);stop-opacity: 1"/>
</linearGradient>
<path style="stroke: none; stroke-width: 0; stroke-dasharray: none; stroke-linecap: butt; stroke-dashoffset: 0; stroke-linejoin: miter; stroke-miterlimit: 4; fill: url(#SVGID_6); fill-rule: nonzero; opacity: 1;" vector-effect="non-scaling-stroke"  transform=" translate(-271.72, -615.12)" d="M 107.48 481.95 L 421.646 662.831 C 425.38300000000004 664.988 429.096 668.948 431.84200000000004 673.703 C 434.607 678.4979999999999 436.189 683.727 436.177 688.058 L 436.00600000000003 748.2909999999999 L 107.264 559.018 L 107.48 481.95 z" stroke-linecap="round" />
</g>
<g transform="matrix(0.6 0 0 0.6 112.71 301.79)" id="FoRaVHGcw0wu4iczif3Tp"  >
<path style="stroke: none; stroke-width: 0; stroke-dasharray: none; stroke-linecap: butt; stroke-dashoffset: 0; stroke-linejoin: miter; stroke-miterlimit: 4; fill: rgb(206,183,163); fill-rule: nonzero; opacity: 1;" vector-effect="non-scaling-stroke"  transform=" translate(-271.33, -581.83)" d="M 107.452 493.005 L 107.48 481.95 L 421.646 662.831 C 425.38300000000004 664.988 429.096 668.948 431.84200000000004 673.703 C 433.34900000000005 676.317 434.46600000000007 679.053 435.20300000000003 681.707 L 107.452 493.005 z" stroke-linecap="round" />
</g>
<g transform="matrix(0.6 0 0 0.6 188.32 361.34)" id="BKhd6ddVM8gvZj18UKz89"  >
<path style="stroke: none; stroke-width: 0; stroke-dasharray: none; stroke-linecap: butt; stroke-dashoffset: 0; stroke-linejoin: miter; stroke-miterlimit: 4; fill: rgb(178,164,151); fill-rule: nonzero; opacity: 1;" vector-effect="non-scaling-stroke"  transform=" translate(-397.56, -681.27)" d="M 371.792 665.928 C 375.30899999999997 667.887 379.404 670.094 383.798 672.605 C 388.19 675.105 392.875 677.7760000000001 397.562 680.443 C 402.245 683.181 406.932 685.928 411.321 688.4979999999999 C 415.713 691.1279999999999 419.81600000000003 693.578 423.327 695.6809999999999 C 430.354 699.9419999999999 435.039 702.9089999999999 435.039 702.9089999999999 C 435.039 702.9089999999999 430.354 700.4679999999998 423.327 696.6079999999998 C 419.816 694.6529999999998 415.713 692.3769999999998 411.321 689.9299999999998 C 406.932 687.4329999999999 402.245 684.7619999999998 397.562 682.0979999999998 C 392.875 679.3539999999998 388.19 676.6159999999999 383.798 674.0419999999998 C 379.404 671.4809999999998 375.308 668.9529999999997 371.79200000000003 666.8589999999998 C 364.76500000000004 662.6019999999999 360.08200000000005 659.6299999999998 360.08200000000005 659.6299999999998 C 360.08200000000005 659.6299999999998 364.764 662.067 371.792 665.928 z" stroke-linecap="round" />
</g>
<g transform="matrix(0.6 0 0 0.6 157.24 388.17)" id="uQyK33_jZT6dNKE048VSg"  >
<path style="stroke: none; stroke-width: 0; stroke-dasharray: none; stroke-linecap: butt; stroke-dashoffset: 0; stroke-linejoin: miter; stroke-miterlimit: 4; fill: rgb(53,50,49); fill-rule: nonzero; opacity: 1;" vector-effect="non-scaling-stroke"  transform=" translate(-345.68, -726.06)" d="M 394.043 678.769 L 411.051 688.768 C 351.52099999999996 688.89 314.563 755.895 298.072 773.346 L 280.306 763.624 C 280.306 763.624 331.97 682.62 394.043 678.769 z" stroke-linecap="round" />
</g>
<g transform="matrix(0.6 0 0 0.6 241.38 212.07)" id="26qGJZUKYFg-Jlyh1CnUP"  >
<path style="stroke: none; stroke-width: 0; stroke-dasharray: none; stroke-linecap: butt; stroke-dashoffset: 0; stroke-linejoin: miter; stroke-miterlimit: 4; fill: rgb(241,235,220); fill-rule: nonzero; opacity: 1;" vector-effect="non-scaling-stroke"  transform=" translate(-486.16, -432.03)" d="M 151.79 482.345 C 270.027 550.609 285.71299999999997 559.666 400.31 625.83 C 401.319 626.409 402.904 626.3910000000001 403.906 625.811 C 414.459 619.6790000000001 431.678 619.6790000000001 442.297 625.811 C 443.30400000000003 626.39 444.88800000000003 626.409 445.887 625.83 C 589.137 542.587 533.193 575.1940000000001 820.688 408.119 C 821.688 407.54 821.651 406.622 820.644 406.043 C 810.025 399.911 809.968 389.93600000000004 820.516 383.808 C 821.5169999999999 383.226 821.544 382.3 820.54 381.721 C 705.9359999999999 315.564 690.255 306.502 572.015 238.238 C 571.011 237.655 569.3919999999999 237.655 568.391 238.238 C 557.841 244.368 540.622 244.368 530.034 238.259 C 529.027 237.67899999999997 527.443 237.65499999999997 526.443 238.238 C 485.72299999999996 261.903 181.87399999999997 438.378 151.639 455.948 C 150.639 456.52599999999995 150.68200000000002 457.44599999999997 151.686 458.02799999999996 C 162.27200000000002 464.14 162.328 474.116 151.78 480.24699999999996 C 150.776 480.828 150.781 481.763 151.79 482.345 z M 157.123 481.236 C 167.314 474.30199999999996 167.256 463.991 156.958 457.032 C 188.284 438.828 488.94399999999996 264.20799999999997 528.334 241.30899999999997 C 540.38 247.25399999999996 558.1809999999999 247.25399999999996 570.1229999999999 241.33199999999997 C 593.5039999999999 254.83099999999996 781.1109999999999 363.14199999999994 815.174 382.80899999999997 C 804.983 389.74699999999996 805.072 400.08 815.338 407.018 C 774.141 430.95899999999995 485.22599999999994 598.7539999999999 443.962 622.7339999999999 C 431.949 616.809 414.115 616.7909999999999 402.177 622.7139999999999 C 368.107 603.046 180.505 494.732 157.123 481.236 z" stroke-linecap="round" />
</g>
<g transform="matrix(0.6 0 0 0.6 220.05 195.31)" id="BFuxtbSjDwh-jHF8SF8TQ"  >
<path style="stroke: none; stroke-width: 0; stroke-dasharray: none; stroke-linecap: butt; stroke-dashoffset: 0; stroke-linejoin: miter; stroke-miterlimit: 4; fill: rgb(36,38,50); fill-rule: nonzero; opacity: 1;" vector-effect="non-scaling-stroke"  transform=" translate(-450.55, -404.06)" d="M 438.912 428.537 L 427.875 422.167 L 449.877 409.465 L 441.195 404.45 L 419.197 417.14799999999997 L 408.15500000000003 410.78599999999994 L 415.516 409.23199999999997 L 434.267 398.404 L 431.932 397.054 L 439.298 395.50699999999995 L 459.524 383.828 L 462.2 379.57899999999995 L 473.236 385.94599999999997 L 451.234 398.65099999999995 L 459.909 403.66599999999994 L 481.921 390.9649999999999 L 492.953 397.33399999999995 L 485.599 398.87999999999994 L 441.591 424.28799999999995 L 438.912 428.537 z" stroke-linecap="round" />
</g>
<g transform="matrix(0.6 0 0 0.6 241.63 206.6)" id="rNhqSJwxr8Ak5_2DKBI7u"  >
<path style="stroke: none; stroke-width: 0; stroke-dasharray: none; stroke-linecap: butt; stroke-dashoffset: 0; stroke-linejoin: miter; stroke-miterlimit: 4; fill: rgb(36,38,50); fill-rule: nonzero; opacity: 1;" vector-effect="non-scaling-stroke"  transform=" translate(-486.57, -422.9)" d="M 516.667 422.613 L 482.69100000000003 442.226 L 468.11 445.392 L 451.129 435.588 L 456.61400000000003 427.17100000000005 L 495.60800000000006 404.6580000000001 L 498.28600000000006 400.4100000000001 L 522.0120000000001 414.1120000000001 L 516.6740000000001 422.44200000000006 L 516.667 422.613 z M 506.703 416.86 L 499.277 412.577 L 467.777 430.758 L 466.447 432.844 L 472.855 436.551 L 476.47 435.78 L 505.185 419.2 L 506.703 416.86 z" stroke-linecap="round" />
</g>
<g transform="matrix(0.6 0 0 0.6 255.28 218.25)" id="oibd3oCrEwtkFYiq2AgML"  >
<path style="stroke: none; stroke-width: 0; stroke-dasharray: none; stroke-linecap: butt; stroke-dashoffset: 0; stroke-linejoin: miter; stroke-miterlimit: 4; fill: rgb(36,38,50); fill-rule: nonzero; opacity: 1;" vector-effect="non-scaling-stroke"  transform=" translate(-509.36, -442.35)" d="M 519.503 457.238 L 504.07000000000005 466.153 L 475.64900000000006 449.749 L 483.00100000000003 448.194 L 527.0160000000001 422.791 L 529.69 418.548 L 543.061 426.263 L 535.707 427.81 L 496.71299999999997 450.32 L 505.40299999999996 455.339 L 510.80499999999995 452.217 L 519.503 457.238 z" stroke-linecap="round" />
</g>
<g transform="matrix(0.6 0 0 0.6 279.17 226.42)" id="t984f5rn0tUCOCbTgknbR"  >
<path style="stroke: none; stroke-width: 0; stroke-dasharray: none; stroke-linecap: butt; stroke-dashoffset: 0; stroke-linejoin: miter; stroke-miterlimit: 4; fill: rgb(36,38,50); fill-rule: nonzero; opacity: 1;" vector-effect="non-scaling-stroke"  transform=" translate(-549.26, -456)" d="M 527.253 473.749 L 524.5740000000001 477.99 L 511.2030000000001 470.279 L 518.5570000000001 468.721 L 533.8490000000002 459.898 L 556.4880000000002 434.01500000000004 L 569.4540000000002 441.50000000000006 L 562.6780000000002 442.9390000000001 L 553.4720000000002 453.5830000000001 L 571.8390000000002 448.2340000000001 L 574.3390000000002 444.3190000000001 L 587.3110000000001 451.8060000000001 L 542.5450000000002 464.9170000000001 L 527.253 473.749 z" stroke-linecap="round" />
</g>
<g transform="matrix(0.6 0 0 0.6 156.93 222.93)" id="767VVBMkaDol9hzqFXDGx"  >
<path style="stroke: none; stroke-width: 0; stroke-dasharray: none; stroke-linecap: butt; stroke-dashoffset: 0; stroke-linejoin: miter; stroke-miterlimit: 4; fill: rgb(36,38,50); fill-rule: nonzero; opacity: 1;" vector-effect="non-scaling-stroke"  transform=" translate(-345.16, -450.17)" d="M 368.508 455.756 L 361.07399999999996 457.352 L 358.31899999999996 461.642 L 344.73099999999994 469.484 L 330.1479999999999 472.661 L 306.2819999999999 458.878 L 313.6329999999999 457.329 L 332.39199999999994 446.494 L 330.0539999999999 445.146 L 337.4149999999999 443.603 L 357.6429999999999 431.92 L 360.3219999999999 427.67400000000004 L 384.0469999999999 441.374 L 378.5469999999999 449.963 L 368.508 455.756 z M 334.896 463.811 L 338.50300000000004 463.041 L 346.99300000000005 458.139 L 348.50200000000007 455.798 L 341.0810000000001 451.517 L 327.3400000000001 459.453 L 334.896 463.811 z M 351.12 445.724 L 358.681 450.082 L 362.286 449.31 L 367.226 446.461 L 368.735 444.12100000000004 L 361.314 439.83700000000005 L 351.12 445.724 z" stroke-linecap="round" />
</g>
<g transform="matrix(0.6 0 0 0.6 172.64 231.97)" id="OxZGZuN7SXCidLW3ihsYJ"  >
<path style="stroke: none; stroke-width: 0; stroke-dasharray: none; stroke-linecap: butt; stroke-dashoffset: 0; stroke-linejoin: miter; stroke-miterlimit: 4; fill: rgb(36,38,50); fill-rule: nonzero; opacity: 1;" vector-effect="non-scaling-stroke"  transform=" translate(-371.39, -465.27)" d="M 353.732 480.48 L 351.052 484.72900000000004 L 337.682 477.00800000000004 L 345.04200000000003 475.461 L 389.04900000000004 450.04900000000004 L 391.72200000000004 445.807 L 405.09200000000004 453.523 L 397.73800000000006 455.07500000000005 L 353.732 480.48 z" stroke-linecap="round" />
</g>
<g transform="matrix(0.6 0 0 0.6 186.95 240.26)" id="kTgd3VfqJkvISC58nC5UV"  >
<path style="stroke: none; stroke-width: 0; stroke-dasharray: none; stroke-linecap: butt; stroke-dashoffset: 0; stroke-linejoin: miter; stroke-miterlimit: 4; fill: rgb(36,38,50); fill-rule: nonzero; opacity: 1;" vector-effect="non-scaling-stroke"  transform=" translate(-395.28, -479.1)" d="M 418.627 484.694 L 411.19100000000003 486.283 L 408.43600000000004 490.57300000000004 L 394.85100000000006 498.422 L 380.2610000000001 501.596 L 356.39900000000006 487.814 L 363.76000000000005 486.264 L 382.51900000000006 475.434 L 380.17600000000004 474.08200000000005 L 387.53200000000004 472.53200000000004 L 407.76000000000005 460.85800000000006 L 410.43800000000005 456.60900000000004 L 434.16600000000005 470.31000000000006 L 428.66400000000004 478.8980000000001 L 418.627 484.694 z M 385.011 492.747 L 388.62100000000004 491.973 L 397.11800000000005 487.07 L 398.63000000000005 484.739 L 391.20900000000006 480.44899999999996 L 377.4630000000001 488.38699999999994 L 385.011 492.747 z M 401.24 474.659 L 408.793 479.018 L 412.403 478.246 L 417.346 475.392 L 418.855 473.05899999999997 L 411.435 468.77399999999994 L 401.24 474.659 z" stroke-linecap="round" />
</g>
<g transform="matrix(0.6 0 0 0.6 202.66 251.91)" id="5nIHlLr71mgUABe7qLqxf"  >
<path style="stroke: none; stroke-width: 0; stroke-dasharray: none; stroke-linecap: butt; stroke-dashoffset: 0; stroke-linejoin: miter; stroke-miterlimit: 4; fill: rgb(36,38,50); fill-rule: nonzero; opacity: 1;" vector-effect="non-scaling-stroke"  transform=" translate(-421.51, -498.55)" d="M 431.659 513.431 L 416.219 522.35 L 387.80899999999997 505.94800000000004 L 395.16099999999994 504.39900000000006 L 439.16999999999996 478.98800000000006 L 441.84599999999995 474.74000000000007 L 455.21099999999996 482.4580000000001 L 447.85999999999996 484.0100000000001 L 408.86799999999994 506.52100000000013 L 417.55499999999995 511.5360000000001 L 422.96299999999997 508.4140000000001 L 431.659 513.431 z" stroke-linecap="round" />
</g>
<g transform="matrix(0.6 0 0 0.6 227.38 263.57)" id="qC_sCfm5rh1OC_vaHe0JG"  >
<path style="stroke: none; stroke-width: 0; stroke-dasharray: none; stroke-linecap: butt; stroke-dashoffset: 0; stroke-linejoin: miter; stroke-miterlimit: 4; fill: rgb(36,38,50); fill-rule: nonzero; opacity: 1;" vector-effect="non-scaling-stroke"  transform=" translate(-462.78, -518.02)" d="M 488.56 519.54 L 479.871 514.524 L 485.27799999999996 511.402 L 476.587 506.388 L 464.61699999999996 513.293 L 469.496 516.114 L 459.465 521.912 L 454.582 519.091 L 442.614 525.996 L 451.303 531.015 L 456.711 527.893 L 465.401 532.916 L 449.958 541.8280000000001 L 421.553 525.426 L 428.9 523.879 L 445.888 514.068 L 443.55699999999996 512.722 L 450.90599999999995 511.173 L 472.90799999999996 498.468 L 475.59399999999994 494.221 L 503.9989999999999 510.626 L 488.56 519.54 z" stroke-linecap="round" />
</g>
<g transform="matrix(0.6 0 0 0.6 219.47 228.81)" id="Cmfj6WjQ44GGXSGqv1zAD"  >
<path style="stroke: none; stroke-width: 0; stroke-dasharray: none; stroke-linecap: butt; stroke-dashoffset: 0; stroke-linejoin: miter; stroke-miterlimit: 4; fill: rgb(36,38,50); fill-rule: nonzero; opacity: 1;" vector-effect="non-scaling-stroke"  transform=" translate(-449.57, -459.99)" d="M 500.872 493.329 L 391.82800000000003 430.373 L 398.25600000000003 426.657 L 507.307 489.616 z" stroke-linecap="round" />
</g>
<g transform="matrix(0.6 0 0 0.6 162.99 259.12)" id="LjHrzLb0vrRDL5-x29Yzh"  >
<path style="stroke: none; stroke-width: 0; stroke-dasharray: none; stroke-linecap: butt; stroke-dashoffset: 0; stroke-linejoin: miter; stroke-miterlimit: 4; fill: rgb(36,38,50); fill-rule: nonzero; opacity: 1;" vector-effect="non-scaling-stroke"  transform=" translate(-355.28, -510.59)" d="M 406.591 543.921 L 297.546 480.96200000000005 L 303.97499999999997 477.25100000000003 L 413.024 540.2080000000001 z" stroke-linecap="round" />
</g>
<g transform="matrix(0.6 0 0 0.6 274.83 196.72)" id="FZRupPitpMHyEeBfI0ccG"  >
<path style="stroke: none; stroke-width: 0; stroke-dasharray: none; stroke-linecap: butt; stroke-dashoffset: 0; stroke-linejoin: miter; stroke-miterlimit: 4; fill: rgb(36,38,50); fill-rule: nonzero; opacity: 1;" vector-effect="non-scaling-stroke"  transform=" translate(-542, -406.41)" d="M 593.303 439.748 L 484.26 376.786 L 490.687 373.075 L 599.736 436.034 z" stroke-linecap="round" />
</g>
<g transform="matrix(0.6 0 0 0.6 220.05 193.82)" id="VcQhI9RqrPfYq9dXkCcuq"  >
<path style="stroke: none; stroke-width: 0; stroke-dasharray: none; stroke-linecap: butt; stroke-dashoffset: 0; stroke-linejoin: miter; stroke-miterlimit: 4; fill: rgb(241,235,220); fill-rule: nonzero; opacity: 1;" vector-effect="non-scaling-stroke"  transform=" translate(-450.55, -401.57)" d="M 438.912 426.045 L 427.875 419.672 L 449.877 406.97 L 441.195 401.95500000000004 L 419.197 414.65600000000006 L 408.15500000000003 408.29100000000005 L 415.516 406.7370000000001 L 434.267 395.9090000000001 L 431.932 394.5590000000001 L 439.298 393.0100000000001 L 459.524 381.3350000000001 L 462.2 377.08600000000007 L 473.236 383.4510000000001 L 451.234 396.1600000000001 L 459.909 401.17300000000006 L 481.921 388.4700000000001 L 492.953 394.83600000000007 L 485.599 396.3860000000001 L 441.591 421.79300000000006 L 438.912 426.045 z" stroke-linecap="round" />
</g>
<g transform="matrix(0.6 0 0 0.6 241.63 205.11)" id="GUM88bNwPirPjYKd4DUpz"  >
<path style="stroke: none; stroke-width: 0; stroke-dasharray: none; stroke-linecap: butt; stroke-dashoffset: 0; stroke-linejoin: miter; stroke-miterlimit: 4; fill: rgb(241,235,220); fill-rule: nonzero; opacity: 1;" vector-effect="non-scaling-stroke"  transform=" translate(-486.57, -420.41)" d="M 516.667 420.115 L 482.69100000000003 439.731 L 468.11 442.897 L 451.129 433.09 L 456.61400000000003 424.676 L 495.60800000000006 402.164 L 498.28600000000006 397.91499999999996 L 522.0120000000001 411.61799999999994 L 516.6740000000001 419.94499999999994 L 516.667 420.115 z M 506.703 414.365 L 499.277 410.079 L 467.777 428.266 L 466.447 430.353 L 472.855 434.056 L 476.47 433.28499999999997 L 505.185 416.707 L 506.703 414.365 z" stroke-linecap="round" />
</g>
<g transform="matrix(0.6 0 0 0.6 255.28 216.76)" id="pfv53nAlNuQKAma8Qhp8l"  >
<path style="stroke: none; stroke-width: 0; stroke-dasharray: none; stroke-linecap: butt; stroke-dashoffset: 0; stroke-linejoin: miter; stroke-miterlimit: 4; fill: rgb(241,235,220); fill-rule: nonzero; opacity: 1;" vector-effect="non-scaling-stroke"  transform=" translate(-509.36, -439.86)" d="M 519.503 454.747 L 504.07000000000005 463.659 L 475.64900000000006 447.254 L 483.00100000000003 445.70300000000003 L 527.0160000000001 420.297 L 529.69 416.05100000000004 L 543.061 423.76800000000003 L 535.707 425.317 L 496.71299999999997 447.82800000000003 L 505.40299999999996 452.84400000000005 L 510.80499999999995 449.725 L 519.503 454.747 z" stroke-linecap="round" />
</g>
<g transform="matrix(0.6 0 0 0.6 278.44 225.53)" id="wVxZXslUDEIOC8GWyw1NR"  >
<path style="stroke: none; stroke-width: 0; stroke-dasharray: none; stroke-linecap: butt; stroke-dashoffset: 0; stroke-linejoin: miter; stroke-miterlimit: 4; fill: rgb(241,235,220); fill-rule: nonzero; opacity: 1;" vector-effect="non-scaling-stroke"  transform=" translate(-549.26, -453.51)" d="M 527.253 471.254 L 524.5740000000001 475.49800000000005 L 511.2030000000001 467.78200000000004 L 518.5570000000001 466.22800000000007 L 533.8490000000002 457.4030000000001 L 556.4880000000002 431.52200000000005 L 569.4540000000002 439.00500000000005 L 562.6780000000002 440.4440000000001 L 553.4720000000002 451.0880000000001 L 571.8390000000002 445.7410000000001 L 574.3390000000002 441.8240000000001 L 587.3110000000001 449.31400000000014 L 542.5450000000002 462.42200000000014 L 527.253 471.254 z" stroke-linecap="round" />
</g>
<g transform="matrix(0.6 0 0 0.6 156.93 221.43)" id="XA3XBji0zmIAhG75c24PQ"  >
<path style="stroke: none; stroke-width: 0; stroke-dasharray: none; stroke-linecap: butt; stroke-dashoffset: 0; stroke-linejoin: miter; stroke-miterlimit: 4; fill: rgb(241,235,220); fill-rule: nonzero; opacity: 1;" vector-effect="non-scaling-stroke"  transform=" translate(-345.16, -447.67)" d="M 368.508 453.263 L 361.07399999999996 454.85699999999997 L 358.31899999999996 459.14599999999996 L 344.73099999999994 466.98999999999995 L 330.1479999999999 470.16299999999995 L 306.2819999999999 456.38499999999993 L 313.6329999999999 454.83699999999993 L 332.39199999999994 444.00199999999995 L 330.0539999999999 442.65199999999993 L 337.4149999999999 441.10999999999996 L 357.6429999999999 429.42499999999995 L 360.3219999999999 425.17599999999993 L 384.0469999999999 438.8789999999999 L 378.5469999999999 447.4699999999999 L 368.508 453.263 z M 334.896 461.315 L 338.50300000000004 460.547 L 346.99300000000005 455.64500000000004 L 348.50200000000007 453.30400000000003 L 341.0810000000001 449.023 L 327.3400000000001 456.96000000000004 L 334.896 461.315 z M 351.12 443.227 L 358.681 447.587 L 362.286 446.817 L 367.226 443.963 L 368.735 441.625 L 361.314 437.345 L 351.12 443.227 z" stroke-linecap="round" />
</g>
<g transform="matrix(0.6 0 0 0.6 172.64 230.48)" id="uIl0BEZDSlhSGTmnr4FJK"  >
<path style="stroke: none; stroke-width: 0; stroke-dasharray: none; stroke-linecap: butt; stroke-dashoffset: 0; stroke-linejoin: miter; stroke-miterlimit: 4; fill: rgb(241,235,220); fill-rule: nonzero; opacity: 1;" vector-effect="non-scaling-stroke"  transform=" translate(-371.39, -462.77)" d="M 353.732 477.985 L 351.052 482.236 L 337.682 474.513 L 345.04200000000003 472.969 L 389.04900000000004 447.553 L 391.72200000000004 443.311 L 405.09200000000004 451.02799999999996 L 397.73800000000006 452.57699999999994 L 353.732 477.985 z" stroke-linecap="round" />
</g>
<g transform="matrix(0.6 0 0 0.6 186.95 238.77)" id="0sPpYHAzW5rEOLgf7x9GC"  >
<path style="stroke: none; stroke-width: 0; stroke-dasharray: none; stroke-linecap: butt; stroke-dashoffset: 0; stroke-linejoin: miter; stroke-miterlimit: 4; fill: rgb(241,235,220); fill-rule: nonzero; opacity: 1;" vector-effect="non-scaling-stroke"  transform=" translate(-395.28, -476.61)" d="M 418.627 482.201 L 411.19100000000003 483.788 L 408.43600000000004 488.081 L 394.85100000000006 495.928 L 380.2610000000001 499.099 L 356.39900000000006 485.316 L 363.76000000000005 483.77 L 382.51900000000006 472.94 L 380.17600000000004 471.59 L 387.53200000000004 470.041 L 407.76000000000005 458.365 L 410.43800000000005 454.115 L 434.16600000000005 467.815 L 428.66400000000004 476.403 L 418.627 482.201 z M 385.011 490.252 L 388.62100000000004 489.48 L 397.11800000000005 484.57500000000005 L 398.63000000000005 482.242 L 391.20900000000006 477.956 L 377.4630000000001 485.894 L 385.011 490.252 z M 401.24 472.163 L 408.793 476.523 L 412.403 475.74800000000005 L 417.346 472.89900000000006 L 418.855 470.56300000000005 L 411.435 466.278 L 401.24 472.163 z" stroke-linecap="round" />
</g>
<g transform="matrix(0.6 0 0 0.6 202.66 250.41)" id="ZdPhu9oVyIhY4WrcgmT-h"  >
<path style="stroke: none; stroke-width: 0; stroke-dasharray: none; stroke-linecap: butt; stroke-dashoffset: 0; stroke-linejoin: miter; stroke-miterlimit: 4; fill: rgb(241,235,220); fill-rule: nonzero; opacity: 1;" vector-effect="non-scaling-stroke"  transform=" translate(-421.51, -496.05)" d="M 431.659 510.938 L 416.219 519.857 L 387.80899999999997 503.45099999999996 L 395.16099999999994 501.902 L 439.16999999999996 476.496 L 441.84599999999995 472.248 L 455.21099999999996 479.965 L 447.85999999999996 481.515 L 408.86799999999994 504.024 L 417.55499999999995 509.043 L 422.96299999999997 505.919 L 431.659 510.938 z" stroke-linecap="round" />
</g>
<g transform="matrix(0.6 0 0 0.6 227.38 262.08)" id="BkXlOYoSXkc44kmZ-kAI3"  >
<path style="stroke: none; stroke-width: 0; stroke-dasharray: none; stroke-linecap: butt; stroke-dashoffset: 0; stroke-linejoin: miter; stroke-miterlimit: 4; fill: rgb(241,235,220); fill-rule: nonzero; opacity: 1;" vector-effect="non-scaling-stroke"  transform=" translate(-462.78, -515.53)" d="M 488.56 517.046 L 479.871 512.029 L 485.27799999999996 508.907 L 476.587 503.893 L 464.61699999999996 510.801 L 469.496 513.619 L 459.465 519.4150000000001 L 454.582 516.5980000000001 L 442.614 523.503 L 451.303 528.5200000000001 L 456.711 525.3980000000001 L 465.401 530.4230000000001 L 449.958 539.3350000000002 L 421.553 522.9310000000002 L 428.9 521.3850000000001 L 445.888 511.5750000000001 L 443.55699999999996 510.2270000000001 L 450.90599999999995 508.6780000000001 L 472.90799999999996 495.9700000000001 L 475.59399999999994 491.7260000000001 L 503.9989999999999 508.1310000000001 L 488.56 517.046 z" stroke-linecap="round" />
</g>
<g transform="matrix(0.6 0 0 0.6 219.47 227.32)" id="dKNslt261b76wPpQ7SBoC"  >
<path style="stroke: none; stroke-width: 0; stroke-dasharray: none; stroke-linecap: butt; stroke-dashoffset: 0; stroke-linejoin: miter; stroke-miterlimit: 4; fill: rgb(241,235,220); fill-rule: nonzero; opacity: 1;" vector-effect="non-scaling-stroke"  transform=" translate(-449.57, -457.5)" d="M 500.872 490.834 L 391.82800000000003 427.875 L 398.25600000000003 424.162 L 507.307 487.123 z" stroke-linecap="round" />
</g>
<g transform="matrix(0.6 0 0 0.6 162.99 257.62)" id="woDtYsfBShKnMtzstsBVU"  >
<path style="stroke: none; stroke-width: 0; stroke-dasharray: none; stroke-linecap: butt; stroke-dashoffset: 0; stroke-linejoin: miter; stroke-miterlimit: 4; fill: rgb(241,235,220); fill-rule: nonzero; opacity: 1;" vector-effect="non-scaling-stroke"  transform=" translate(-355.28, -508.09)" d="M 406.591 541.425 L 297.546 478.467 L 303.97499999999997 474.75399999999996 L 413.024 537.7149999999999 z" stroke-linecap="round" />
</g>
<g transform="matrix(0.6 0 0 0.6 274.83 195.23)" id="_M63m7N83jjHfAQaFaxV2"  >
<path style="stroke: none; stroke-width: 0; stroke-dasharray: none; stroke-linecap: butt; stroke-dashoffset: 0; stroke-linejoin: miter; stroke-miterlimit: 4; fill: rgb(241,235,220); fill-rule: nonzero; opacity: 1;" vector-effect="non-scaling-stroke"  transform=" translate(-542, -403.92)" d="M 593.303 437.255 L 484.26 374.294 L 490.687 370.58 L 599.736 433.53999999999996 z" stroke-linecap="round" />
</g>
<g transform="matrix(0.6 0 0 0.6 306.96 173.67)" id="9eORtMemkoStcEOK_V8_Q"  >
<path style="stroke: none; stroke-width: 0; stroke-dasharray: none; stroke-linecap: butt; stroke-dashoffset: 0; stroke-linejoin: miter; stroke-miterlimit: 4; fill: rgb(36,38,50); fill-rule: nonzero; opacity: 1;" vector-effect="non-scaling-stroke"  transform=" translate(-595.66, -367.92)" d="M 575.753 348.063 L 595.634 358.95099999999996 L 609.317 358.20699999999994 L 595.681 358.9549999999999 L 548.5300000000001 389.84899999999993 L 562.2470000000001 397.37199999999996 L 609.3990000000001 366.48499999999996 L 629.1960000000001 377.32599999999996 L 642.7970000000001 368.421 L 622.9990000000001 357.577 L 640.6810000000002 346.001 L 626.9500000000002 338.476 L 609.2370000000002 350.076 L 609.4260000000002 358.15500000000003 L 609.2350000000001 350.048 L 589.3520000000001 339.157 z" stroke-linecap="round" />
</g>
<g transform="matrix(0.6 0 0 0.6 305.1 164.81)" id="dg0ApPR2n3WcmJP44cHGa"  >
<path style="stroke: none; stroke-width: 0; stroke-dasharray: none; stroke-linecap: butt; stroke-dashoffset: 0; stroke-linejoin: miter; stroke-miterlimit: 4; fill: rgb(36,38,50); fill-rule: nonzero; opacity: 1;" vector-effect="non-scaling-stroke"  transform=" translate(-592.54, -353.13)" d="M 575.753 348.063 L 595.634 358.95099999999996 L 609.317 358.20699999999994 L 589.441 347.31499999999994 z" stroke-linecap="round" />
</g>
<g transform="matrix(0.6 0 0 0.6 309.2 162.14)" id="jnRvZWZ3EpJETqBRNWdfg"  >
<path style="stroke: none; stroke-width: 0; stroke-dasharray: none; stroke-linecap: butt; stroke-dashoffset: 0; stroke-linejoin: miter; stroke-miterlimit: 4; fill: rgb(36,38,50); fill-rule: nonzero; opacity: 1;" vector-effect="non-scaling-stroke"  transform=" translate(-599.39, -348.68)" d="M 589.441 347.315 L 609.317 358.207 L 609.336 358.207 L 609.426 358.155 L 609.235 350.048 L 589.352 339.157 L 589.535 347.315 z" stroke-linecap="round" />
</g>
<g transform="matrix(0.6 0 0 0.6 299.17 159.11)" id="BQ-Hf0XwF2R0TOr-u11f7"  >
<path style="stroke: none; stroke-width: 0; stroke-dasharray: none; stroke-linecap: butt; stroke-dashoffset: 0; stroke-linejoin: miter; stroke-miterlimit: 4; fill: rgb(36,38,50); fill-rule: nonzero; opacity: 1;" vector-effect="non-scaling-stroke"  transform=" translate(-582.64, -343.61)" d="M 589.352 339.157 L 575.7529999999999 348.063 L 589.535 347.315 z" stroke-linecap="round" />
</g>
<g transform="matrix(0.6 0 0 0.6 310.4 175.93)" id="yYzQuV_TQo9LjdAjMeLkz"  >
<path style="stroke: none; stroke-width: 0; stroke-dasharray: none; stroke-linecap: butt; stroke-dashoffset: 0; stroke-linejoin: miter; stroke-miterlimit: 4; fill: rgb(36,38,50); fill-rule: evenodd; opacity: 1;" vector-effect="non-scaling-stroke"  transform=" translate(-601.39, -371.69)" d="M 562.247 397.372 L 609.399 366.485 L 609.315 366.44 L 609.336 358.211 L 609.336 358.211 L 562.106 389.142 L 562.247 397.372 z M 622.999 357.577 L 640.681 346.001 L 627.004 346.635 L 609.426 358.156 L 622.916 357.535 L 622.999 357.577 z" stroke-linecap="round" />
</g>
<g transform="matrix(0.6 0 0 0.6 302.24 171.42)" id="0ahk76N5S53CNIDa2h_lc"  >
<path style="stroke: none; stroke-width: 0; stroke-dasharray: none; stroke-linecap: butt; stroke-dashoffset: 0; stroke-linejoin: miter; stroke-miterlimit: 4; fill: rgb(36,38,50); fill-rule: nonzero; opacity: 1;" vector-effect="non-scaling-stroke"  transform=" translate(-587.77, -364.16)" d="M 562.105 389.142 L 627.004 346.635 L 626.907 346.644 L 626.95 338.476 L 609.2370000000001 350.076 L 609.426 358.15500000000003 L 609.336 358.20700000000005 L 609.317 358.20700000000005 L 595.681 358.95500000000004 L 548.5300000000001 389.84900000000005 L 562.1020000000001 389.09100000000007 z" stroke-linecap="round" />
</g>
<g transform="matrix(0.6 0 0 0.6 282.85 188.83)" id="PtYX-dcIfjuNz630gmpWy"  >
<path style="stroke: none; stroke-width: 0; stroke-dasharray: none; stroke-linecap: butt; stroke-dashoffset: 0; stroke-linejoin: miter; stroke-miterlimit: 4; fill: rgb(36,38,50); fill-rule: nonzero; opacity: 1;" vector-effect="non-scaling-stroke"  transform=" translate(-555.39, -393.23)" d="M 548.53 389.849 L 562.247 397.372 L 562.102 389.091 z" stroke-linecap="round" />
</g>
<g transform="matrix(0.6 0 0 0.6 329.8 158.48)" id="CUkNAf947lHzoDKEcahxY"  >
<path style="stroke: none; stroke-width: 0; stroke-dasharray: none; stroke-linecap: butt; stroke-dashoffset: 0; stroke-linejoin: miter; stroke-miterlimit: 4; fill: rgb(36,38,50); fill-rule: nonzero; opacity: 1;" vector-effect="non-scaling-stroke"  transform=" translate(-633.79, -342.56)" d="M 626.95 338.476 L 640.681 346.001 L 626.907 346.64399999999995 z" stroke-linecap="round" />
</g>
<g transform="matrix(0.6 0 0 0.6 321.1 173.58)" id="Vk5SSR4GDFW71G6EE3CGC"  >
<path style="stroke: none; stroke-width: 0; stroke-dasharray: none; stroke-linecap: butt; stroke-dashoffset: 0; stroke-linejoin: miter; stroke-miterlimit: 4; fill: rgb(36,38,50); fill-rule: nonzero; opacity: 1;" vector-effect="non-scaling-stroke"  transform=" translate(-619.27, -367.77)" d="M 629.196 377.326 L 609.315 366.44 L 609.336 358.211 L 629.217 369.1 z" stroke-linecap="round" />
</g>
<g transform="matrix(0.6 0 0 0.6 325.18 170.91)" id="fd1gj5f_ZcUYuWizqx5mE"  >
<path style="stroke: none; stroke-width: 0; stroke-dasharray: none; stroke-linecap: butt; stroke-dashoffset: 0; stroke-linejoin: miter; stroke-miterlimit: 4; fill: rgb(36,38,50); fill-rule: nonzero; opacity: 1;" vector-effect="non-scaling-stroke"  transform=" translate(-626.07, -363.32)" d="M 629.217 369.1 L 609.336 358.211 L 609.336 358.207 L 609.426 358.155 L 622.916 357.534 L 642.797 368.421 L 629.2130000000001 369.041 z" stroke-linecap="round" />
</g>
<g transform="matrix(0.6 0 0 0.6 306.96 171.9)" id="HPgs85TNZPZAKLCQ1eR2x"  >
<path style="stroke: none; stroke-width: 0; stroke-dasharray: none; stroke-linecap: butt; stroke-dashoffset: 0; stroke-linejoin: miter; stroke-miterlimit: 4; fill: rgb(241,235,220); fill-rule: nonzero; opacity: 1;" vector-effect="non-scaling-stroke"  transform=" translate(-595.66, -364.97)" d="M 575.753 345.104 L 595.634 355.993 L 609.317 355.24899999999997 L 595.681 355.998 L 548.5300000000001 386.892 L 562.2470000000001 394.414 L 609.3990000000001 363.529 L 629.1960000000001 374.36899999999997 L 642.7970000000001 365.464 L 622.9990000000001 354.622 L 640.6810000000002 343.04400000000004 L 626.9500000000002 335.51900000000006 L 609.2370000000002 347.11800000000005 L 609.4260000000002 355.19700000000006 L 609.2350000000001 347.0880000000001 L 589.3520000000001 336.19900000000007 z" stroke-linecap="round" />
</g>
<g transform="matrix(0.6 0 0 0.6 305.1 163.04)" id="nXli6dxSVW0jU_k0JlzAZ"  >
<path style="stroke: none; stroke-width: 0; stroke-dasharray: none; stroke-linecap: butt; stroke-dashoffset: 0; stroke-linejoin: miter; stroke-miterlimit: 4; fill: rgb(247,247,247); fill-rule: nonzero; opacity: 1;" vector-effect="non-scaling-stroke"  transform=" translate(-592.54, -350.18)" d="M 575.753 345.104 L 595.634 355.993 L 609.317 355.24899999999997 L 589.441 344.35799999999995 z" stroke-linecap="round" />
</g>
<g transform="matrix(0.6 0 0 0.6 309.2 160.37)" id="F1l83GrD9Ci5AYQuD7Y5f"  >
<path style="stroke: none; stroke-width: 0; stroke-dasharray: none; stroke-linecap: butt; stroke-dashoffset: 0; stroke-linejoin: miter; stroke-miterlimit: 4; fill: rgb(241,235,220); fill-rule: nonzero; opacity: 1;" vector-effect="non-scaling-stroke"  transform=" translate(-599.39, -345.72)" d="M 589.441 344.358 L 609.317 355.249 L 609.336 355.249 L 609.426 355.197 L 609.235 347.088 L 589.352 336.199 L 589.535 344.358 z" stroke-linecap="round" />
</g>
<g transform="matrix(0.6 0 0 0.6 299.17 157.34)" id="edn3YdLO8EWgjzXbv244c"  >
<path style="stroke: none; stroke-width: 0; stroke-dasharray: none; stroke-linecap: butt; stroke-dashoffset: 0; stroke-linejoin: miter; stroke-miterlimit: 4; fill: rgb(211,205,193); fill-rule: nonzero; opacity: 1;" vector-effect="non-scaling-stroke"  transform=" translate(-582.64, -340.65)" d="M 589.352 336.199 L 575.7529999999999 345.104 L 589.535 344.358 z" stroke-linecap="round" />
</g>
<g transform="matrix(0.6 0 0 0.6 310.4 174.15)" id="VvFieFbKD6mB1letOjBJ7"  >
<path style="stroke: none; stroke-width: 0; stroke-dasharray: none; stroke-linecap: butt; stroke-dashoffset: 0; stroke-linejoin: miter; stroke-miterlimit: 4; fill: rgb(247,247,247); fill-rule: evenodd; opacity: 1;" vector-effect="non-scaling-stroke"  transform=" translate(-601.39, -368.73)" d="M 562.247 394.414 L 609.399 363.529 L 609.315 363.48199999999997 L 609.336 355.253 L 609.336 355.253 L 562.106 386.18399999999997 L 562.247 394.414 z M 622.999 354.622 L 640.681 343.04400000000004 L 627.004 343.677 L 609.426 355.19800000000004 L 622.916 354.579 L 622.999 354.622 z" stroke-linecap="round" />
</g>
<g transform="matrix(0.6 0 0 0.6 302.24 169.65)" id="naPUMBJZlk1UUAhCoUXMm"  >
<path style="stroke: none; stroke-width: 0; stroke-dasharray: none; stroke-linecap: butt; stroke-dashoffset: 0; stroke-linejoin: miter; stroke-miterlimit: 4; fill: rgb(241,235,220); fill-rule: nonzero; opacity: 1;" vector-effect="non-scaling-stroke"  transform=" translate(-587.77, -361.21)" d="M 562.105 386.185 L 627.004 343.677 L 626.907 343.684 L 626.95 335.519 L 609.2370000000001 347.118 L 609.426 355.197 L 609.336 355.249 L 609.317 355.249 L 595.681 355.99800000000005 L 548.5300000000001 386.89200000000005 L 562.1020000000001 386.13400000000007 z" stroke-linecap="round" />
</g>
<g transform="matrix(0.6 0 0 0.6 282.85 187.05)" id="HVvHFPPxufq_UD_ezq0hp"  >
<path style="stroke: none; stroke-width: 0; stroke-dasharray: none; stroke-linecap: butt; stroke-dashoffset: 0; stroke-linejoin: miter; stroke-miterlimit: 4; fill: rgb(211,205,193); fill-rule: nonzero; opacity: 1;" vector-effect="non-scaling-stroke"  transform=" translate(-555.39, -390.27)" d="M 548.53 386.892 L 562.247 394.414 L 562.102 386.134 z" stroke-linecap="round" />
</g>
<g transform="matrix(0.6 0 0 0.6 329.8 156.71)" id="atbcFVUtwihUZHWE4kHZW"  >
<path style="stroke: none; stroke-width: 0; stroke-dasharray: none; stroke-linecap: butt; stroke-dashoffset: 0; stroke-linejoin: miter; stroke-miterlimit: 4; fill: rgb(211,205,193); fill-rule: nonzero; opacity: 1;" vector-effect="non-scaling-stroke"  transform=" translate(-633.79, -339.6)" d="M 626.95 335.519 L 640.681 343.044 L 626.907 343.68399999999997 z" stroke-linecap="round" />
</g>
<g transform="matrix(0.6 0 0 0.6 321.1 171.81)" id="1oHYlibGgWd2d_UK-YJyV"  >
<path style="stroke: none; stroke-width: 0; stroke-dasharray: none; stroke-linecap: butt; stroke-dashoffset: 0; stroke-linejoin: miter; stroke-miterlimit: 4; fill: rgb(241,235,220); fill-rule: nonzero; opacity: 1;" vector-effect="non-scaling-stroke"  transform=" translate(-619.27, -364.81)" d="M 629.196 374.369 L 609.315 363.482 L 609.336 355.254 L 629.217 366.14300000000003 z" stroke-linecap="round" />
</g>
<g transform="matrix(0.6 0 0 0.6 325.18 169.14)" id="bGd_JDKm8RAH-ST0K-YW0"  >
<path style="stroke: none; stroke-width: 0; stroke-dasharray: none; stroke-linecap: butt; stroke-dashoffset: 0; stroke-linejoin: miter; stroke-miterlimit: 4; fill: rgb(247,247,247); fill-rule: nonzero; opacity: 1;" vector-effect="non-scaling-stroke"  transform=" translate(-626.07, -360.36)" d="M 629.217 366.143 L 609.336 355.25399999999996 L 609.336 355.24899999999997 L 609.426 355.19699999999995 L 622.916 354.5779999999999 L 642.797 365.46399999999994 L 629.2130000000001 366.08399999999995 z" stroke-linecap="round" />
</g>
</svg>