<svg id="visual" viewBox="0 0 1903 589.5" width="1903" height="589.5" xmlns="http://www.w3.org/2000/svg" xmlns:xlink="http://www.w3.org/1999/xlink" version="1.1"><rect x="0" y="0" width="1903" height="589.5" fill="#faf8f7"></rect><path d="M0 484L45.3 486.7C90.7 489.3 181.3 494.7 272 491.2C362.7 487.7 453.3 475.3 544 473.7C634.7 472 725.3 481 815.8 479C906.3 477 996.7 464 1087.2 461.8C1177.7 459.7 1268.3 468.3 1359 467.8C1449.7 467.3 1540.3 457.7 1631 461C1721.7 464.3 1812.3 480.7 1857.7 488.8L1903 497L1903 591L1857.7 591C1812.3 591 1721.7 591 1631 591C1540.3 591 1449.7 591 1359 591C1268.3 591 1177.7 591 1087.2 591C996.7 591 906.3 591 815.8 591C725.3 591 634.7 591 544 591C453.3 591 362.7 591 272 591C181.3 591 90.7 591 45.3 591L0 591Z" fill="#5c616c"></path><path d="M0 470L45.3 476C90.7 482 181.3 494 272 495.5C362.7 497 453.3 488 544 484.8C634.7 481.7 725.3 484.3 815.8 486.3C906.3 488.3 996.7 489.7 1087.2 486.8C1177.7 484 1268.3 477 1359 476.5C1449.7 476 1540.3 482 1631 485.8C1721.7 489.7 1812.3 491.3 1857.7 492.2L1903 493L1903 591L1857.7 591C1812.3 591 1721.7 591 1631 591C1540.3 591 1449.7 591 1359 591C1268.3 591 1177.7 591 1087.2 591C996.7 591 906.3 591 815.8 591C725.3 591 634.7 591 544 591C453.3 591 362.7 591 272 591C181.3 591 90.7 591 45.3 591L0 591Z" fill="#4a4f5a"></path><path d="M0 537L45.3 535.3C90.7 533.7 181.3 530.3 272 530.2C362.7 530 453.3 533 544 527.5C634.7 522 725.3 508 815.8 507.7C906.3 507.3 996.7 520.7 1087.2 525.7C1177.7 530.7 1268.3 527.3 1359 527C1449.7 526.7 1540.3 529.3 1631 527.7C1721.7 526 1812.3 520 1857.7 517L1903 514L1903 591L1857.7 591C1812.3 591 1721.7 591 1631 591C1540.3 591 1449.7 591 1359 591C1268.3 591 1177.7 591 1087.2 591C996.7 591 906.3 591 815.8 591C725.3 591 634.7 591 544 591C453.3 591 362.7 591 272 591C181.3 591 90.7 591 45.3 591L0 591Z" fill="#393d48"></path><path d="M0 533L45.3 535.5C90.7 538 181.3 543 272 543.5C362.7 544 453.3 540 544 538.5C634.7 537 725.3 538 815.8 540.3C906.3 542.7 996.7 546.3 1087.2 543.8C1177.7 541.3 1268.3 532.7 1359 532.5C1449.7 532.3 1540.3 540.7 1631 542.8C1721.7 545 1812.3 541 1857.7 539L1903 537L1903 591L1857.7 591C1812.3 591 1721.7 591 1631 591C1540.3 591 1449.7 591 1359 591C1268.3 591 1177.7 591 1087.2 591C996.7 591 906.3 591 815.8 591C725.3 591 634.7 591 544 591C453.3 591 362.7 591 272 591C181.3 591 90.7 591 45.3 591L0 591Z" fill="#32353e"></path><path d="M0 554L45.3 554.3C90.7 554.7 181.3 555.3 272 555.8C362.7 556.3 453.3 556.7 544 557.3C634.7 558 725.3 559 815.8 557.2C906.3 555.3 996.7 550.7 1087.2 551.8C1177.7 553 1268.3 560 1359 562.2C1449.7 564.3 1540.3 561.7 1631 558.5C1721.7 555.3 1812.3 551.7 1857.7 549.8L1903 548L1903 591L1857.7 591C1812.3 591 1721.7 591 1631 591C1540.3 591 1449.7 591 1359 591C1268.3 591 1177.7 591 1087.2 591C996.7 591 906.3 591 815.8 591C725.3 591 634.7 591 544 591C453.3 591 362.7 591 272 591C181.3 591 90.7 591 45.3 591L0 591Z" fill="#2b2d35"></path></svg>